SplineFontDB: 3.0
FontName: GoldenDragonOutline
FullName: Golden Dragon Outline
FamilyName: Golden Dragon 
Weight: Black
Copyright: Copyright (c) 2017, Alberto de la Cruz
UComments: "2017-11-29: Created with FontForge (http://fontforge.org)"
Version: 001.000
DefaultBaseFilename: golden-dragon-outline
ItalicAngle: 0
UnderlinePosition: -102
UnderlineWidth: 51
Ascent: 800
Descent: 225
InvalidEm: 0
LayerCount: 2
Layer: 0 0 "Back" 1
Layer: 1 0 "Fore" 0
XUID: [1021 97 -1070742597 4711661]
FSType: 0
OS2Version: 0
OS2_WeightWidthSlopeOnly: 0
OS2_UseTypoMetrics: 1
CreationTime: 1511978515
ModificationTime: 1512406479
PfmFamily: 17
TTFWeight: 900
TTFWidth: 5
LineGap: 92
VLineGap: 0
OS2TypoAscent: 0
OS2TypoAOffset: 1
OS2TypoDescent: 0
OS2TypoDOffset: 1
OS2TypoLinegap: 92
OS2WinAscent: 0
OS2WinAOffset: 1
OS2WinDescent: 0
OS2WinDOffset: 1
HheadAscent: 0
HheadAOffset: 1
HheadDescent: 0
HheadDOffset: 1
OS2Vendor: 'PfEd'
Lookup: 258 0 0 "'kern' Horizontal Kerning in Latin lookup 0" { "'kern' Horizontal Kerning in Latin lookup 0-1" [153,15,0] } ['    ' ('DFLT' <'dflt' > 'latn' <'dflt' > ) 'kern' ('DFLT' <'dflt' > 'latn' <'dflt' > ) ]
MarkAttachClasses: 1
DEI: 91125
KernClass2: 1 1 "'kern' Horizontal Kerning in Latin lookup 0-1"
 0 {}
LangName: 1033
Encoding: mac
UnicodeInterp: none
NameList: AGL For New Fonts
DisplaySize: -48
AntiAlias: 1
FitToEm: 0
WinInfo: 23 23 11
BeginPrivate: 0
EndPrivate
TeXData: 1 0 0 346030 173015 115343 0 1048576 115343 783286 444596 497025 792723 393216 433062 380633 303038 157286 324010 404750 52429 2506097 1059062 262144
BeginChars: 257 223

StartChar: A
Encoding: 65 65 0
Width: 637
VWidth: 0
Flags: W
HStem: 0 23.5605<37.7139 266.78 353.604 596.43> 232.555 23.5703<290.35 330.044> 390.472 23.5605<290.35 330.044> 634.765 23.5615<295.297 330.044> 780.944 23.5605<120.58 596.335>
VStem: 14.1152 23.5986<23.5605 686.24> 266.78 23.5693<23.5605 232.555 414.032 632.959> 330.044 23.5605<23.5605 232.555 414.032 634.765> 596.43 23.5703<23.5605 780.944>
LayerCount: 2
Fore
SplineSet
620 0 m 5
 330.043945312 0 l 5
 330.043945312 232.5546875 l 5
 290.349609375 232.5546875 l 5
 290.349609375 -0.0107421875 l 5
 14.0859375 -0.0107421875 l 5
 14.115234375 11.7939453125 l 6
 14.1728515625 36.966796875 15.478515625 628.500976562 18.16796875 652.671875 c 4
 20.9228515625 677.680664062 28.103515625 702.100585938 39.48828125 725.22265625 c 4
 51.2724609375 749.193359375 69.779296875 768.64453125 94.4462890625 783.0234375 c 4
 118.921875 797.287109375 149.805664062 804.504882812 186.2578125 804.504882812 c 6
 619.895507812 804.504882812 l 5
 620 0 l 5
353.604492188 23.560546875 m 5
 596.4296875 23.560546875 l 5
 596.334960938 780.944335938 l 5
 186.267578125 780.944335938 l 6
 154.040039062 780.944335938 127.141601562 774.793945312 106.327148438 762.666992188 c 4
 85.7216796875 750.662109375 70.3515625 734.56640625 60.6357421875 714.8203125 c 4
 50.462890625 694.157226562 44.0546875 672.370117188 41.5947265625 650.077148438 c 4
 39.525390625 631.475585938 38.1142578125 202.548828125 37.7138671875 23.560546875 c 5
 266.780273438 23.560546875 l 5
 266.780273438 256.125 l 5
 353.604492188 256.125 l 5
 353.604492188 23.560546875 l 5
353.604492188 390.471679688 m 5
 266.780273438 390.471679688 l 5
 266.780273438 514.358398438 l 6
 266.780273438 602.317382812 270.13671875 623.666992188 272.653320312 632.076171875 c 4
 275.428710938 641.296875 283.904296875 656.961914062 309.572265625 658.306640625 c 6
 310.182617188 658.326171875 l 5
 353.604492188 658.326171875 l 5
 353.604492188 390.471679688 l 5
290.349609375 414.032226562 m 5
 330.043945312 414.032226562 l 5
 330.043945312 634.764648438 l 5
 310.526367188 634.764648438 l 6
 299.389648438 634.116210938 296.586914062 629.826171875 295.232421875 625.306640625 c 4
 293.009765625 617.87890625 290.349609375 592.6015625 290.349609375 514.358398438 c 6
 290.349609375 414.032226562 l 5
459.016601562 48.5322265625 m 1029
EndSplineSet
Validated: 524289
EndChar

StartChar: B
Encoding: 66 66 1
Width: 638
VWidth: 0
Flags: W
HStem: 0 23.5977<45.5703 504.229> 149.392 23.5605<310.259 352.456> 353.199 23.5625<310.259 357.114> 505.262 23.5898<310.85 357.705> 659.537 23.5791<310.85 357.705> 780.944 23.5703<45.5703 506.284>
VStem: 22 23.5703<23.5977 780.944> 286.698 23.5605<172.952 353.199 528.852 659.547> 361.767 23.5791<176.773 350.718 531.38 657.075> 592.92 23.3799<111.738 382.083 496.721 694.449>
LayerCount: 2
Fore
SplineSet
22 0 m 1
 22 804.514648438 l 1
 433.735351562 804.514648438 l 2
 473.21875 804.514648438 506.639648438 797.36328125 533.107421875 783.2421875 c 0
 559.938476562 768.930664062 580.076171875 749.537109375 592.919921875 725.603515625 c 0
 605.411132812 702.38671875 613.278320312 677.881835938 616.299804688 652.776367188 c 0
 618.015625 638.6171875 618.215820312 619.205078125 618.073242188 605.407226562 c 0
 618.291992188 583.411132812 618.168945312 553.69921875 616.299804688 538.38671875 c 0
 613.278320312 513.291015625 605.411132812 488.787109375 592.919921875 465.55859375 c 0
 587.915039062 456.205078125 581.650390625 447.443359375 574.290039062 439.405273438 c 0
 581.650390625 431.348632812 587.915039062 422.584960938 592.919921875 413.2421875 c 0
 605.420898438 390.013671875 613.278320312 365.51953125 616.299804688 340.4140625 c 0
 619.255859375 316.08984375 617.38671875 194.205078125 617.30078125 189.028320312 c 0
 617.024414062 170.416015625 616.51953125 158.383789062 615.775390625 152.26171875 c 0
 612.762695312 127.17578125 604.885742188 102.671875 592.405273438 79.4248046875 c 0
 579.552734375 55.4931640625 559.424804688 36.107421875 532.583984375 21.7958984375 c 0
 506.124023438 7.685546875 472.685546875 0.5234375 433.2109375 0.5234375 c 2
 22 0 l 1
45.5703125 780.944335938 m 1
 45.5703125 23.59765625 l 1
 433.2109375 24.09375 l 2
 468.786132812 24.09375 498.487304688 30.310546875 521.50390625 42.58203125 c 0
 544.168945312 54.681640625 561.044921875 70.82421875 571.666992188 90.5810546875 c 0
 582.756835938 111.21484375 589.736328125 132.915039062 592.405273438 155.084960938 c 0
 592.84375 158.697265625 593.424804688 167.565429688 593.758789062 189.400390625 c 0
 594.3125 224.221679688 595.217773438 318.712890625 592.919921875 337.591796875 c 0
 590.259765625 359.76953125 583.270507812 381.470703125 572.192382812 402.094726562 c 0
 566.546875 412.592773438 558.9765625 422.213867188 549.69921875 430.71875 c 2
 540.202148438 439.4140625 l 1
 549.69921875 448.111328125 l 2
 558.986328125 456.596679688 566.556640625 466.2265625 572.192382812 476.71484375 c 0
 583.270507812 497.348632812 590.259765625 519.040039062 592.919921875 541.208984375 c 0
 594.264648438 552.174804688 594.828125 574.981445312 594.522460938 605.416015625 c 0
 594.665039062 618.727539062 594.484375 637.03515625 592.919921875 649.955078125 c 0
 590.259765625 672.1328125 583.270507812 693.82421875 572.192382812 714.44921875 c 0
 561.5703125 734.213867188 544.68359375 750.3671875 522.01953125 762.45703125 c 0
 499.01171875 774.727539062 469.310546875 780.944335938 433.745117188 780.944335938 c 2
 45.5703125 780.944335938 l 1
335.249023438 149.391601562 m 1
 286.698242188 149.391601562 l 1
 286.698242188 376.76171875 l 1
 335.249023438 376.76171875 l 2
 365.72265625 376.76171875 376.31640625 361.962890625 379.84375 349.547851562 c 0
 381.846679688 342.4453125 384.573242188 325.787109375 385.345703125 263.23828125 c 0
 384.573242188 200.403320312 381.846679688 183.74609375 379.84375 176.65234375 c 0
 377.383789062 167.994140625 372.063476562 160.967773438 364.436523438 156.323242188 c 2
 363.520507812 155.818359375 l 2
 359.791992188 153.96875 355.483398438 152.34765625 350.715820312 150.994140625 c 0
 349.475585938 150.7265625 348.245117188 150.5078125 347.03515625 150.31640625 c 2
 347.03515625 149.420898438 l 1
 335.249023438 149.391601562 l 1
310.268554688 172.952148438 m 1
 335.249023438 172.991210938 l 2
 338.920898438 172.991210938 342.248046875 173.286132812 345.166015625 173.887695312 c 0
 347.4921875 174.57421875 350.229492188 175.59375 352.565429688 176.700195312 c 0
 354.9296875 178.244140625 356.350585938 180.23828125 357.151367188 183.069335938 c 0
 358.5625 188.084960938 361.061523438 205.228515625 361.766601562 263.23828125 c 0
 361.061523438 320.962890625 358.5625 338.107421875 357.151367188 343.141601562 c 0
 356.379882812 345.877929688 354.30078125 353.19921875 335.240234375 353.19921875 c 2
 310.258789062 353.19921875 l 1
 310.258789062 172.952148438 l 1
 310.268554688 172.952148438 l 1
287.298828125 505.26171875 m 1
 287.298828125 683.116210938 l 1
 335.840820312 683.116210938 l 2
 366.314453125 683.116210938 376.907226562 668.328125 380.426757812 655.904296875 c 0
 382.104492188 649.955078125 384.44921875 636.806640625 385.537109375 591.21875 c 0
 385.975585938 582.724609375 382.533203125 539.98828125 380.435546875 532.551757812 c 0
 376.907226562 520.118164062 366.32421875 505.319335938 335.840820312 505.319335938 c 2
 287.298828125 505.26171875 l 1
310.849609375 659.546875 m 1
 310.849609375 528.8515625 l 1
 335.821289062 528.879882812 l 2
 354.891601562 528.879882812 356.9609375 536.193359375 357.7421875 538.939453125 c 0
 359.116210938 544.469726562 362.338867188 583.448242188 361.9765625 590.313476562 c 0
 360.96484375 632.3046875 358.885742188 645.397460938 357.7421875 649.487304688 c 0
 356.9609375 652.223632812 354.891601562 659.537109375 335.83203125 659.537109375 c 2
 310.849609375 659.537109375 l 1
 310.849609375 659.546875 l 1
EndSplineSet
Validated: 524325
EndChar

StartChar: C
Encoding: 67 67 2
Width: 489
VWidth: 0
Flags: W
HStem: 0 23.4453<133.05 447.573> 150.459 23.4287<303.339 447.573> 630.741 23.4658<313.121 447.562> 781.078 23.4268<133.054 447.562>
VStem: 15.3564 23.4355<126.064 678.442> 274.057 23.4268<177.11 619.785> 447.573 23.4355<23.4453 150.659 654.025 781.078>
LayerCount: 2
Fore
SplineSet
471 0 m 1
 207.626953125 0 l 2
 167.02734375 0 132.634765625 7.3505859375 105.432617188 21.8525390625 c 0
 77.84765625 36.5654296875 57.17578125 56.4931640625 43.9599609375 81.083984375 c 0
 31.1181640625 104.978515625 23.0322265625 130.178710938 19.9228515625 155.990234375 c 0
 17.3203125 177.520507812 15.814453125 217.184570312 15.451171875 273.984375 c 1
 15.39453125 273.984375 l 1
 15.3564453125 285.703125 l 1
 15.44140625 530.510742188 l 2
 15.8037109375 587.309570312 17.3017578125 626.975585938 19.9130859375 648.5234375 c 0
 23.0224609375 674.325195312 31.107421875 699.526367188 43.951171875 723.411132812 c 0
 57.1572265625 748.001953125 77.84765625 767.919921875 105.422851562 782.631835938 c 0
 132.634765625 797.14453125 167.017578125 804.504882812 207.6171875 804.504882812 c 2
 471 804.504882812 l 1
 471 630.665039062 l 1
 471 630.665039062 368.174804688 630.711914062 336.034179688 630.741210938 c 2
 324.829101562 630.588867188 l 2
 306.399414062 630.588867188 303.99609375 623.237304688 302.9765625 620.090820312 c 0
 300.92578125 613.8359375 297.483398438 590.713867188 297.483398438 505.911132812 c 2
 297.483398438 298.555664062 l 2
 297.483398438 213.751953125 300.92578125 190.639648438 302.9765625 184.403320312 c 0
 303.99609375 181.248046875 306.399414062 173.887695312 324.829101562 173.887695312 c 0
 332.848632812 173.896484375 454.733398438 174.040039062 458.909179688 174.125 c 2
 470.89453125 174.3828125 l 1
 471.008789062 162.40625 l 1
 471.008789062 0 l 1
 471 0 l 1
38.802734375 291.260742188 m 1
 38.8408203125 285.740234375 l 2
 39.0498046875 223.583007812 40.5185546875 180.875976562 43.1884765625 158.802734375 c 0
 45.9443359375 135.909179688 53.15234375 113.483398438 64.61328125 92.1826171875 c 0
 75.59765625 71.73046875 93.046875 55.0341796875 116.473632812 42.5341796875 c 0
 140.234375 29.8720703125 170.908203125 23.4453125 207.635742188 23.4453125 c 2
 447.573242188 23.4453125 l 1
 447.573242188 150.659179688 l 2
 414.2578125 150.545898438 325.907226562 150.458984375 324.849609375 150.458984375 c 0
 295.577148438 150.458984375 284.688476562 164.953125 280.711914062 177.110351562 c 0
 277.860351562 185.795898438 274.056640625 207.850585938 274.056640625 298.565429688 c 2
 274.056640625 505.9296875 l 2
 274.056640625 596.64453125 277.860351562 618.708984375 280.721679688 627.404296875 c 0
 284.106445312 637.768554688 292.53515625 649.848632812 313.12109375 653.16796875 c 2
 324.838867188 654.20703125 l 2
 325.8984375 654.20703125 414.133789062 654.149414062 447.5625 654.025390625 c 2
 447.5625 781.078125 l 1
 207.626953125 781.078125 l 2
 170.91796875 781.078125 140.252929688 774.651367188 116.463867188 761.970703125 c 0
 93.0263671875 749.469726562 75.5791015625 732.764648438 64.6044921875 712.321289062 c 0
 53.1435546875 691.020507812 45.9345703125 668.614257812 43.1787109375 645.720703125 c 0
 40.5087890625 623.627929688 39.041015625 580.912109375 38.8310546875 518.764648438 c 2
 38.7919921875 508.265625 l 1
 38.7919921875 291.260742188 l 1
 38.802734375 291.260742188 l 1
EndSplineSet
Validated: 524289
EndChar

StartChar: D
Encoding: 68 68 3
Width: 655
VWidth: 0
Flags: W
HStem: 0 23.418<37.4473 523.799> 150.222 23.4473<304.052 353.528> 630.332 23.4365<304.052 353.528> 780.802 23.4365<37.4473 523.791>
VStem: 14 23.4473<23.418 780.802> 280.624 23.4277<173.669 630.332> 359.363 23.4561<176.824 627.128> 618.064 23.332<125.776 678.173>
LayerCount: 2
Fore
SplineSet
449.2109375 -0.2763671875 m 6
 14 0 l 5
 14 804.23828125 l 5
 449.2109375 804.23828125 l 6
 489.791015625 804.23828125 524.184570312 796.877929688 551.405273438 782.374023438 c 4
 579.008789062 767.653320312 599.700195312 747.725585938 612.88671875 723.134765625 c 4
 625.73046875 699.258789062 633.815429688 674.059570312 636.924804688 648.247070312 c 4
 639.508789062 626.841796875 641.014648438 587.176757812 641.396484375 530.235351562 c 5
 641.454101562 530.235351562 l 5
 641.491210938 500.5234375 l 5
 641.396484375 273.717773438 l 6
 641.014648438 216.774414062 639.517578125 177.100585938 636.924804688 155.704101562 c 4
 633.815429688 129.893554688 625.719726562 104.682617188 612.88671875 80.8076171875 c 4
 599.700195312 56.236328125 579 36.30859375 551.405273438 21.5859375 c 4
 524.203125 7.0751953125 489.829101562 -0.2763671875 449.2109375 -0.2763671875 c 6
37.447265625 23.41796875 m 5
 449.2109375 23.1689453125 l 6
 485.948242188 23.1689453125 516.603515625 29.595703125 540.3828125 42.267578125 c 4
 563.8203125 54.77734375 581.258789062 71.4638671875 592.233398438 91.896484375 c 4
 603.694335938 113.20703125 610.913085938 135.614257812 613.659179688 158.517578125 c 4
 616.319335938 180.45703125 617.788085938 223.1640625 618.025390625 285.483398438 c 6
 618.064453125 303.418945312 l 5
 618.025390625 518.467773438 l 6
 617.788085938 580.76953125 616.319335938 623.495117188 613.659179688 645.434570312 c 4
 610.913085938 668.337890625 603.694335938 690.744140625 592.233398438 712.045898438 c 4
 581.268554688 732.489257812 563.830078125 749.184570312 540.3828125 761.694335938 c 4
 516.59375 774.375 485.911132812 780.801757812 449.2109375 780.801757812 c 6
 37.447265625 780.801757812 l 5
 37.447265625 23.41796875 l 5
331.42578125 150.182617188 m 5
 330.272460938 150.240234375 l 5
 280.624023438 150.221679688 l 5
 280.624023438 653.768554688 l 5
 332.036132812 653.768554688 l 6
 361.280273438 653.768554688 372.168945312 639.275390625 376.165039062 627.127929688 c 4
 379.014648438 618.421875 382.819335938 596.368164062 382.819335938 505.653320312 c 6
 382.819335938 298.298828125 l 6
 382.819335938 207.565429688 379.014648438 185.51953125 376.165039062 176.82421875 c 4
 372.168945312 164.686523438 361.280273438 150.193359375 332.036132812 150.193359375 c 6
 331.8359375 150.203125 l 5
 331.42578125 150.182617188 l 5
304.061523438 173.668945312 m 5
 331.893554688 173.620117188 l 5
 331.711914062 173.6484375 l 5
 332.3515625 173.629882812 l 6
 350.428710938 173.639648438 352.841796875 180.990234375 353.872070312 184.146484375 c 4
 355.921875 190.3828125 359.36328125 213.504882812 359.36328125 298.307617188 c 6
 359.36328125 505.653320312 l 6
 359.36328125 590.456054688 355.921875 613.569335938 353.872070312 619.814453125 c 4
 352.8515625 622.9609375 350.428710938 630.322265625 332.017578125 630.322265625 c 6
 304.051757812 630.33203125 l 5
 304.051757812 173.668945312 l 5
 304.061523438 173.668945312 l 5
EndSplineSet
Validated: 524289
EndChar

StartChar: E
Encoding: 69 69 4
Width: 539
VWidth: 0
Flags: W
HStem: 0 23.5605<37.4814 501.439> 157.916 23.5703<302.971 501.439> 386.152 23.5605<302.971 501.439> 544.07 23.5693<302.971 501.439> 623.027 23.5713<302.971 501.439> 780.944 23.5703<37.4814 501.439>
VStem: 13.9209 23.5605<23.5605 780.944> 279.401 23.5693<181.486 386.152 567.64 623.027> 501.439 23.5605<23.5605 157.916 409.713 544.07 646.599 780.944>
LayerCount: 2
Fore
SplineSet
525 0 m 5
 13.9208984375 0 l 5
 13.9208984375 804.514648438 l 5
 525 804.514648438 l 5
 525 623.02734375 l 5
 302.970703125 623.02734375 l 5
 302.970703125 567.639648438 l 5
 525 567.639648438 l 5
 525 386.15234375 l 5
 302.970703125 386.15234375 l 5
 302.970703125 181.486328125 l 5
 525 181.486328125 l 5
 525 0 l 5
37.4814453125 23.560546875 m 5
 501.439453125 23.560546875 l 5
 501.439453125 157.916015625 l 5
 279.401367188 157.916015625 l 5
 279.401367188 409.712890625 l 5
 501.439453125 409.712890625 l 5
 501.439453125 544.0703125 l 5
 279.401367188 544.0703125 l 5
 279.401367188 646.598632812 l 5
 501.439453125 646.598632812 l 5
 501.439453125 780.944335938 l 5
 37.4814453125 780.944335938 l 5
 37.4814453125 23.560546875 l 5
EndSplineSet
Validated: 524289
EndChar

StartChar: F
Encoding: 70 70 5
Width: 533
VWidth: 0
Flags: W
HStem: 0 23.5605<34.2637 276.439> 386.152 23.5605<300 498.469> 544.07 23.5693<300 498.469> 623.027 23.5713<300 498.469> 780.944 23.5703<34.2637 498.469>
VStem: 10.6924 23.5713<23.5605 780.944> 276.439 23.5605<23.5605 386.152 567.64 623.027> 498.469 23.5703<409.713 544.07 646.599 780.944>
LayerCount: 2
Fore
SplineSet
300 0 m 5
 10.6923828125 0 l 5
 10.6923828125 804.514648438 l 5
 522.0390625 804.514648438 l 5
 522.0390625 623.02734375 l 5
 300 623.02734375 l 5
 300 567.639648438 l 5
 522.0390625 567.639648438 l 5
 522.0390625 386.15234375 l 5
 300 386.15234375 l 5
 300 0 l 5
34.263671875 23.560546875 m 5
 276.439453125 23.560546875 l 5
 276.439453125 409.712890625 l 5
 498.46875 409.712890625 l 5
 498.46875 544.0703125 l 5
 276.439453125 544.0703125 l 5
 276.439453125 646.598632812 l 5
 498.46875 646.598632812 l 5
 498.46875 780.944335938 l 5
 34.263671875 780.944335938 l 5
 34.263671875 23.560546875 l 5
EndSplineSet
Validated: 524289
EndChar

StartChar: G
Encoding: 71 71 6
Width: 648
VWidth: 0
Flags: W
HStem: 0 23.4453<131.406 515.587> 150.479 23.417<301.391 369.448> 311.981 23.4551<345.146 371.1> 469.088 23.4355<345.146 609.3> 547.062 23.4375<382.684 609.252> 630.599 22.5693<301.391 354.711> 781.068 23.4463<131.42 515.599>
VStem: 13.7129 23.4463<126.064 678.445> 272.413 23.4463<177.129 619.796> 321.728 23.418<335.437 469.088> 359.562 23.1221<570.5 620.7> 369.803 24.7148<176.675 311.981> 605.448 26.7549<114.284 469.088 570.5 690.206>
LayerCount: 2
Fore
SplineSet
441 0 m 6xffd8
 205.993164062 0 l 6
 165.384765625 0 130.982421875 7.3515625 103.7890625 21.8623046875 c 4
 76.205078125 36.5751953125 55.5234375 56.5029296875 42.3173828125 81.083984375 c 4
 29.4736328125 104.978515625 21.388671875 130.178710938 18.2705078125 155.990234375 c 4
 15.66796875 177.529296875 14.1611328125 217.205078125 13.80859375 273.994140625 c 5
 13.7509765625 273.994140625 l 5
 13.712890625 303.6953125 l 5
 13.80859375 530.51171875 l 6
 14.169921875 587.309570312 15.66796875 626.975585938 18.2705078125 648.533203125 c 4
 21.37890625 674.325195312 29.4736328125 699.526367188 42.3173828125 723.420898438 c 4
 55.5234375 748.01171875 76.205078125 767.9296875 103.7890625 782.641601562 c 4
 131.020507812 797.154296875 165.403320312 804.514648438 205.993164062 804.514648438 c 6
 441 804.514648438 l 6
 481.580078125 804.514648438 515.962890625 797.154296875 543.194335938 782.650390625 c 4
 570.797851562 767.9296875 591.479492188 748.001953125 604.67578125 723.411132812 c 4
 617.51953125 699.53515625 625.604492188 674.3359375 628.712890625 648.5234375 c 4
 630.848632812 630.921875 632.240234375 600.783203125 632.87890625 558.962890625 c 6
 633.060546875 547.0625 l 5
 359.810546875 547.0625 l 5
 359.561523438 558.5234375 l 6xffe8
 358.551757812 603.138671875 356.120117188 616.75390625 354.756835938 620.901367188 c 4
 353.793945312 623.819335938 351.572265625 630.58984375 334.6953125 630.760742188 c 6
 323.186523438 630.598632812 l 6
 304.78515625 630.598632812 302.372070312 623.248046875 301.341796875 620.1015625 c 4
 299.291992188 613.845703125 295.859375 590.723632812 295.859375 505.9296875 c 6
 295.859375 298.575195312 l 6
 295.859375 213.771484375 299.291992188 190.659179688 301.341796875 184.422851562 c 4
 302.372070312 181.266601562 304.78515625 173.90625 323.186523438 173.90625 c 6
 324.168945312 173.896484375 l 6
 324.197265625 173.90625 347.30078125 173.924804688 349.3984375 173.9453125 c 5
 365.521484375 173.954101562 368.659179688 179.865234375 369.802734375 183.078125 c 4
 370.985351562 193.557617188 371.099609375 272.66796875 371.099609375 311.981445312 c 5
 321.727539062 311.981445312 l 5
 321.727539062 492.5234375 l 5
 633.080078125 492.5234375 l 5
 632.899414062 480.625 l 6
 632.717773438 469.087890625 632.498046875 440.262695312 632.203125 404.278320312 c 4
 631.2109375 280.353515625 630.209960938 168.118164062 628.741210938 155.970703125 c 4
 625.633789062 130.16015625 617.538085938 104.94921875 604.694335938 81.0751953125 c 4
 591.5078125 56.5029296875 570.81640625 36.5751953125 543.22265625 21.853515625 c 4
 515.9921875 7.3515625 481.618164062 0 441 0 c 6xffd8
37.1591796875 291.270507812 m 5
 37.197265625 285.75 l 6
 37.4072265625 223.592773438 38.884765625 180.885742188 41.5546875 158.802734375 c 4
 44.310546875 135.890625 51.51953125 113.483398438 62.970703125 92.18359375 c 4
 73.955078125 71.740234375 91.3935546875 55.0439453125 114.831054688 42.5439453125 c 4
 138.591796875 29.8720703125 169.254882812 23.4453125 205.993164062 23.4453125 c 6
 441 23.4453125 l 6
 477.727539062 23.4453125 508.392578125 29.8720703125 532.171875 42.5439453125 c 4
 555.609375 55.0537109375 573.047851562 71.740234375 584.022460938 92.1728515625 c 4
 595.483398438 113.483398438 602.69140625 135.890625 605.448242188 158.793945312 c 4
 606.88671875 170.64453125 608.05078125 317.015625 608.747070312 404.478515625 c 4
 608.965820312 431.43359375 609.157226562 454.383789062 609.299804688 469.087890625 c 6
 345.145507812 469.087890625 l 5
 345.145507812 335.436523438 l 5
 394.498046875 335.436523438 l 5
 394.517578125 323.71875 l 6xffd8
 394.545898438 183.364257812 393.44921875 180.037109375 392.3046875 176.508789062 c 4
 388.4140625 164.676757812 377.849609375 150.57421875 349.50390625 150.516601562 c 5
 349.46484375 150.516601562 349.42578125 150.516601562 349.388671875 150.516601562 c 6
 349.388671875 150.83203125 l 6
 345.947265625 150.5078125 341.770507812 150.498046875 336.849609375 150.48828125 c 6
 323.825195312 150.479492188 l 6
 293.923828125 150.479492188 283.044921875 164.971679688 279.069335938 177.12890625 c 4
 276.208984375 185.805664062 272.413085938 207.860351562 272.413085938 298.583984375 c 6
 272.413085938 505.9296875 l 6
 272.413085938 596.64453125 276.208984375 618.698242188 279.069335938 627.404296875 c 4
 282.453125 637.768554688 290.8828125 649.849609375 311.467773438 653.16796875 c 6
 335.333984375 654.1875 l 6
 362.861328125 653.77734375 373.20703125 639.885742188 377.029296875 628.206054688 c 4
 378.889648438 622.53125 381.42578125 610.35546875 382.68359375 570.5 c 5
 609.251953125 570.5 l 6
 608.565429688 605.321289062 607.288085938 630.579101562 605.45703125 645.702148438 c 4
 602.702148438 668.60546875 595.493164062 691.01171875 584.04296875 712.3125 c 4
 573.068359375 732.755859375 555.627929688 749.450195312 532.19140625 761.959960938 c 4
 508.401367188 774.642578125 477.71875 781.068359375 441.018554688 781.068359375 c 6
 205.993164062 781.068359375 l 6
 169.293945312 781.068359375 138.62890625 774.642578125 114.8203125 761.951171875 c 4
 91.3935546875 749.4609375 73.9453125 732.755859375 62.970703125 712.3125 c 4
 51.509765625 691.01171875 44.310546875 668.60546875 41.5546875 645.7109375 c 4
 38.884765625 623.609375 37.4072265625 580.893554688 37.197265625 518.744140625 c 6
 37.1591796875 508.247070312 l 5
 37.1591796875 291.270507812 l 5
EndSplineSet
Validated: 524325
EndChar

StartChar: H
Encoding: 72 72 7
Width: 675
VWidth: 0
Flags: W
HStem: -0.219727 23.5605<37.5615 280.52 390.79 631.012> 392.521 23.5508<304.07 367.239> 553.853 23.5508<304.07 367.239> 780.448 23.5518<37.5615 280.528 390.8 631.012>
VStem: 14 23.5615<23.3408 780.448> 280.52 23.5508<23.3408 392.521 577.403 780.448> 367.239 23.5508<23.332 392.521 577.403 780.448> 631.012 23.5605<23.332 780.448>
LayerCount: 2
Fore
SplineSet
654.572265625 -0.2197265625 m 5
 367.239257812 -0.2197265625 l 5
 367.239257812 392.521484375 l 5
 304.0703125 392.521484375 l 5
 304.0703125 -0.2197265625 l 5
 14 -0.2197265625 l 5
 14 804 l 5
 304.0703125 804 l 5
 304.0703125 577.403320312 l 5
 367.239257812 577.403320312 l 5
 367.239257812 804 l 5
 654.572265625 804 l 5
 654.572265625 -0.2197265625 l 5
390.799804688 23.33203125 m 5
 631.01171875 23.33203125 l 5
 631.01171875 780.448242188 l 5
 390.799804688 780.448242188 l 5
 390.799804688 553.852539062 l 5
 280.528320312 553.852539062 l 5
 280.528320312 780.448242188 l 5
 37.5615234375 780.448242188 l 5
 37.5615234375 23.3408203125 l 5
 280.51953125 23.3408203125 l 5
 280.51953125 416.072265625 l 5
 390.790039062 416.072265625 l 5
 390.790039062 23.33203125 l 5
 390.799804688 23.33203125 l 5
EndSplineSet
Validated: 524289
EndChar

StartChar: I
Encoding: 73 73 8
Width: 449
VWidth: 0
Flags: W
HStem: 0 23.5605<37.5605 416.039> 156.83 23.5693<37.5605 91.7676 366.371 416.039> 624.105 23.5605<37.5605 91.7676 366.371 416.039> 780.944 23.5703<37.5605 416.039>
VStem: 14 23.5605<23.5605 156.83 647.666 780.944> 91.7676 23.5605<180.399 624.105> 342.802 23.5693<180.399 624.105> 416.039 23.5703<23.5605 156.839 647.666 780.944>
LayerCount: 2
Fore
SplineSet
439.599609375 0 m 1
 14 0 l 1
 14 180.399414062 l 1
 91.767578125 180.399414062 l 1
 91.767578125 624.10546875 l 1
 14 624.10546875 l 1
 14 804.514648438 l 1
 439.609375 804.514648438 l 1
 439.609375 624.10546875 l 1
 366.37109375 624.10546875 l 1
 366.37109375 180.399414062 l 1
 439.609375 180.399414062 l 1
 439.609375 0 l 1
 439.599609375 0 l 1
37.560546875 23.560546875 m 1
 416.0390625 23.560546875 l 1
 416.0390625 156.838867188 l 1
 342.801757812 156.838867188 l 1
 342.801757812 647.666015625 l 1
 416.0390625 647.666015625 l 1
 416.0390625 780.944335938 l 1
 37.560546875 780.944335938 l 1
 37.560546875 647.666015625 l 1
 115.328125 647.666015625 l 1
 115.328125 156.830078125 l 1
 37.560546875 156.830078125 l 1
 37.560546875 23.560546875 l 1
EndSplineSet
Validated: 524289
EndChar

StartChar: J
Encoding: 74 74 9
Width: 651
VWidth: 0
Flags: W
HStem: 0 23.4932<133.169 518.49> 150.945 23.5137<294.613 313.827 313.97 347.721> 395.363 23.5127<39.2041 266.257> 783.404 23.5039<376.595 613.031>
VStem: 15.5381 23.666<124.185 395.363> 266.257 23.2852<177.31 395.363> 353.569 23.5117<185.262 783.404> 613.031 23.5234<126.448 783.404>
LayerCount: 2
Fore
SplineSet
443.682617188 0 m 6
 208 0 l 6
 167.248046875 0 132.768554688 7.3701171875 105.490234375 21.9384765625 c 4
 77.810546875 36.69921875 57.052734375 56.6943359375 43.828125 81.3310546875 c 4
 30.95703125 105.24609375 22.83203125 130.522460938 19.705078125 156.447265625 c 4
 18.169921875 169.206054688 17.130859375 257.813476562 16.119140625 355.326171875 c 4
 15.890625 378.181640625 15.7001953125 396.908203125 15.5380859375 406.948242188 c 6
 15.3564453125 418.875976562 l 5
 289.275390625 418.875976562 l 5
 289.541992188 407.38671875 l 6
 289.732421875 398.709960938 289.990234375 381.051757812 290.314453125 359.254882812 c 4
 291.153320312 301.416992188 292.716796875 193.766601562 294.577148438 183.479492188 c 4
 295.319335938 181.381835938 297.58984375 174.46875 315.057617188 174.458984375 c 6
 325.774414062 174.420898438 l 6
 344.625 174.420898438 347.045898438 181.810546875 348.076171875 184.95703125 c 4
 350.126953125 191.202148438 353.569335938 214.372070312 353.569335938 299.451171875 c 6
 353.063476562 806.908203125 l 5
 636.5546875 806.908203125 l 5
 636.5546875 286.560546875 l 6
 636.478515625 282.002929688 634.743164062 179.311523438 631.967773438 156.447265625 c 4
 628.869140625 130.579101562 620.74609375 105.311523438 607.854492188 81.322265625 c 4
 594.610351562 56.6650390625 573.872070312 36.6796875 546.202148438 21.9287109375 c 4
 518.922851562 7.3701171875 484.4453125 0 443.682617188 0 c 6
39.2041015625 395.36328125 m 6
 39.3271484375 385.02734375 39.4609375 371.287109375 39.6240234375 355.573242188 c 4
 40.291015625 291.346679688 41.521484375 171.790039062 43.0361328125 159.259765625 c 4
 45.8115234375 136.26171875 53.048828125 113.779296875 64.5283203125 92.4599609375 c 4
 75.521484375 71.94921875 93.0283203125 55.20703125 116.541015625 42.658203125 c 4
 140.377929688 29.9482421875 171.137695312 23.4931640625 207.981445312 23.4931640625 c 6
 443.672851562 23.4931640625 l 6
 480.525390625 23.4931640625 511.286132812 29.9482421875 535.11328125 42.658203125 c 4
 558.616210938 55.1865234375 576.112304688 71.9306640625 587.135742188 92.44921875 c 4
 598.633789062 113.826171875 605.852539062 136.319335938 608.607421875 159.259765625 c 4
 611.239257812 180.943359375 613.012695312 285.703125 613.03125 286.751953125 c 6
 613.03125 783.404296875 l 5
 376.594726562 783.404296875 l 5
 377.081054688 299.471679688 l 6
 377.081054688 208.44140625 373.287109375 186.348632812 370.416992188 177.633789062 c 4
 366.421875 165.458007812 355.494140625 150.916992188 326.166015625 150.916992188 c 6
 324.305664062 150.965820312 l 5
 313.969726562 150.9453125 l 5
 313.951171875 150.956054688 l 5
 313.827148438 150.9453125 l 5
 313.827148438 150.965820312 l 6
 286.2421875 151.384765625 275.859375 165.315429688 272.016601562 177.024414062 c 4
 270.12890625 182.783203125 268.985351562 209.328125 266.810546875 358.901367188 c 4
 266.600585938 373.375976562 266.411132812 385.991210938 266.256835938 395.36328125 c 6
 39.2041015625 395.36328125 l 6
EndSplineSet
Validated: 524289
EndChar

StartChar: K
Encoding: 75 75 10
Width: 640
VWidth: 0
Flags: W
HStem: 0 23.4658<46.4648 286.563 382.77 592.614> 351.59 23.541<310.039 354.504> 777.246 23.4658<46.4648 286.582 440.694 585.243>
VStem: 23 23.4648<23.4658 777.246> 286.563 23.4756<23.4658 351.59 545.491 777.246> 359.495 23.2744<23.1221 283.477> 592.614 23.5889<23.1221 362.938>
LayerCount: 2
Fore
SplineSet
616.384765625 -0.3330078125 m 5
 359.744140625 -0.3330078125 l 5
 359.495117188 11.1279296875 l 6
 359.276367188 20.73828125 358.971679688 52.43359375 358.609375 92.7080078125 c 4
 357.8359375 174.57421875 356.424804688 325.969726562 354.8046875 341.130859375 c 4
 352.229492188 347.928710938 346.088867188 351.379882812 336.526367188 351.388671875 c 4
 335.181640625 351.388671875 320.803710938 351.50390625 310.0390625 351.58984375 c 6
 310.0390625 0 l 5
 23 0 l 5
 23 800.711914062 l 5
 310.028320312 800.711914062 l 5
 310.352539062 545.491210938 l 5
 425.534179688 800.711914062 l 5
 621.552734375 800.711914062 l 5
 472.388671875 469.698242188 l 5
 538.932617188 461.936523438 577.86328125 422.55859375 589.71484375 401.23828125 c 4
 601.701171875 379.630859375 609.290039062 355.966796875 612.313476562 330.889648438 c 4
 613.696289062 319.58984375 614.62109375 209.51953125 615.544921875 87.9208984375 c 4
 615.8125 51.57421875 616.041015625 22.541015625 616.203125 11.56640625 c 6
 616.384765625 -0.3330078125 l 5
382.76953125 23.1220703125 m 6
 592.614257812 23.1220703125 l 6
 592.461914062 37.671875 592.298828125 60.6904296875 592.080078125 87.740234375 c 4
 591.44140625 173.544921875 590.354492188 317.16015625 589.018554688 328.077148438 c 4
 586.37890625 350.130859375 579.703125 370.908203125 569.206054688 389.84375 c 4
 558.612304688 408.913085938 520.98828125 445.499023438 454.453125 447.491210938 c 6
 436.879882812 448.015625 l 5
 585.243164062 777.236328125 l 5
 440.694335938 777.236328125 l 5
 287.030273438 436.764648438 l 5
 286.58203125 777.24609375 l 5
 46.46484375 777.24609375 l 5
 46.46484375 23.4658203125 l 5
 286.563476562 23.4658203125 l 5
 286.563476562 375.2265625 l 5
 298.405273438 375.130859375 l 5
 298.405273438 375.130859375 334.362304688 374.845703125 336.536132812 374.845703125 c 4
 356.521484375 374.826171875 371.767578125 364.670898438 377.334960938 347.700195312 c 4
 378.984375 342.693359375 379.9765625 315.91015625 382.045898438 92.91796875 c 4
 382.350585938 63.0927734375 382.560546875 37.978515625 382.76953125 23.1220703125 c 6
EndSplineSet
Validated: 524289
EndChar

StartChar: L
Encoding: 76 76 11
Width: 523
VWidth: 0
Flags: W
HStem: 0 23.5605<40.3418 485.439> 156.839 23.5605<307.977 485.439> 780.944 23.5703<40.3418 284.407>
VStem: 16.7715 23.5703<23.5605 780.944> 284.407 23.5693<180.399 780.944> 485.439 23.5605<23.5605 156.839>
LayerCount: 2
Fore
SplineSet
509 0 m 5
 16.771484375 0 l 5
 16.771484375 804.514648438 l 5
 307.9765625 804.514648438 l 5
 307.9765625 180.399414062 l 5
 509 180.399414062 l 5
 509 0 l 5
40.341796875 23.560546875 m 5
 485.439453125 23.560546875 l 5
 485.439453125 156.838867188 l 5
 284.407226562 156.838867188 l 5
 284.407226562 780.944335938 l 5
 40.341796875 780.944335938 l 5
 40.341796875 23.560546875 l 5
EndSplineSet
Validated: 524289
EndChar

StartChar: M
Encoding: 77 77 12
Width: 818
VWidth: 0
Flags: W
HStem: -0.0107422 23.1514<43.0449 282.81 537.085 776.85> 779.524 23.1504<43.0449 286.966 532.68 776.85>
VStem: 19.8945 23.1504<23.1406 779.524> 282.81 23.1406<23.1406 339.012> 513.935 23.1504<23.1406 339.604> 776.85 23.1504<23.1406 779.524>
LayerCount: 2
Fore
SplineSet
800 0 m 5
 513.934570312 0 l 5
 513.934570312 339.603515625 l 5
 409.813476562 93.001953125 l 5
 305.950195312 339.01171875 l 5
 305.950195312 -0.0107421875 l 5
 19.89453125 -0.0107421875 l 5
 19.89453125 802.674804688 l 5
 302.241210938 802.674804688 l 5
 409.813476562 551.181640625 l 5
 517.38671875 802.674804688 l 5
 800 802.674804688 l 5
 800 0 l 5
537.084960938 23.140625 m 5
 776.849609375 23.140625 l 5
 776.849609375 779.524414062 l 5
 532.6796875 779.524414062 l 5
 409.813476562 492.314453125 l 5
 286.965820312 779.524414062 l 5
 43.044921875 779.524414062 l 5
 43.044921875 23.140625 l 5
 282.809570312 23.140625 l 5
 282.809570312 453.344726562 l 5
 409.823242188 152.51953125 l 5
 537.084960938 453.955078125 l 5
 537.084960938 23.140625 l 5
EndSplineSet
Validated: 524289
EndChar

StartChar: N
Encoding: 78 78 13
Width: 747
VWidth: 0
Flags: W
HStem: -0.0107422 23.2471<40.6074 281.324 460.656 704.845> 782.604 23.2363<40.6074 285.205 464.137 704.845>
VStem: 17.3701 23.2373<23.2363 782.604> 281.324 23.2373<23.2363 335.876> 440.9 23.2363<470.928 782.604> 704.845 23.2461<23.2363 782.604>
LayerCount: 2
Fore
SplineSet
728.090820312 0 m 5
 445 0 l 5
 304.561523438 335.875976562 l 5
 304.561523438 -0.0107421875 l 5
 17.3701171875 -0.0107421875 l 5
 17.3701171875 805.83984375 l 5
 300.670898438 805.83984375 l 5
 440.900390625 470.927734375 l 5
 440.900390625 805.83984375 l 5
 728.090820312 805.83984375 l 5
 728.090820312 0 l 5
460.65625 23.236328125 m 5
 704.844726562 23.236328125 l 5
 704.844726562 782.603515625 l 5
 464.13671875 782.603515625 l 5
 464.13671875 355.25 l 5
 285.205078125 782.603515625 l 5
 40.607421875 782.603515625 l 5
 40.607421875 23.236328125 l 5
 281.32421875 23.236328125 l 5
 281.32421875 451.552734375 l 5
 460.65625 23.236328125 l 5
EndSplineSet
Validated: 524289
EndChar

StartChar: O
Encoding: 79 79 14
Width: 654
VWidth: 0
Flags: W
HStem: 0 23.1416<137.054 517.494> 150.174 23.1611<305.557 348.985> 629.388 23.1123<305.562 348.983> 779.534 23.1504<137.054 517.494>
VStem: 18.2256 23.1592<125.729 676.948> 276.401 23.1514<176.672 626.003> 355.007 23.1416<176.672 626.003> 613.174 23.0547<125.737 676.946>
LayerCount: 2
Fore
SplineSet
444.548828125 0 m 6
 210 0 l 6
 169.497070312 0 135.19921875 7.3515625 108.0625 21.81640625 c 4
 80.5546875 36.48046875 59.931640625 56.341796875 46.75390625 80.8564453125 c 4
 33.9482421875 104.693359375 25.8720703125 129.8359375 22.7734375 155.581054688 c 4
 20.1796875 176.986328125 18.6728515625 216.61328125 18.3203125 273.450195312 c 5
 18.263671875 273.450195312 l 5
 18.2255859375 302.98046875 l 5
 18.3203125 529.223632812 l 6
 18.68359375 586.060546875 20.1796875 625.698242188 22.7734375 647.103515625 c 4
 25.8720703125 672.837890625 33.939453125 697.982421875 46.75390625 721.819335938 c 4
 59.921875 746.333984375 80.5546875 766.204101562 108.0625 780.869140625 c 4
 135.19921875 795.342773438 169.497070312 802.684570312 210 802.684570312 c 6
 444.548828125 802.684570312 l 6
 485.0625 802.684570312 519.350585938 795.342773438 546.477539062 780.859375 c 4
 573.984375 766.194335938 594.619140625 746.32421875 607.786132812 721.819335938 c 4
 620.591796875 697.982421875 628.677734375 672.837890625 631.775390625 647.094726562 c 4
 634.379882812 625.6875 635.8671875 586.060546875 636.228515625 529.223632812 c 5
 636.295898438 529.223632812 l 5
 636.333007812 499.704101562 l 5
 636.228515625 273.459960938 l 6
 635.8671875 216.623046875 634.388671875 176.99609375 631.775390625 155.581054688 c 4
 628.686523438 129.846679688 620.591796875 104.703125 607.786132812 80.865234375 c 4
 594.619140625 56.3603515625 573.984375 36.5 546.477539062 21.8251953125 c 4
 519.350585938 7.341796875 485.0625 0 444.548828125 0 c 6
41.3759765625 290.431640625 m 5
 41.4052734375 285.07421875 l 6
 41.6240234375 222.924804688 43.0927734375 180.3046875 45.7529296875 158.354492188 c 4
 48.5078125 135.490234375 55.697265625 113.102539062 67.1396484375 91.810546875 c 4
 78.1044921875 71.3876953125 95.54296875 54.701171875 118.951171875 42.2392578125 c 4
 142.693359375 29.568359375 173.329101562 23.1416015625 209.991210938 23.1416015625 c 6
 444.5390625 23.1416015625 l 6
 481.201171875 23.1416015625 511.836914062 29.568359375 535.587890625 42.23046875 c 4
 558.987304688 54.720703125 576.416015625 71.396484375 587.400390625 91.810546875 c 4
 598.833007812 113.09375 606.032226562 135.48046875 608.77734375 158.345703125 c 4
 611.4375 180.3046875 612.90625 222.924804688 613.135742188 285.07421875 c 6
 613.173828125 302.98046875 l 5
 613.135742188 517.6015625 l 6
 612.90625 579.749023438 611.4375 622.370117188 608.77734375 644.319335938 c 4
 606.032226562 667.18359375 598.833007812 689.572265625 587.400390625 710.86328125 c 4
 576.42578125 731.288085938 558.99609375 747.954101562 535.587890625 760.4453125 c 4
 511.836914062 773.1171875 481.201171875 779.534179688 444.5390625 779.534179688 c 6
 210 779.534179688 l 6
 173.329101562 779.534179688 142.703125 773.1171875 118.9609375 760.4453125 c 4
 95.54296875 747.963867188 78.1142578125 731.288085938 67.1484375 710.86328125 c 4
 55.70703125 689.58203125 48.517578125 667.193359375 45.76171875 644.329101562 c 4
 43.1015625 622.370117188 41.6337890625 579.749023438 41.4140625 517.6015625 c 6
 41.384765625 499.704101562 l 5
 41.384765625 290.431640625 l 5
 41.3759765625 290.431640625 l 5
327.584960938 150.173828125 m 6
 326.956054688 150.173828125 l 6
 297.8359375 150.173828125 287.00390625 164.58203125 283.028320312 176.671875 c 4
 280.176757812 185.358398438 276.401367188 207.383789062 276.401367188 297.870117188 c 6
 276.401367188 504.805664062 l 6
 276.401367188 595.30078125 280.176757812 617.317382812 283.028320312 626.002929688 c 4
 287.00390625 638.09375 297.845703125 652.5 326.956054688 652.5 c 6
 327.584960938 652.5 l 6
 356.704101562 652.5 367.53515625 638.09375 371.51171875 626.002929688 c 4
 374.353515625 617.307617188 378.1484375 595.291992188 378.1484375 504.805664062 c 6
 378.1484375 297.870117188 l 6
 378.1484375 207.383789062 374.353515625 185.358398438 371.51171875 176.671875 c 4
 367.544921875 164.571289062 356.704101562 150.173828125 327.584960938 150.173828125 c 6
327.279296875 173.334960938 m 5
 328.452148438 173.27734375 l 6
 346.053710938 173.31640625 348.4765625 180.724609375 349.504882812 183.880859375 c 4
 351.565429688 190.125 355.006835938 213.23828125 355.006835938 297.860351562 c 6
 355.006835938 504.805664062 l 6
 355.006835938 589.427734375 351.565429688 612.5390625 349.504882812 618.794921875 c 4
 348.4765625 621.951171875 346.053710938 629.359375 327.584960938 629.359375 c 6
 326.087890625 629.387695312 l 6
 308.495117188 629.359375 306.055664062 621.951171875 305.03515625 618.794921875 c 4
 302.985351562 612.548828125 299.552734375 589.427734375 299.552734375 504.805664062 c 6
 299.552734375 297.870117188 l 6
 299.552734375 213.248046875 302.974609375 190.134765625 305.03515625 183.889648438 c 4
 306.064453125 180.734375 308.495117188 173.325195312 326.956054688 173.325195312 c 6
 327.279296875 173.334960938 l 5
EndSplineSet
Validated: 524289
EndChar

StartChar: P
Encoding: 80 80 15
Width: 633
VWidth: 0
Flags: W
HStem: 0 23.5977<43.5605 284.698> 334.378 23.5811<308.269 504.184> 455.738 23.5703<308.85 345.606> 659.547 23.5693<308.85 355.695> 780.954 23.5605<43.5605 504.275>
VStem: 20 23.5605<23.5977 780.954> 284.698 23.5703<23.8936 334.378 479.309 659.547> 359.861 23.5508<482.032 657.075> 592.351 23.5518<448.079 690.836>
LayerCount: 2
Fore
SplineSet
20 0 m 5
 20 804.514648438 l 5
 431.7265625 804.514648438 l 6
 471.2109375 804.514648438 504.629882812 797.36328125 531.09765625 783.2421875 c 4
 557.9296875 768.930664062 578.068359375 749.537109375 590.919921875 725.603515625 c 4
 603.411132812 702.38671875 611.268554688 677.881835938 614.291015625 652.776367188 c 4
 616.016601562 638.6171875 616.20703125 619.205078125 616.073242188 605.407226562 c 4
 616.178710938 595.671875 616.2265625 580.864257812 615.90234375 566.895507812 c 4
 616.102539062 555.568359375 616.073242188 543.220703125 615.978515625 533.248046875 c 4
 616.111328125 519.689453125 615.911132812 500.275390625 614.205078125 486.106445312 c 4
 611.171875 461.020507812 603.306640625 436.516601562 590.833984375 413.26953125 c 4
 577.962890625 389.34765625 557.833984375 369.961914062 531.002929688 355.651367188 c 4
 504.544921875 341.529296875 471.114257812 334.377929688 431.630859375 334.377929688 c 6
 308.268554688 334.377929688 l 5
 308.268554688 0.37109375 l 5
 20 0 l 5
43.560546875 780.944335938 m 5
 43.560546875 23.59765625 l 5
 284.698242188 23.8935546875 l 5
 284.698242188 357.958984375 l 5
 431.630859375 357.958984375 l 6
 467.1953125 357.958984375 496.90625 364.17578125 519.9140625 376.446289062 c 4
 542.579101562 388.545898438 559.455078125 404.688476562 570.067382812 424.4453125 c 4
 581.157226562 445.078125 588.146484375 466.7890625 590.815429688 488.948242188 c 4
 592.37890625 501.859375 592.55078125 520.17578125 592.426757812 533.256835938 c 4
 592.512695312 543.287109375 592.541992188 555.397460938 592.350585938 566.971679688 c 4
 592.655273438 581.092773438 592.59765625 595.624023438 592.512695312 605.416015625 c 4
 592.646484375 618.74609375 592.474609375 637.053710938 590.91015625 649.963867188 c 4
 588.241210938 672.141601562 581.26171875 693.833984375 570.172851562 714.458007812 c 4
 559.560546875 734.224609375 542.673828125 750.375976562 520.009765625 762.466796875 c 4
 497.001953125 774.737304688 467.30078125 780.954101562 431.7265625 780.954101562 c 6
 43.560546875 780.954101562 l 5
 43.560546875 780.944335938 l 5
333.83203125 455.73828125 m 5
 285.2890625 455.73828125 l 5
 285.2890625 683.116210938 l 5
 333.83203125 683.116210938 l 6
 364.295898438 683.116210938 374.897460938 668.328125 378.407226562 655.904296875 c 4
 380.0859375 649.955078125 382.430664062 636.806640625 383.52734375 591.21875 c 4
 383.879882812 584.583007812 383.564453125 550.10546875 383.412109375 547.369140625 c 4
 382.3359375 502.115234375 379.989257812 488.958007812 378.3203125 483.02734375 c 4
 375.328125 472.462890625 367.13671875 460.038085938 345.606445312 456.701171875 c 6
 345.606445312 455.776367188 l 5
 333.83203125 455.73828125 l 5
308.849609375 479.30859375 m 5
 334.947265625 479.413085938 l 6
 352.911132812 479.8046875 354.893554688 486.79296875 355.647460938 489.42578125 c 4
 356.791015625 493.505859375 358.87890625 506.587890625 359.861328125 548.265625 c 4
 360.176757812 554.43359375 360.28125 584.544921875 359.9765625 590.322265625 c 4
 358.96484375 632.314453125 356.88671875 645.40625 355.732421875 649.49609375 c 4
 354.9609375 652.232421875 352.881835938 659.546875 333.83203125 659.546875 c 6
 308.849609375 659.546875 l 5
 308.849609375 479.30859375 l 5
EndSplineSet
Validated: 524321
EndChar

StartChar: Q
Encoding: 81 81 16
Width: 670
VWidth: 0
Flags: W
HStem: -226.523 23.4648<300.613 527.141> -81.0693 23.4932<465.496 527.141> -6.9834 23.3613<461.302 525.934> 143.707 23.4551<312.927 356.596> 624.788 23.4473<312.872 356.6> 775.535 23.4648<142.271 527.191>
VStem: 24.3379 23.4648<119.21 672.69> 187.299 23.2842<-106.699 -3.55211> 283.544 23.4639<170.375 621.547> 362.436 23.4844<170.356 621.547> 437.389 23.9131<-55.5695 -6.9834> 527.141 23.4844<-203.059 -81.0693> 621.642 23.3975<119.214 672.674>
LayerCount: 2
Fore
SplineSet
550.615234375 -226.5234375 m 5
 372.875976562 -226.5234375 l 6
 333.553710938 -226.5234375 300.2578125 -219.401367188 273.89453125 -205.337890625 c 4
 247.158203125 -191.073242188 227.106445312 -171.754882812 214.301757812 -147.91796875 c 4
 201.895507812 -124.84375 194.048828125 -100.444335938 191.017578125 -75.3857421875 c 4
 189.224609375 -60.72265625 188.013671875 -37.8193359375 187.298828125 -5.5244140625 c 4
 170.107421875 -2.75 135.038085938 3.9052734375 114.604492188 14.8037109375 c 4
 86.97265625 29.544921875 66.2431640625 49.501953125 53 74.1484375 c 4
 40.146484375 98.091796875 32.0419921875 123.3203125 28.923828125 149.20703125 c 4
 26.3017578125 170.766601562 24.794921875 210.536132812 24.4423828125 267.440429688 c 5
 24.384765625 267.440429688 l 5
 24.337890625 297.208007812 l 5
 24.4423828125 524.462890625 l 6
 24.794921875 581.375976562 26.3017578125 621.126953125 28.923828125 642.705078125 c 4
 32.0419921875 668.563476562 40.146484375 693.821289062 53 717.75390625 c 4
 66.2529296875 742.391601562 86.9814453125 762.358398438 114.604492188 777.08984375 c 4
 141.864257812 791.630859375 176.323242188 799 217 799 c 6
 452.482421875 799 l 6
 493.1484375 799 527.598632812 791.630859375 554.876953125 777.080078125 c 4
 582.509765625 762.348632812 603.228515625 742.3828125 616.462890625 717.75390625 c 4
 629.345703125 693.811523438 637.450195312 668.543945312 640.557617188 642.685546875 c 4
 643.180664062 620.974609375 644.658203125 582.224609375 645.0390625 524.462890625 c 5
 645.086914062 524.462890625 l 5
 645.125976562 494.6953125 l 5
 645.0390625 267.440429688 l 6
 644.658203125 209.6875 643.189453125 170.9375 640.548828125 149.188476562 c 4
 637.450195312 123.33984375 629.3359375 98.091796875 616.462890625 74.1484375 c 4
 603.23828125 49.5205078125 582.509765625 29.544921875 554.876953125 14.8037109375 c 4
 529.6015625 1.3125 498.155273438 -5.9814453125 461.301757812 -6.9833984375 c 5
 462.502929688 -34.833984375 464.353515625 -44.4365234375 465.450195312 -47.7158203125 c 4
 466.403320312 -50.671875 468.672851562 -57.576171875 486.16015625 -57.576171875 c 6
 550.625 -57.576171875 l 5
 550.625 -226.5234375 l 5
 550.615234375 -226.5234375 l 5
47.8134765625 285.528320312 m 5
 47.8603515625 279.225585938 l 6
 48.0693359375 216.962890625 49.5283203125 174.141601562 52.2177734375 152.010742188 c 4
 55.0029296875 129.0703125 62.2197265625 106.596679688 73.6806640625 85.2666015625 c 4
 84.693359375 64.7763671875 102.190429688 48.033203125 125.665039062 35.513671875 c 4
 145.153320312 25.12109375 186.192382812 18.1025390625 200.3515625 16.2626953125 c 6
 210.411132812 14.9765625 l 5
 210.583007812 4.8408203125 l 6
 211.221679688 -31.4296875 212.48046875 -57.4423828125 214.329101562 -72.5361328125 c 4
 217.018554688 -94.685546875 223.969726562 -116.319335938 234.9921875 -136.80078125 c 4
 245.575195312 -156.5 262.385742188 -172.584960938 284.963867188 -184.637695312 c 4
 307.885742188 -196.850585938 337.462890625 -203.05859375 372.89453125 -203.05859375 c 6
 527.140625 -203.05859375 l 5
 527.140625 -81.0693359375 l 5
 486.150390625 -81.0693359375 l 6
 457.640625 -81.0693359375 447.01953125 -66.9189453125 443.119140625 -55.0478515625 c 4
 441.26953125 -49.375 438.647460938 -37.056640625 437.388671875 4.267578125 c 6
 437.026367188 16.3779296875 l 5
 452.47265625 16.3779296875 l 6
 489.239257812 16.3779296875 519.989257812 22.8134765625 543.817382812 35.533203125 c 4
 567.301757812 48.033203125 584.779296875 64.7666015625 595.772460938 85.2666015625 c 4
 607.252929688 106.615234375 614.489257812 129.0703125 617.235351562 152.010742188 c 4
 619.896484375 173.9609375 621.374023438 216.762695312 621.602539062 279.225585938 c 6
 621.641601562 297.217773438 l 5
 621.602539062 512.686523438 l 6
 621.374023438 575.140625 619.896484375 617.942382812 617.235351562 639.892578125 c 4
 614.489257812 662.833007812 607.252929688 685.296875 595.772460938 706.646484375 c 4
 584.76953125 727.126953125 567.291992188 743.860351562 543.817382812 756.37890625 c 4
 519.98046875 769.08984375 489.23046875 775.53515625 452.47265625 775.53515625 c 6
 217 775.53515625 l 6
 180.213867188 775.53515625 149.473632812 769.08984375 125.655273438 756.37890625 c 4
 102.180664062 743.860351562 84.693359375 727.13671875 73.671875 706.646484375 c 4
 62.2109375 685.306640625 54.9921875 662.842773438 52.208984375 639.90234375 c 4
 49.5283203125 617.76171875 48.060546875 574.969726562 47.8505859375 512.696289062 c 6
 47.802734375 494.704101562 l 5
 47.802734375 285.528320312 l 5
 47.8134765625 285.528320312 l 5
335.060546875 143.686523438 m 6
 334.7265625 143.70703125 l 6
 304.98828125 143.801757812 294.166015625 158.247070312 290.217773438 170.375 c 4
 287.357421875 179.081054688 283.543945312 201.19140625 283.543945312 292.079101562 c 6
 283.543945312 499.84375 l 6
 283.543945312 590.702148438 287.357421875 612.822265625 290.217773438 621.546875 c 4
 294.193359375 633.72265625 305.091796875 648.235351562 334.421875 648.235351562 c 6
 335.060546875 648.235351562 l 6
 364.370117188 648.235351562 375.278320312 633.72265625 379.2734375 621.546875 c 4
 382.115234375 612.840820312 385.919921875 590.7578125 385.919921875 499.84375 c 6
 385.919921875 292.079101562 l 6
 385.919921875 201.143554688 382.115234375 179.0625 379.2734375 170.356445312 c 4
 375.278320312 158.189453125 364.361328125 143.686523438 335.060546875 143.686523438 c 6
334.7265625 167.162109375 m 5
 335.404296875 167.142578125 l 6
 353.500976562 167.162109375 355.921875 174.533203125 356.952148438 177.669921875 c 4
 359.469726562 185.297851562 362.435546875 211.327148438 362.435546875 292.069335938 c 6
 362.435546875 499.84375 l 6
 362.435546875 584.818359375 359.012695312 607.98828125 356.952148438 614.233398438 c 4
 355.931640625 617.390625 353.510742188 624.759765625 335.060546875 624.759765625 c 6
 333.506835938 624.788085938 l 6
 315.962890625 624.759765625 313.549804688 617.390625 312.51953125 614.2421875 c 4
 310.4609375 607.959960938 307.0078125 584.771484375 307.0078125 499.833984375 c 6
 307.0078125 292.079101562 l 6
 307.0078125 207.131835938 310.4609375 183.943359375 312.51953125 177.6796875 c 4
 313.549804688 174.5234375 315.952148438 167.162109375 334.412109375 167.162109375 c 6
 334.7265625 167.162109375 l 5
EndSplineSet
Validated: 524289
EndChar

StartChar: R
Encoding: 82 82 17
Width: 628
VWidth: 0
Flags: W
HStem: 0 23.5508<37.5703 278.708 377.385 586.589> 353.189 23.5518<302.277 349.124> 455.72 23.5693<302.85 339.636> 659.537 23.5693<302.85 349.686> 780.935 23.5703<37.5703 498.292>
VStem: 14 23.5703<23.5508 780.935> 278.708 23.5693<23.5508 353.189 479.289 659.537> 353.843 23.542<23.5508 350.7 481.486 657.056> 586.589 23.5801<23.5508 378.444 500.334 690.814>
LayerCount: 2
Fore
SplineSet
610.158203125 -0.009765625 m 1
 353.842773438 -0.009765625 l 1
 353.766601562 264.31640625 l 2
 353.041015625 321.258789062 350.5625 338.134765625 349.161132812 343.131835938 c 0
 348.388671875 345.858398438 346.30078125 353.189453125 327.258789062 353.189453125 c 2
 302.27734375 353.189453125 l 1
 302.27734375 0 l 1
 14 0 l 1
 14 804.504882812 l 1
 425.745117188 804.504882812 l 2
 465.21875 804.504882812 498.6484375 797.353515625 525.118164062 783.232421875 c 0
 551.948242188 768.920898438 572.086914062 749.52734375 584.939453125 725.59375 c 0
 597.419921875 702.3671875 605.296875 677.862304688 608.309570312 652.7578125 c 0
 610.03515625 638.587890625 610.215820312 619.174804688 610.091796875 605.387695312 c 0
 610.301757812 583.401367188 610.168945312 553.6796875 608.309570312 538.376953125 c 0
 605.296875 513.290039062 597.411132812 488.786132812 584.939453125 465.540039062 c 0
 579.915039062 456.1953125 573.668945312 447.43359375 566.298828125 439.385742188 c 0
 573.668945312 431.338867188 579.915039062 422.575195312 584.939453125 413.232421875 c 0
 597.419921875 389.985351562 605.296875 365.48046875 608.309570312 340.384765625 c 0
 609.358398438 331.717773438 609.911132812 311.141601562 609.96875 277.655273438 c 2
 610.168945312 265.870117188 l 1
 610.168945312 -0.009765625 l 1
 610.158203125 -0.009765625 l 1
377.384765625 23.55078125 m 1
 586.588867188 23.55078125 l 1
 586.397460938 265.888671875 l 2
 586.474609375 314.450195312 585.635742188 331.66015625 584.919921875 337.572265625 c 0
 582.25 359.731445312 575.270507812 381.442382812 564.171875 402.084960938 c 0
 558.528320312 412.573242188 550.965820312 422.194335938 541.689453125 430.700195312 c 2
 532.192382812 439.395507812 l 1
 541.689453125 448.081054688 l 2
 550.9765625 456.586914062 558.537109375 466.216796875 564.171875 476.696289062 c 0
 575.270507812 497.338867188 582.25 519.041015625 584.919921875 541.19921875 c 0
 586.245117188 552.173828125 586.807617188 574.962890625 586.521484375 605.397460938 c 0
 586.655273438 618.717773438 586.484375 637.025390625 584.919921875 649.935546875 c 0
 582.25 672.11328125 575.270507812 693.814453125 564.171875 714.439453125 c 0
 553.560546875 734.204101562 536.673828125 750.357421875 514.009765625 762.447265625 c 0
 491.000976562 774.717773438 461.310546875 780.934570312 425.736328125 780.934570312 c 2
 37.5703125 780.934570312 l 1
 37.5703125 23.55078125 l 1
 278.708007812 23.55078125 l 1
 278.708007812 376.741210938 l 1
 327.258789062 376.741210938 l 2
 357.712890625 376.741210938 368.31640625 361.943359375 371.84375 349.529296875 c 0
 373.828125 342.501953125 376.544921875 326.044921875 377.345703125 264.46875 c 2
 377.384765625 23.55078125 l 1
327.840820312 455.719726562 m 1
 279.298828125 455.719726562 l 1
 279.298828125 683.106445312 l 1
 327.840820312 683.106445312 l 2
 358.314453125 683.106445312 368.907226562 668.30859375 372.42578125 655.884765625 c 0
 374.104492188 649.935546875 376.44921875 636.786132812 377.537109375 591.200195312 c 0
 377.9375 583.45703125 378.270507812 574.379882812 378.528320312 564.025390625 c 0
 378.147460938 547.015625 377.517578125 533.162109375 376.66796875 522.30078125 c 0
 375.4296875 496.232421875 373.665039062 487.365234375 372.435546875 482.998046875 c 0
 369.413085938 472.319335938 361.184570312 459.915039062 339.635742188 456.60546875 c 2
 339.635742188 455.766601562 l 1
 327.840820312 455.719726562 l 1
302.859375 479.2890625 m 1
 327.83203125 479.337890625 l 2
 346.900390625 479.337890625 348.969726562 486.650390625 349.751953125 489.395507812 c 0
 350.533203125 492.200195312 352.021484375 500.447265625 353.127929688 523.76953125 c 0
 353.966796875 534.563476562 354.56640625 547.98828125 354.938476562 564.025390625 c 0
 354.71875 573.588867188 354.375976562 582.447265625 353.966796875 590.303710938 c 0
 352.96484375 632.294921875 350.876953125 645.387695312 349.723632812 649.477539062 c 0
 348.94140625 652.213867188 346.872070312 659.537109375 327.821289062 659.537109375 c 2
 302.849609375 659.537109375 l 1
 302.849609375 479.2890625 l 1
 302.859375 479.2890625 l 1
EndSplineSet
Validated: 524321
EndChar

StartChar: S
Encoding: 83 83 18
Width: 650
VWidth: 0
Flags: W
HStem: 0 22.9893<61.1602 510.2> 161.998 23.0068<62.0566 339.726> 296.021 22.9795<142.822 339.906> 487.09 22.998<319.821 496.61> 619.978 23.0176<320.258 545.942> 781.069 22.9883<146.217 545.942>
VStem: 38 23.1602<22.9893 162.675> 274.197 23.0186<532.463 597.379> 362.777 23.0264<207.795 272.92> 545.942 23.0078<642.995 781.06>
LayerCount: 2
Fore
SplineSet
438.779296875 -0.45703125 m 1
 436.853515625 -0.447265625 l 1
 38 0 l 1
 39.1826171875 185.853515625 l 1
 50.7001953125 185.758789062 l 2
 51.681640625 185.749023438 159.264648438 185.004882812 238.30859375 185.004882812 c 0
 295.307617188 185.004882812 312.65234375 185.40625 317.170898438 185.73046875 c 0
 318.05859375 185.797851562 319.165039062 186.129882812 320.490234375 186.75 c 2
 322.282226562 187.388671875 l 2
 345.975585938 193.834960938 362.625 215.459960938 362.77734375 239.993164062 c 0
 362.977539062 270.295898438 338.481445312 295.095703125 308.180664062 295.294921875 c 2
 194.8671875 296.020507812 l 2
 158.920898438 298.8046875 128.6953125 308.206054688 104.19140625 324.024414062 c 0
 74.8525390625 342.970703125 52.9599609375 368.389648438 39.125 399.569335938 c 0
 14.5537109375 455.033203125 4.7802734375 525.954101562 12.3125 594.138671875 c 0
 13.8662109375 608.18359375 16.1650390625 621.903320312 19.130859375 634.948242188 c 0
 24.7646484375 659.728515625 32.345703125 682.860351562 41.05078125 701.86328125 c 0
 55.27734375 732.861328125 77.5029296875 758.00390625 107.080078125 776.569335938 c 0
 136.200195312 794.818359375 172.823242188 804.067382812 215.940429688 804.067382812 c 2
 217.932617188 804.057617188 l 1
 568.950195312 804.057617188 l 1
 568.950195312 619.977539062 l 1
 406.037109375 619.977539062 l 2
 375.610351562 619.977539062 352.688476562 619.977539062 352.44140625 619.977539062 c 0
 322.043945312 619.977539062 297.416015625 595.482421875 297.215820312 565.380859375 c 0
 297.024414062 535.088867188 321.5 510.288085938 351.79296875 510.087890625 c 0
 351.821289062 510.09765625 358.458007812 510.297851562 369.194335938 510.297851562 c 0
 419.157226562 510.297851562 509.17578125 506.3125 550.594726562 479.595703125 c 0
 579.943359375 460.668945312 601.8359375 435.249023438 615.669921875 404.03125 c 0
 624.184570312 384.80859375 631.470703125 361.591796875 636.743164062 336.848632812 c 0
 639.59375 323.508789062 641.709960938 309.741210938 643.026367188 295.944335938 c 0
 649.700195312 227.731445312 639.03125 156.9453125 613.735351562 101.775390625 c 0
 599.518554688 70.7490234375 577.301757812 45.6064453125 547.706054688 27.05078125 c 0
 518.5859375 8.7919921875 481.953125 -0.45703125 438.779296875 -0.45703125 c 1
61.16015625 22.9892578125 m 1
 438.76953125 22.55078125 l 2
 477.557617188 22.55078125 510.08203125 30.6259765625 535.482421875 46.5498046875 c 0
 561.20703125 62.673828125 580.49609375 84.4892578125 592.825195312 111.359375 c 0
 616.119140625 162.1796875 626.33984375 230.353515625 620.123046875 293.731445312 c 0
 618.883789062 306.6796875 616.91015625 319.5625 614.240234375 332.0625 c 0
 609.291992188 355.259765625 602.512695312 376.93359375 594.626953125 394.715820312 c 0
 582.651367188 421.766601562 563.629882812 443.811523438 538.124023438 460.258789062 c 0
 499.220703125 485.344726562 398.981445312 487.299804688 369.184570312 487.299804688 c 0
 358.62890625 487.299804688 352.203125 487.08984375 352.09765625 487.08984375 c 0
 308.666992188 487.34765625 273.920898438 522.549804688 274.197265625 565.533203125 c 0
 274.473632812 608.239257812 309.439453125 642.995117188 352.145507812 642.995117188 c 0
 353.432617188 642.995117188 376.078125 642.995117188 406.02734375 642.995117188 c 2
 545.942382812 642.995117188 l 1
 545.942382812 781.059570312 l 1
 215.940429688 781.069335938 l 2
 177.209960938 781.069335938 144.694335938 772.993164062 119.303710938 757.088867188 c 0
 93.587890625 740.946289062 74.2900390625 719.139648438 61.9599609375 692.280273438 c 0
 53.9130859375 674.70703125 46.857421875 653.12109375 41.5556640625 629.856445312 c 0
 38.7724609375 617.66015625 36.626953125 604.797851562 35.1767578125 591.630859375 c 0
 28.1884765625 528.299804688 37.5234375 459.991210938 60.1591796875 408.903320312 c 0
 72.1435546875 381.891601562 91.15625 359.846679688 116.671875 343.360351562 c 0
 137.935546875 329.649414062 164.575195312 321.450195312 195.83984375 319 c 2
 308.342773438 318.313476562 l 2
 351.325195312 318.045898438 386.080078125 282.842773438 385.803710938 239.859375 c 0
 385.583984375 205.352539062 362.3671875 174.87890625 329.223632812 165.439453125 c 0
 325.6953125 163.924804688 322.301757812 163.046875 318.907226562 162.7890625 c 0
 311.631835938 162.255859375 285.287109375 161.998046875 238.318359375 161.998046875 c 0
 174.462890625 161.998046875 92.0244140625 162.484375 62.056640625 162.674804688 c 2
 61.16015625 22.9892578125 l 1
EndSplineSet
Validated: 524325
EndChar

StartChar: T
Encoding: 84 84 19
Width: 617
VWidth: 0
Flags: W
HStem: 0 23.1973<187.207 428.716> 626.89 23.1982<22.626 164 451.925 593.317> 781.307 23.208<22.626 593.317>
VStem: -0.582031 23.208<650.088 781.307> 164 23.207<23.1973 626.89> 428.716 23.209<23.1973 626.89> 593.317 23.1982<650.088 781.307>
LayerCount: 2
Fore
SplineSet
451.924804688 0 m 1
 164 0 l 1
 164 626.889648438 l 1
 -0.58203125 626.889648438 l 1
 -0.58203125 804.514648438 l 1
 616.515625 804.514648438 l 1
 616.515625 626.889648438 l 1
 451.924804688 626.889648438 l 1
 451.924804688 0 l 1
187.20703125 23.197265625 m 1
 428.715820312 23.197265625 l 1
 428.715820312 650.087890625 l 1
 593.317382812 650.087890625 l 1
 593.317382812 781.306640625 l 1
 22.6259765625 781.306640625 l 1
 22.6259765625 650.087890625 l 1
 187.20703125 650.087890625 l 1
 187.20703125 23.197265625 l 1
EndSplineSet
Validated: 524289
EndChar

StartChar: U
Encoding: 85 85 20
Width: 656
VWidth: 0
Flags: W
HStem: 0 23.1504<141.061 521.47> 150.184 23.1416<309.561 352.991> 779.515 23.1504<45.4033 280.41 382.118 615.398>
VStem: 22.2617 23.1416<125.762 779.515> 280.41 23.1309<176.69 779.515> 358.997 23.1504<184.194 779.533> 615.398 23.0557<121.039 779.533>
LayerCount: 2
Fore
SplineSet
448.5390625 0 m 6
 214 0 l 6
 173.495117188 0 139.208007812 7.341796875 112.071289062 21.8056640625 c 4
 84.5732421875 36.4697265625 63.94921875 56.33203125 50.7529296875 80.85546875 c 4
 37.927734375 104.739257812 29.861328125 129.883789062 26.7724609375 155.580078125 c 4
 23.998046875 178.51171875 22.4716796875 222.06640625 22.26171875 284.987304688 c 6
 22.26171875 802.665039062 l 5
 303.541015625 802.665039062 l 5
 303.541015625 297.860351562 l 6
 303.541015625 213.247070312 306.983398438 190.125 309.0234375 183.889648438 c 4
 310.0625 180.723632812 312.485351562 173.325195312 330.962890625 173.325195312 c 6
 332.39453125 173.286132812 l 6
 350.04296875 173.325195312 352.46484375 180.723632812 353.50390625 183.889648438 c 4
 355.563476562 190.125 358.997070312 213.247070312 358.997070312 297.860351562 c 6
 358.967773438 802.665039062 l 5
 638.454101562 802.665039062 l 5
 640.3046875 285.064453125 l 6
 640.228515625 280.49609375 638.51171875 178.311523438 635.755859375 155.571289062 c 4
 632.65625 129.864257812 624.581054688 104.720703125 611.747070312 80.85546875 c 4
 598.6171875 56.3603515625 577.984375 36.4990234375 550.45703125 21.8056640625 c 4
 523.3203125 7.3310546875 489.041992188 0 448.5390625 0 c 6
45.4033203125 779.514648438 m 5
 45.4033203125 285.025390625 l 6
 45.61328125 223.0390625 47.0810546875 180.399414062 49.751953125 158.354492188 c 4
 52.498046875 135.518554688 59.6875 113.129882812 71.138671875 91.810546875 c 4
 82.123046875 71.38671875 99.5615234375 54.7001953125 122.951171875 42.2294921875 c 4
 146.702148438 29.5771484375 177.337890625 23.150390625 213.990234375 23.150390625 c 6
 448.529296875 23.150390625 l 6
 485.190429688 23.150390625 515.81640625 29.5771484375 539.567382812 42.2294921875 c 4
 563.004882812 54.7294921875 580.424804688 71.4150390625 591.37109375 91.810546875 c 4
 602.83203125 113.12109375 610.03125 135.509765625 612.77734375 158.354492188 c 4
 615.388671875 179.922851562 617.143554688 284.16796875 617.163085938 285.225585938 c 6
 615.3984375 779.533203125 l 5
 382.118164062 779.533203125 l 5
 382.147460938 297.869140625 l 6
 382.147460938 207.3828125 378.362304688 185.375976562 375.510742188 176.680664062 c 4
 371.543945312 164.590820312 360.703125 150.18359375 331.603515625 150.18359375 c 6
 330.973632812 150.18359375 l 6
 301.834960938 150.18359375 290.993164062 164.600585938 287.037109375 176.690429688 c 4
 284.204101562 185.375976562 280.41015625 207.3828125 280.41015625 297.869140625 c 6
 280.41015625 779.514648438 l 5
 45.4033203125 779.514648438 l 5
EndSplineSet
Validated: 524289
EndChar

StartChar: V
Encoding: 86 86 21
Width: 655
VWidth: 0
Flags: W
HStem: 0 23.1504<226.383 439.23> 781.05 23.1602<50.0449 256.676 408.938 615.587>
LayerCount: 2
Fore
SplineSet
457.614257812 0 m 1
 208 0 l 1
 20.8681640625 804.209960938 l 1
 275.059570312 804.209960938 l 1
 332.811523438 556.006835938 l 1
 390.563476562 804.209960938 l 1
 644.754882812 804.209960938 l 1
 457.614257812 0 l 1
226.3828125 23.150390625 m 1
 439.23046875 23.150390625 l 1
 615.586914062 781.049804688 l 1
 408.9375 781.049804688 l 1
 332.811523438 453.8125 l 1
 256.67578125 781.049804688 l 1
 50.044921875 781.049804688 l 1
 226.3828125 23.150390625 l 1
EndSplineSet
Validated: 524289
EndChar

StartChar: W
Encoding: 87 87 22
Width: 922
VWidth: 0
Flags: W
HStem: 0 22.9775<157.852 357.771 566.555 766.464> 781.802 22.9795<33.7939 229.287 407.208 517.107 695.038 890.531>
LayerCount: 2
Fore
SplineSet
786 0 m 1
 548.505859375 0 l 1
 462.157226562 353.915039062 l 1
 375.819335938 0 l 1
 138.325195312 0 l 1
 6.7431640625 804.78125 l 1
 248.709960938 804.799804688 l 1
 297.680664062 514.262695312 l 1
 390.302734375 804.5234375 l 1
 534.52734375 804.5234375 l 1
 626.634765625 514.262695312 l 1
 675.606445312 804.799804688 l 1
 917.572265625 804.78125 l 1
 786 0 l 1
566.5546875 22.9775390625 m 1
 766.463867188 22.9775390625 l 1
 890.53125 781.801757812 l 1
 695.038085938 781.822265625 l 1
 633.556640625 417.017578125 l 1
 517.107421875 781.822265625 l 1
 407.208007812 781.822265625 l 1
 290.768554688 417.017578125 l 1
 229.287109375 781.822265625 l 1
 33.7939453125 781.801757812 l 1
 157.8515625 22.9775390625 l 1
 357.770507812 22.9775390625 l 1
 462.16796875 450.893554688 l 1
 566.5546875 22.9775390625 l 1
EndSplineSet
Validated: 524289
EndChar

StartChar: X
Encoding: 88 88 23
Width: 752
VWidth: 0
Flags: W
HStem: 0 23.1211<46.9688 276.816 468.792 698.649> 781.05 23.1309<46.9688 276.836 468.783 698.649>
LayerCount: 2
Fore
SplineSet
738 0 m 5
 455.196289062 0 l 5
 372.814453125 148.038085938 l 5
 290.4140625 0 l 5
 7.6279296875 0 l 5
 231.411132812 402.094726562 l 5
 7.63671875 804.180664062 l 5
 290.432617188 804.180664062 l 5
 372.82421875 656.161132812 l 5
 455.196289062 804.180664062 l 5
 737.990234375 804.180664062 l 5
 514.216796875 402.084960938 l 5
 738 0 l 5
468.791992188 23.12109375 m 5
 698.649414062 23.12109375 l 5
 487.747070312 402.084960938 l 5
 698.649414062 781.049804688 l 5
 468.783203125 781.049804688 l 5
 372.814453125 608.600585938 l 5
 276.8359375 781.049804688 l 5
 46.96875 781.049804688 l 5
 257.880859375 402.084960938 l 5
 46.96875 23.12109375 l 5
 276.81640625 23.12109375 l 5
 372.8046875 195.587890625 l 5
 468.791992188 23.12109375 l 5
EndSplineSet
Validated: 524289
EndChar

StartChar: Y
Encoding: 89 89 24
Width: 722
VWidth: 0
Flags: W
HStem: 0 23.1406<239.884 480.85> 780.677 23.1504<34.2168 264.293 456.432 686.499>
VStem: 216.733 23.1504<23.1406 405.107> 480.85 23.1504<23.1406 405.146>
LayerCount: 2
Fore
SplineSet
504 0 m 1
 216.733398438 0 l 1
 216.733398438 405.107421875 l 1
 -5.162109375 803.827148438 l 1
 277.899414062 803.827148438 l 1
 360.348632812 655.665039062 l 1
 442.815429688 803.827148438 l 1
 725.88671875 803.827148438 l 1
 504 405.146484375 l 1
 504 0 l 1
239.883789062 23.140625 m 1
 480.849609375 23.140625 l 1
 480.849609375 411.153320312 l 1
 686.499023438 780.66796875 l 1
 456.431640625 780.66796875 l 1
 360.357421875 608.057617188 l 1
 264.29296875 780.676757812 l 1
 34.216796875 780.676757812 l 1
 239.883789062 411.124023438 l 1
 239.883789062 23.140625 l 1
EndSplineSet
Validated: 524289
EndChar

StartChar: Z
Encoding: 90 90 25
Width: 771
VWidth: 0
Flags: W
HStem: 0 23.1973<52.3555 724.803> 145.883 23.208<414.661 724.803> 635.461 23.208<100.687 354.734> 781.354 23.208<100.687 717.012>
VStem: 77.4883 23.1982<658.669 781.354> 724.803 23.208<23.1973 145.883>
LayerCount: 2
Fore
SplineSet
748 0 m 1
 13.546875 0 l 1
 354.734375 635.4609375 l 1
 77.48828125 635.4609375 l 1
 77.48828125 804.5625 l 1
 755.818359375 804.45703125 l 1
 414.661132812 169.090820312 l 1
 748.010742188 169.090820312 l 1
 748.010742188 0 l 1
 748 0 l 1
52.35546875 23.197265625 m 1
 724.802734375 23.197265625 l 1
 724.802734375 145.8828125 l 1
 375.864257812 145.8828125 l 1
 717.01171875 781.249023438 l 1
 100.686523438 781.354492188 l 1
 100.686523438 658.668945312 l 1
 393.53125 658.668945312 l 1
 52.35546875 23.197265625 l 1
EndSplineSet
Validated: 524289
EndChar

StartChar: a
Encoding: 97 97 26
Width: 658
VWidth: 0
Flags: W
HStem: 0 23.0449<138.198 609.945> 148.029 23.0645<305.411 347.46> 269.503 23.0557<305.702 347.889> 417.542 23.0742<138.198 347.87> 486.422 23.0449<121.788 333.71> 634.47 23.0557<121.788 518.175>
VStem: 23.3584 23.0557<120.809 319.78> 98.7217 23.0664<509.467 634.47> 278.188 23.0654<173.67 266.91> 347.889 23.0557<171.646 269.494 440.616 484.075> 609.945 23.0449<23.0449 536.712>
LayerCount: 2
Fore
SplineSet
633 0 m 1
 211.55859375 0 l 2
 171.6171875 0 137.786132812 7.24609375 111.012695312 21.51953125 c 0
 83.876953125 35.994140625 63.529296875 55.587890625 50.533203125 79.7783203125 c 0
 37.8994140625 103.271484375 29.9375 128.0625 26.8876953125 153.473632812 c 0
 25.5419921875 164.58203125 24.2275390625 195.712890625 23.3583984375 219.883789062 c 0
 24.6171875 255.915039062 25.8095703125 278.274414062 26.8876953125 287.151367188 c 0
 29.9375 312.543945312 37.8994140625 337.344726562 50.533203125 360.837890625 c 0
 63.5205078125 385.018554688 83.8671875 404.630859375 111.002929688 419.095703125 c 0
 137.77734375 433.379882812 171.59765625 440.616210938 211.548828125 440.616210938 c 2
 347.870117188 440.616210938 l 1
 347.870117188 469.811523438 l 2
 347.583007812 475.733398438 344.369140625 483.829101562 330.83984375 486.221679688 c 0
 319.073242188 486.25 112.358398438 486.421875 110.240234375 486.421875 c 2
 98.7216796875 486.431640625 l 1
 98.7216796875 657.525390625 l 1
 444.133789062 657.525390625 l 2
 484.733398438 657.525390625 518.572265625 650.278320312 545.336914062 636.004882812 c 0
 572.481445312 621.540039062 592.810546875 601.926757812 605.806640625 577.747070312 c 0
 618.458984375 554.26171875 626.420898438 529.462890625 629.462890625 504.061523438 c 0
 630.540039062 495.193359375 631.72265625 472.84375 632.990234375 437.631835938 c 2
 632.990234375 0 l 1
 633 0 l 1
211.567382812 417.541992188 m 2
 175.44921875 417.541992188 145.272460938 411.220703125 121.8828125 398.748046875 c 0
 98.8271484375 386.448242188 81.6640625 370.01953125 70.8525390625 349.901367188 c 0
 59.591796875 328.954101562 52.4970703125 306.899414062 49.7890625 284.377929688 c 0
 48.81640625 276.368164062 47.615234375 253.46484375 46.4140625 219.874023438 c 0
 47.615234375 187.169921875 48.81640625 164.266601562 49.7890625 156.228515625 c 0
 52.5068359375 133.6875 59.591796875 111.633789062 70.8525390625 90.685546875 c 0
 81.6640625 70.576171875 98.8271484375 54.1474609375 121.8828125 41.84765625 c 0
 145.272460938 29.3671875 175.44921875 23.044921875 211.567382812 23.044921875 c 2
 609.9453125 23.044921875 l 1
 609.9453125 437.221679688 l 2
 608.762695312 470.393554688 607.551757812 493.295898438 606.598632812 501.296875 c 0
 603.872070312 523.836914062 596.77734375 545.881835938 585.516601562 566.838867188 c 0
 574.704101562 586.948242188 557.532226562 603.385742188 534.495117188 615.676757812 c 0
 511.096679688 628.1484375 480.918945312 634.469726562 444.801757812 634.469726562 c 2
 121.788085938 634.469726562 l 1
 121.788085938 509.466796875 l 1
 167.2109375 509.4296875 331.192382812 509.295898438 332.508789062 509.219726562 c 2
 333.709960938 509.095703125 l 2
 360.025390625 504.938476562 370.190429688 486.345703125 370.923828125 470.326171875 c 2
 370.934570312 417.541992188 l 1
 211.567382812 417.541992188 l 2
328.856445312 148.029296875 m 2
 327.454101562 148.029296875 l 2
 298.078125 148.029296875 287.361328125 162.284179688 283.442382812 174.231445312 c 0
 281.849609375 179.07421875 279.590820312 189.047851562 278.1875 219.768554688 c 2
 278.168945312 220.293945312 l 1
 278.1875 220.817382812 l 2
 279.590820312 251.55859375 281.849609375 261.532226562 283.442382812 266.34765625 c 0
 287.361328125 278.313476562 298.068359375 292.55859375 326.854492188 292.55859375 c 2
 370.944335938 292.5390625 l 1
 370.944335938 170.53125 l 1
 369.551757812 167.95703125 l 2
 364.640625 158.870117188 353.580078125 148.029296875 328.856445312 148.029296875 c 2
301.252929688 220.293945312 m 0
 302.483398438 193.60546875 304.352539062 184.48046875 305.362304688 181.41015625 c 0
 306.374023438 178.330078125 308.748046875 171.09375 326.854492188 171.09375 c 2
 328.856445312 171.09375 l 2
 340.936523438 171.09375 345.770507812 174.383789062 347.888671875 176.852539062 c 2
 347.888671875 269.494140625 l 1
 326.864257812 269.502929688 l 2
 308.748046875 269.502929688 306.374023438 262.256835938 305.362304688 259.166992188 c 0
 304.352539062 256.106445312 302.483398438 246.991210938 301.252929688 220.293945312 c 0
EndSplineSet
Validated: 524293
EndChar

StartChar: b
Encoding: 98 98 27
Width: 653
VWidth: 0
Flags: W
HStem: 0 23.417<39.4268 518.591> 150.364 23.4268<305.594 348.449> 494.068 23.4268<305.594 348.441> 644.414 23.4277<305.594 518.591> 780.468 23.417<39.4268 282.177>
VStem: 16 23.4268<23.417 780.468> 282.177 23.417<173.791 494.068 667.842 780.468> 354.289 23.417<176.985 490.884> 608.384 23.2363<114.211 553.621>
LayerCount: 2
Fore
SplineSet
444.059570312 0 m 2
 16 0 l 1
 16 803.884765625 l 1
 305.59375 803.884765625 l 1
 305.59375 667.841796875 l 1
 444.059570312 667.841796875 l 2
 484.630859375 667.841796875 518.974609375 660.489257812 546.16796875 645.987304688 c 0
 573.752929688 631.28515625 594.415039062 611.375976562 607.6015625 586.823242188 c 0
 620.435546875 562.939453125 628.521484375 537.756835938 631.629882812 511.974609375 c 0
 633.870117188 493.553710938 635.252929688 462.840820312 635.854492188 418.075195312 c 2
 636.177734375 253.217773438 l 2
 636.083007812 249.661132812 633.889648438 174.553710938 631.620117188 155.856445312 c 0
 628.521484375 130.07421875 620.426757812 104.891601562 607.591796875 81.017578125 c 0
 594.385742188 56.455078125 573.724609375 36.5361328125 546.159179688 21.84375 c 0
 518.984375 7.3505859375 484.630859375 0 444.059570312 0 c 2
39.4267578125 23.4169921875 m 1
 444.068359375 23.4169921875 l 2
 480.749023438 23.4169921875 511.404296875 29.84375 535.165039062 42.515625 c 0
 558.583007812 55.0068359375 576.002929688 71.69140625 586.987304688 92.1162109375 c 0
 598.428710938 113.397460938 605.637695312 135.795898438 608.383789062 158.668945312 c 0
 610.528320312 176.317382812 612.759765625 252.758789062 612.7890625 253.522460938 c 2
 612.455078125 417.884765625 l 2
 611.873046875 461.05859375 610.500976562 491.818359375 608.393554688 509.15234375 c 0
 605.637695312 532.026367188 598.428710938 554.43359375 586.987304688 575.725585938 c 0
 576.021484375 596.149414062 558.592773438 612.825195312 535.165039062 625.325195312 c 0
 511.404296875 637.998046875 480.749023438 644.4140625 444.068359375 644.4140625 c 2
 282.176757812 644.4140625 l 1
 282.176757812 780.467773438 l 1
 39.4267578125 780.467773438 l 1
 39.4267578125 23.4169921875 l 1
326.961914062 150.364257812 m 2
 282.176757812 150.374023438 l 1
 282.176757812 517.4765625 l 1
 326.961914062 517.495117188 l 2
 356.186523438 517.495117188 367.075195312 503.021484375 371.051757812 490.883789062 c 0
 373.912109375 482.168945312 377.706054688 460.114257812 377.706054688 369.514648438 c 2
 377.706054688 298.35546875 l 2
 377.706054688 207.745117188 373.912109375 185.69140625 371.051757812 176.985351562 c 0
 367.075195312 164.837890625 356.205078125 150.364257812 326.961914062 150.364257812 c 2
305.59375 173.791015625 m 1
 326.961914062 173.782226562 l 2
 345.364257812 173.782226562 347.766601562 181.1328125 348.795898438 184.270507812 c 0
 350.845703125 190.525390625 354.2890625 213.657226562 354.2890625 298.35546875 c 2
 354.2890625 369.514648438 l 2
 354.2890625 454.212890625 350.856445312 477.334960938 348.805664062 483.580078125 c 0
 347.766601562 486.716796875 345.364257812 494.077148438 326.961914062 494.077148438 c 2
 305.59375 494.068359375 l 1
 305.59375 173.791015625 l 1
EndSplineSet
Validated: 524289
EndChar

StartChar: c
Encoding: 99 99 28
Width: 444
VWidth: 0
Flags: W
HStem: 0 22.998<132.409 404.992> 148.028 23.0078<298.502 404.992> 486.469 22.998<298.498 404.992> 634.499 23.0068<130.96 404.992>
VStem: 15.4932 22.9883<122.835 534.667> 269.702 23.0273<174.22 475.822> 404.992 23.0166<22.998 148.048 509.448 634.499>
LayerCount: 2
Fore
SplineSet
428 0 m 1
 204.340820312 0 l 2
 164.409179688 0 130.578125 7.236328125 103.814453125 21.509765625 c 0
 76.677734375 35.994140625 56.330078125 55.587890625 43.333984375 79.7490234375 c 0
 30.7099609375 103.252929688 22.7490234375 128.034179688 19.6884765625 153.444335938 c 0
 17.447265625 171.951171875 16.0458984375 204.141601562 15.4931640625 249.107421875 c 0
 15.693359375 273.545898438 17.533203125 486.278320312 19.697265625 504.060546875 c 0
 22.7587890625 529.461914062 30.7197265625 554.243164062 43.34375 577.736328125 c 0
 56.33984375 601.916992188 76.6962890625 621.521484375 103.82421875 635.995117188 c 0
 130.59765625 650.268554688 164.41796875 657.505859375 204.349609375 657.505859375 c 2
 428.008789062 657.505859375 l 1
 428.008789062 486.450195312 l 1
 319.645507812 486.46875 l 2
 301.509765625 486.46875 299.145507812 479.203125 298.116210938 476.123046875 c 0
 296.104492188 469.963867188 292.729492188 447.205078125 292.729492188 363.784179688 c 2
 292.729492188 293.720703125 l 2
 292.729492188 210.310546875 296.104492188 187.541015625 298.116210938 181.400390625 c 0
 299.135742188 178.301757812 301.500976562 171.036132812 319.645507812 171.036132812 c 2
 428.008789062 171.0546875 l 1
 428.008789062 0 l 1
 428 0 l 1
204.340820312 634.499023438 m 2
 168.212890625 634.499023438 138.034179688 628.166992188 114.635742188 615.705078125 c 0
 91.5908203125 603.395507812 74.4091796875 586.965820312 63.595703125 566.848632812 c 0
 52.326171875 545.900390625 45.2314453125 523.845703125 42.5244140625 501.305664062 c 0
 40.9990234375 488.814453125 39.2724609375 343.674804688 38.4814453125 249.165039062 c 0
 39.0244140625 205.266601562 40.37890625 173.896484375 42.5244140625 156.209960938 c 0
 45.2314453125 133.668945312 52.326171875 111.60546875 63.595703125 90.6474609375 c 0
 74.3994140625 70.5380859375 91.580078125 54.1005859375 114.635742188 41.80078125 c 0
 138.034179688 29.328125 168.221679688 22.998046875 204.340820312 22.998046875 c 2
 404.9921875 22.998046875 l 1
 404.9921875 148.047851562 l 1
 319.63671875 148.028320312 l 2
 290.87890625 148.028320312 280.170898438 162.263671875 276.252929688 174.219726562 c 0
 273.440429688 182.7734375 269.702148438 204.494140625 269.702148438 293.711914062 c 2
 269.702148438 363.774414062 l 2
 269.702148438 453.001953125 273.440429688 474.711914062 276.252929688 483.275390625 c 0
 280.170898438 495.22265625 290.869140625 509.466796875 319.63671875 509.466796875 c 2
 404.9921875 509.448242188 l 1
 404.9921875 634.499023438 l 1
 204.340820312 634.499023438 l 2
EndSplineSet
Validated: 524289
EndChar

StartChar: d
Encoding: 100 100 29
Width: 661
VWidth: 0
Flags: W
HStem: 0 23.4365<141.295 620.562> 150.403 23.4082<311.482 354.34> 494.193 23.417<311.487 354.34> 644.568 23.4551<141.309 354.33> 780.641 23.4268<377.757 620.562>
VStem: 24.0029 23.418<124.838 543.178> 282.218 23.4268<177.034 490.989> 354.34 23.417<173.821 494.184 668.023 780.641> 620.562 23.4375<23.4365 780.641>
LayerCount: 2
Fore
SplineSet
644 0 m 1
 215.844726562 0 l 2
 175.265625 0 140.901367188 7.3515625 113.708007812 21.86328125 c 0
 86.1416015625 36.556640625 65.470703125 56.4755859375 52.265625 81.0458984375 c 0
 39.421875 104.931640625 31.3447265625 130.112304688 28.2373046875 155.915039062 c 0
 25.966796875 174.612304688 23.7744140625 249.728515625 23.6796875 252.922851562 c 2
 24.0029296875 418.057617188 l 2
 24.6044921875 462.95703125 25.9873046875 493.6875 28.2373046875 512.12890625 c 0
 31.3359375 537.900390625 39.421875 563.083007812 52.265625 586.977539062 c 0
 65.4609375 611.538085938 86.1328125 631.447265625 113.708007812 646.159179688 c 0
 140.901367188 660.662109375 175.265625 668.0234375 215.844726562 668.0234375 c 2
 354.330078125 668.0234375 l 1
 354.330078125 804.067382812 l 1
 644 804.067382812 l 1
 644 0 l 1
215.844726562 644.577148438 m 2
 179.154296875 644.577148438 148.500976562 638.150390625 124.729492188 625.478515625 c 0
 101.302734375 612.978515625 83.86328125 596.301757812 72.888671875 575.877929688 c 0
 61.4375 554.577148438 54.23828125 532.169921875 51.482421875 509.305664062 c 0
 49.375 491.943359375 48.0029296875 461.18359375 47.4208984375 417.875976562 c 2
 47.0869140625 253.236328125 l 2
 47.1064453125 252.826171875 49.337890625 176.366210938 51.47265625 158.717773438 c 0
 54.23828125 135.842773438 61.427734375 113.436523438 72.8798828125 92.14453125 c 0
 83.8544921875 71.7119140625 101.29296875 55.025390625 124.719726562 42.53515625 c 0
 148.48046875 29.853515625 179.145507812 23.4365234375 215.8359375 23.4365234375 c 2
 620.5625 23.4365234375 l 1
 620.5625 780.640625 l 1
 377.756835938 780.640625 l 1
 377.756835938 644.568359375 l 1
 215.844726562 644.568359375 l 1
 215.844726562 644.577148438 l 2
332.971679688 150.403320312 m 2
 303.728515625 150.403320312 292.848632812 164.876953125 288.873046875 177.034179688 c 0
 286.01171875 185.720703125 282.217773438 207.793945312 282.217773438 298.4140625 c 2
 282.217773438 369.590820312 l 2
 282.217773438 460.220703125 286.01171875 482.284179688 288.873046875 490.989257812 c 0
 292.848632812 503.126953125 303.73828125 517.610351562 332.971679688 517.610351562 c 2
 377.756835938 517.591796875 l 1
 377.756835938 150.413085938 l 1
 332.971679688 150.403320312 l 2
332.971679688 494.193359375 m 1
 314.569335938 494.193359375 312.15625 486.841796875 311.1171875 483.6953125 c 0
 309.077148438 477.439453125 305.64453125 454.30859375 305.64453125 369.590820312 c 2
 305.64453125 298.4140625 l 2
 305.64453125 213.6953125 309.077148438 190.563476562 311.127929688 184.309570312 c 0
 312.166015625 181.163085938 314.569335938 173.811523438 332.98046875 173.811523438 c 2
 354.33984375 173.821289062 l 1
 354.33984375 494.18359375 l 1
 332.971679688 494.193359375 l 1
EndSplineSet
Validated: 524293
EndChar

StartChar: e
Encoding: 101 101 30
Width: 634
VWidth: 0
Flags: W
HStem: 0 23.7314<123.794 594.276> 147.504 23.7031<274.32 594.276> 221.19 23.7607<274.896 592.933> 371.907 23.7422<285.775 337.216> 485.878 23.7705<290.99 333.343> 633.792 23.7236<123.784 501.056>
VStem: 7.65234 23.7324<123.14 534.384> 249.963 23.7129<174.136 205.104> 261.91 23.8652<395.649 483.218> 337.216 24.0566<395.649 476.42> 593.457 23.7314<23.7314 147.856 244.951 534.378>
LayerCount: 2
Fore
SplineSet
618 0 m 1xff60
 196.939453125 0 l 2
 157.0078125 0 123.158203125 7.24609375 96.3466796875 21.529296875 c 0
 69.1904296875 36.03125 48.8251953125 55.654296875 35.7900390625 79.873046875 c 0
 23.1943359375 103.291015625 15.2333984375 128.1015625 12.1240234375 153.586914062 c 0
 10.150390625 169.920898438 7.7578125 231.831054688 7.65234375 234.461914062 c 2
 7.642578125 440.283203125 l 2
 7.7763671875 442.970703125 10.484375 490.349609375 12.1142578125 503.899414062 c 0
 15.2236328125 529.405273438 23.185546875 554.21484375 35.7802734375 577.641601562 c 0
 48.814453125 601.870117188 69.1904296875 621.4921875 96.3359375 635.9765625 c 0
 123.1484375 650.278320312 156.997070312 657.515625 196.939453125 657.515625 c 2
 427.874023438 657.515625 l 2
 467.834960938 657.515625 501.684570312 650.268554688 528.486328125 635.9765625 c 0
 555.6328125 621.502929688 575.999023438 601.879882812 589.04296875 577.651367188 c 0
 601.657226562 554.205078125 609.627929688 529.38671875 612.716796875 503.908203125 c 0
 614.138671875 492.247070312 615.206054688 475.247070312 615.987304688 452.143554688 c 2
 616.331054688 452.143554688 l 1
 617.188476562 440.272460938 l 1
 617.188476562 268.645507812 l 1
 616.16015625 221.190429688 l 1
 296.1875 221.190429688 l 2
 278.338867188 221.190429688 276.049804688 214.143554688 275.077148438 211.130859375 c 0
 274.810546875 210.358398438 274.353515625 208.59375 273.694335938 204.208984375 c 0
 274.077148438 198.029296875 273.857421875 192.661132812 273.67578125 188.275390625 c 0
 273.561523438 185.51953125 273.41796875 182.078125 273.627929688 180.990234375 c 0
 274.534179688 178.263671875 276.850585938 171.20703125 294.69140625 171.20703125 c 2
 617.990234375 171.580078125 l 1
 617.990234375 0 l 1
 618 0 l 1xff60
196.939453125 633.791992188 m 1
 160.935546875 633.791992188 130.842773438 627.490234375 107.510742188 615.046875 c 0
 84.580078125 602.8046875 67.46484375 586.452148438 56.6904296875 566.409179688 c 0
 45.505859375 545.594726562 38.431640625 523.607421875 35.685546875 501.057617188 c 0
 34.1416015625 488.26171875 31.39453125 440.110351562 31.3662109375 439.624023438 c 2
 31.384765625 234.9296875 l 2
 31.39453125 234.749023438 33.826171875 171.818359375 35.6953125 156.466796875 c 0
 38.4404296875 133.916992188 45.505859375 111.9296875 56.7001953125 91.1142578125 c 0
 67.46484375 71.091796875 84.5703125 54.73046875 107.521484375 42.4765625 c 0
 130.852539062 30.0341796875 160.9453125 23.7314453125 196.948242188 23.7314453125 c 2
 594.276367188 23.7314453125 l 1
 594.276367188 147.856445312 l 1
 294.709960938 147.50390625 l 2
 265.723632812 147.50390625 254.940429688 161.864257812 251.002929688 173.924804688 c 0
 249.514648438 178.42578125 249.71484375 183.221679688 249.962890625 189.276367188 c 0
 250.143554688 193.56640625 250.334960938 198.439453125 249.93359375 203.8359375 c 2
 249.848632812 205.103515625 l 1
 250.020507812 206.373046875 l 2
 250.83984375 212.16015625 251.602539062 215.822265625 252.556640625 218.634765625 c 0
 256.436523438 230.572265625 267.201171875 244.951171875 296.197265625 244.951171875 c 2
 592.932617188 244.951171875 l 1
 593.45703125 268.931640625 l 1
 593.45703125 431.482421875 l 1
 592.598632812 439.9765625 l 2
 591.85546875 467.905273438 590.69140625 488.453125 589.166015625 501.057617188 c 0
 586.4296875 523.598632812 579.354492188 545.584960938 568.142578125 566.418945312 c 0
 557.3671875 586.452148438 540.262695312 602.813476562 517.3203125 615.056640625 c 0
 494.008789062 627.490234375 463.90625 633.791992188 427.883789062 633.791992188 c 2
 196.939453125 633.791992188 l 1
361.606445312 371.907226562 m 1
 261.823242188 371.907226562 l 1
 261.91015625 383.873046875 l 2xfee0
 262.453125 456.844726562 265.857421875 475.5234375 268.383789062 483.217773438 c 0
 272.360351562 495.2890625 283.163085938 509.6484375 312.1015625 509.6484375 c 2
 313.2265625 509.6484375 l 2
 341.8125 509.466796875 352.482421875 495.203125 356.391601562 483.208984375 c 0
 356.982421875 481.47265625 358.8125 475.961914062 361.272460938 384.09375 c 2
 361.606445312 371.907226562 l 1
285.775390625 395.649414062 m 1
 337.215820312 395.649414062 l 2
 336.120117188 433.416992188 334.575195312 471.528320312 333.622070312 476.685546875 c 0
 332.877929688 478.822265625 330.646484375 485.649414062 313.712890625 485.90625 c 2
 311.291015625 485.877929688 l 1
 311.12890625 485.90625 l 2
 294.184570312 485.659179688 291.92578125 478.783203125 290.943359375 475.828125 c 0
 289.293945312 470.793945312 286.529296875 453.62109375 285.775390625 395.649414062 c 1
EndSplineSet
Validated: 524293
EndChar

StartChar: f
Encoding: 102 102 31
Width: 391
VWidth: 0
Flags: W
HStem: 0 23.4365<40.9551 260.267> 376.446 23.4463<283.341 351.563> 510.745 23.4365<283.551 351.563> 648.143 23.3789<287.984 351.573> 781.078 23.4365<116.389 351.573>
VStem: 17.5283 23.4268<23.4365 705.587> 259.886 23.4551<23.4365 376.446 534.182 637.865> 351.563 23.4365<399.893 510.745 671.521 781.078>
LayerCount: 2
Fore
SplineSet
283.713867188 0 m 1
 17.537109375 0 l 1
 17.5283203125 11.7080078125 l 2
 17.3369140625 163.055664062 16.7744140625 657.487304688 17.73828125 665.362304688 c 0
 20.4833984375 688.313476562 27.69140625 710.77734375 39.1630859375 732.078125 c 0
 50.99609375 754.084960938 69.4736328125 771.885742188 94.0830078125 785.005859375 c 0
 118.330078125 797.954101562 148.966796875 804.514648438 185.122070312 804.514648438 c 2
 375 804.514648438 l 1
 375 648.200195312 l 1
 363.338867188 648.142578125 l 1
 363.338867188 648.142578125 310.907226562 647.9140625 309.743164062 647.9140625 c 0
 290.788085938 647.9140625 288.73828125 640.638671875 287.946289062 637.90234375 c 0
 287.736328125 637.1015625 287.5078125 636.0234375 287.297851562 634.803710938 c 0
 285.333984375 618.451171875 284.084960938 574.008789062 283.55078125 534.181640625 c 1
 375 534.181640625 l 1
 375 376.446289062 l 1
 283.340820312 376.446289062 l 1
 283.713867188 0 l 1
40.955078125 23.4365234375 m 1
 260.266601562 23.4365234375 l 1
 259.885742188 399.892578125 l 1
 351.563476562 399.892578125 l 1
 351.563476562 510.745117188 l 1
 259.8671875 510.745117188 l 1
 259.971679688 522.586914062 l 2
 260.190429688 543.487304688 261.125976562 613.6171875 264.138671875 638.3125 c 0
 264.595703125 641.010742188 264.99609375 642.79296875 265.40625 644.243164062 c 0
 268.915039062 656.637695312 279.451171875 671.350585938 309.752929688 671.350585938 c 0
 310.649414062 671.350585938 336.1171875 671.465820312 351.573242188 671.521484375 c 2
 351.573242188 781.078125 l 1
 185.122070312 781.078125 l 2
 152.856445312 781.078125 125.939453125 775.442382812 105.115234375 764.333984375 c 0
 84.6533203125 753.416992188 69.3974609375 738.838867188 59.796875 720.979492188 c 0
 49.7275390625 702.262695312 43.4052734375 682.611328125 41.0029296875 662.549804688 c 0
 40.35546875 650.307617188 40.6689453125 245.866210938 40.955078125 23.4365234375 c 1
EndSplineSet
Validated: 524321
EndChar

StartChar: g
Encoding: 103 103 32
Width: 659
VWidth: 0
Flags: W
HStem: -222.697 23.8369<68.6504 516.223> -75.0117 23.8457<68.6504 348.842> 0.0947266 23.8184<138.825 353.066> 147.799 23.8369<306.212 354.249> 485.449 23.8457<306.067 349.501> 633.144 23.8564<138.815 608.172>
VStem: 27.5156 23.666<111.406 545.708> 44.8125 23.8379<-198.86 -75.0117> 276.949 23.8379<174.24 482.874> 354.249 23.8271<-40.9736 0.0947266 171.646 482.952> 608.182 23.8184<-99.5859 633.144>
LayerCount: 2
Fore
SplineSet
442.856445312 -222.697265625 m 2xfee0
 44.8125 -222.697265625 l 1
 44.8125 -51.166015625 l 1xfde0
 327.836914062 -51.166015625 l 2
 345.590820312 -51.166015625 347.8984375 -44.1376953125 348.889648438 -41.134765625 c 0
 349.966796875 -37.796875 351.854492188 -28.1005859375 353.06640625 0.0947265625 c 2
 212.188476562 0.0947265625 l 2
 172.275390625 0.0947265625 138.473632812 7.3310546875 111.681640625 21.6044921875 c 0
 84.525390625 36.09765625 64.1591796875 55.7119140625 51.154296875 79.9013671875 c 0
 38.529296875 103.366210938 30.5673828125 128.166015625 27.515625 153.586914062 c 0
 24.5419921875 178.043945312 23.0732421875 351.015625 23.015625 358.3671875 c 0
 23.015625 430.184570312 24.5322265625 478.983398438 27.515625 503.53515625 c 0
 30.5859375 528.956054688 38.5390625 553.747070312 51.1630859375 577.192382812 c 0
 64.1689453125 601.40234375 84.53515625 621.014648438 111.681640625 635.490234375 c 0
 138.455078125 649.763671875 172.265625 657 212.188476562 657 c 2
 632 657 l 1
 632 12.021484375 l 2
 631.895507812 8.9423828125 629.510742188 -52.919921875 627.5 -69.2431640625 c 0
 624.438476562 -94.6259765625 616.486328125 -119.40625 603.872070312 -142.872070312 c 0
 590.865234375 -167.071289062 570.5 -186.694335938 543.34375 -201.16796875 c 0
 516.58984375 -215.4609375 482.779296875 -222.697265625 442.856445312 -222.697265625 c 2xfee0
68.650390625 -198.860351562 m 1
 442.856445312 -198.860351562 l 2
 478.821289062 -198.860351562 508.866210938 -192.567382812 532.140625 -180.15234375 c 0
 555.072265625 -167.919921875 572.138671875 -151.586914062 582.875976562 -131.592773438 c 0
 594.079101562 -110.7578125 601.125 -88.8193359375 603.842773438 -66.36328125 c 0
 605.73046875 -50.9931640625 608.153320312 11.841796875 608.181640625 12.48046875 c 2
 608.171875 633.143554688 l 1
 212.188476562 633.143554688 l 2
 176.22265625 633.143554688 146.177734375 626.850585938 122.903320312 614.435546875 c 0
 99.9814453125 602.211914062 82.9140625 585.879882812 72.16796875 565.875 c 0
 60.955078125 545.05078125 53.8994140625 523.111328125 51.181640625 500.646484375 c 0
 48.3125 477.038085938 46.8623046875 429.211914062 46.8623046875 358.453125 c 0
 47.369140625 296.743164062 48.931640625 174.963867188 51.181640625 156.4375 c 0xfee0
 53.8994140625 133.97265625 60.955078125 112.014648438 72.158203125 91.171875 c 0
 82.8955078125 71.1865234375 99.9716796875 54.8525390625 122.903320312 42.619140625 c 0
 146.188476562 30.2060546875 176.2421875 23.9130859375 212.188476562 23.9130859375 c 2
 377.704101562 23.9130859375 l 1
 377.33203125 11.6318359375 l 2
 376.0546875 -30.3603515625 373.404296875 -42.8515625 371.525390625 -48.58203125 c 0
 367.55859375 -60.642578125 356.756835938 -75.01171875 327.828125 -75.01171875 c 2
 68.650390625 -75.01171875 l 1
 68.650390625 -198.860351562 l 1
327.665039062 147.798828125 m 2
 298.25 147.798828125 287.465820312 162.177734375 283.51953125 174.240234375 c 0
 280.696289062 182.762695312 276.94921875 204.436523438 276.94921875 293.586914062 c 2
 276.94921875 363.487304688 l 2
 276.94921875 452.620117188 280.705078125 474.301757812 283.51953125 482.874023438 c 0
 287.465820312 494.916015625 298.25 509.294921875 327.198242188 509.294921875 c 0
 358.024414062 509.294921875 368.732421875 494.334960938 372.297851562 481.767578125 c 0
 374.787109375 472.958007812 378.076171875 450.474609375 378.076171875 357.213867188 c 2
 378.076171875 147.828125 l 1
 327.665039062 147.798828125 l 2
327.198242188 485.44921875 m 0
 309.454101562 485.44921875 307.146484375 478.430664062 306.1640625 475.426757812 c 0
 304.15234375 469.306640625 300.787109375 446.661132812 300.787109375 363.487304688 c 2
 300.787109375 293.586914062 l 2
 300.787109375 210.38671875 304.162109375 187.76953125 306.1640625 181.6953125 c 0
 307.15625 178.6640625 309.454101562 171.635742188 327.198242188 171.635742188 c 2
 354.249023438 171.645507812 l 1
 354.249023438 357.205078125 l 2
 354.249023438 444.868164062 351.197265625 468.810546875 349.3671875 475.274414062 c 0
 348.576171875 478.049804688 346.4765625 485.44921875 327.198242188 485.44921875 c 0
EndSplineSet
Validated: 524289
EndChar

StartChar: h
Encoding: 104 104 33
Width: 629
VWidth: 0
Flags: W
HStem: 0 23.4277<41.6553 283.583 370.369 589.596> 512.72 23.5508<307 342.965> 645.74 23.4268<307.011 514.171> 780.851 23.4365<41.6553 283.583>
VStem: 18.2178 23.4375<23.4277 780.851> 283.583 23.417<23.4277 512.72 669.167 780.851> 346.904 23.4648<23.4375 510.156> 589.48 23.3232<23.4375 570.264>
LayerCount: 2
Fore
SplineSet
612.985351562 0.009765625 m 1
 346.904296875 0.009765625 l 1
 347.390625 351.80859375 l 2
 347.390625 407.865234375 345.845703125 478.708007812 343.233398438 500.19140625 c 0
 343.099609375 500.733398438 342.899414062 501.802734375 342.65234375 502.66015625 c 0
 341.889648438 505.338867188 339.8203125 512.604492188 320.883789062 512.604492188 c 0
 320.2734375 512.604492188 313.456054688 512.671875 307 512.719726562 c 2
 307 0 l 1
 18.2177734375 0 l 1
 18.2177734375 804.287109375 l 1
 307.010742188 804.287109375 l 1
 307.010742188 669.166992188 l 1
 445.4765625 669.166992188 l 2
 481.623046875 669.166992188 512.239257812 662.608398438 536.486328125 649.66796875 c 0
 561.0859375 636.548828125 579.565429688 618.747070312 591.388671875 596.75 c 0
 602.859375 575.44921875 610.048828125 553.00390625 612.803710938 530.025390625 c 0
 613.7578125 522.16796875 613.213867188 131.314453125 613.00390625 11.708984375 c 2
 612.985351562 0.009765625 l 1
370.369140625 23.4375 m 1
 589.595703125 23.4375 l 1
 589.814453125 170.359375 590.206054688 515.637695312 589.48046875 527.661132812 c 0
 587.135742188 547.29296875 580.82421875 566.944335938 570.745117188 585.662109375 c 0
 561.134765625 603.500976562 545.888671875 618.08984375 525.435546875 628.998046875 c 0
 504.629882812 640.115234375 477.72265625 645.740234375 445.466796875 645.740234375 c 2
 283.583007812 645.740234375 l 1
 283.583007812 780.850585938 l 1
 41.6552734375 780.850585938 l 1
 41.6552734375 23.427734375 l 1
 283.583007812 23.427734375 l 1
 283.583007812 536.385742188 l 1
 295.407226562 536.270507812 l 1
 295.407226562 536.270507812 319.615234375 536.041992188 320.883789062 536.041992188 c 0
 351.166015625 536.041992188 361.702148438 521.338867188 365.201171875 508.9921875 c 0
 365.611328125 507.494140625 366.021484375 505.711914062 366.375 503.680664062 c 0
 369.635742188 476.983398438 370.828125 396.431640625 370.828125 351.780273438 c 2
 370.369140625 23.4375 l 1
EndSplineSet
Validated: 524321
EndChar

StartChar: i
Encoding: 105 105 34
Width: 324
VWidth: 0
Flags: W
HStem: 0 23.4365<38.5938 282.553> 579.968 23.4375<38.5938 282.553> 646.998 23.4375<38.5938 282.553> 781.078 23.4365<38.5938 282.553>
VStem: 15.1562 23.4375<23.4365 579.968 670.436 781.078> 282.553 23.4473<23.4365 579.968 670.436 781.078>
LayerCount: 2
Fore
SplineSet
306 0 m 5
 15.15625 0 l 5
 15.15625 603.405273438 l 5
 306 603.405273438 l 5
 306 0 l 5
38.59375 23.4365234375 m 5
 282.552734375 23.4365234375 l 5
 282.552734375 579.967773438 l 5
 38.59375 579.967773438 l 5
 38.59375 23.4365234375 l 5
306 646.998046875 m 5
 15.15625 646.998046875 l 5
 15.15625 804.514648438 l 5
 306 804.514648438 l 5
 306 646.998046875 l 5
38.59375 670.435546875 m 5
 282.552734375 670.435546875 l 5
 282.552734375 781.078125 l 5
 38.59375 781.078125 l 5
 38.59375 670.435546875 l 5
EndSplineSet
Validated: 524289
EndChar

StartChar: j
Encoding: 106 106 35
Width: 455
VWidth: 0
Flags: W
HStem: -226.583 23.7998<49.0986 314.455> -79.1064 23.7988<49.1084 147.347> 572.021 23.79<175.799 406.228> 640.071 23.7988<175.799 406.228> 776.201 23.7988<175.799 406.228>
VStem: 25.3008 23.8076<-202.783 -79.1064> 152 23.7988<-45.1226 572.021 663.87 776.201> 406.248 23.7891<-103.662 572.021 663.87 776.201>
LayerCount: 2
Fore
SplineSet
241.198242188 -226.583007812 m 6
 25.30078125 -226.583007812 l 5
 25.30078125 -55.3076171875 l 5
 126.37890625 -55.3076171875 l 6
 144.10546875 -55.3076171875 146.403320312 -48.30859375 147.39453125 -45.3056640625 c 4
 148.614257812 -41.529296875 150.884765625 -29.5244140625 152 8.1279296875 c 6
 152 595.810546875 l 5
 430.037109375 595.810546875 l 5
 430.037109375 7.7470703125 l 6
 429.921875 4.6767578125 427.538085938 -57.0712890625 425.545898438 -73.3759765625 c 4
 422.485351562 -98.7392578125 414.541992188 -123.491210938 401.956054688 -146.899414062 c 4
 388.989257812 -171.071289062 368.642578125 -190.655273438 341.525390625 -205.100585938 c 4
 314.827148438 -219.344726562 281.063476562 -226.583007812 241.198242188 -226.583007812 c 6
49.0986328125 -202.783203125 m 5
 241.198242188 -202.783203125 l 6
 277.106445312 -202.783203125 307.11328125 -196.500976562 330.349609375 -184.094726562 c 4
 353.233398438 -171.900390625 370.28125 -155.567382812 380.979492188 -135.619140625 c 4
 392.173828125 -114.82421875 399.219726562 -92.9130859375 401.9375 -70.4677734375 c 4
 403.81640625 -55.1552734375 406.21875 7.5947265625 406.248046875 8.2236328125 c 6
 406.227539062 572.020507812 l 5
 175.798828125 572.020507812 l 5
 175.798828125 7.755859375 l 6
 174.530273438 -34.4453125 171.879882812 -46.935546875 170.000976562 -52.7041015625 c 4
 166.0546875 -64.755859375 155.2890625 -79.1064453125 126.37890625 -79.1064453125 c 6
 49.1083984375 -79.1064453125 l 5
 49.1083984375 -202.783203125 l 5
 49.0986328125 -202.783203125 l 5
430.037109375 640.071289062 m 5
 152 640.071289062 l 5
 152 800 l 5
 430.037109375 800 l 5
 430.037109375 640.071289062 l 5
175.798828125 663.870117188 m 5
 406.227539062 663.870117188 l 5
 406.227539062 776.201171875 l 5
 175.798828125 776.201171875 l 5
 175.798828125 663.870117188 l 5
EndSplineSet
Validated: 524293
EndChar

StartChar: k
Encoding: 107 107 36
Width: 644
VWidth: 0
Flags: W
HStem: 0 23.4551<44.7539 289.01 375.08 594.611> 647.742 23.4658<375.08 594.602> 782.012 23.4658<44.7539 288.999>
VStem: 21.2686 23.4854<23.4551 782.012> 288.999 23.4658<23.4551 254.943 412.707 782.012> 347.429 22.4551<23.4551 250.542 417.192 647.742> 594.726 23.4658<23.4551 280.042 388.284 647.742>
LayerCount: 2
Fore
SplineSet
618 0 m 5
 351.471679688 0 l 5
 352.024414062 94.1181640625 l 6
 352.024414062 150.211914062 350.470703125 221.161132812 347.84765625 242.681640625 c 4
 347.724609375 243.1953125 347.524414062 244.2734375 347.276367188 245.131835938 c 4
 345.150390625 248.46875 329.370117188 253.9140625 312.46484375 254.943359375 c 6
 312.46484375 0 l 5
 21.2685546875 0 l 5
 21.2685546875 805.477539062 l 5
 312.46484375 805.477539062 l 5
 312.46484375 412.70703125 l 6
 329.37890625 413.747070312 345.168945312 419.228515625 347.428710938 422.928710938 c 4
 347.515625 423.357421875 347.724609375 424.42578125 347.953125 425.646484375 c 4
 350.470703125 446.489257812 352.024414062 517.428710938 352.024414062 573.58984375 c 6
 351.471679688 671.208007812 l 5
 618 671.208007812 l 5
 618.133789062 627.642578125 l 6
 618.209960938 611.51953125 618.201171875 595.395507812 618.19140625 579.262695312 c 4
 618.172851562 551.716796875 618.143554688 523.236328125 618.5625 495.259765625 c 4
 619.154296875 454.717773438 619.916015625 404.268554688 596.155273438 360.036132812 c 4
 591.168945312 350.720703125 584.943359375 341.987304688 577.610351562 333.977539062 c 4
 584.952148438 325.96875 591.168945312 317.234375 596.155273438 307.928710938 c 4
 617.255859375 268.654296875 619.62109375 227.073242188 619.134765625 191.583984375 c 4
 618.438476562 138.626953125 618.2578125 84.7451171875 618.10546875 32.6474609375 c 6
 618 0 l 5
375.080078125 23.455078125 m 5
 594.611328125 23.455078125 l 5
 594.640625 32.7138671875 l 6
 594.801757812 84.87890625 594.963867188 138.818359375 595.669921875 191.888671875 c 4
 596.126953125 226.014648438 594.001953125 262.341796875 575.484375 296.8203125 c 4
 569.876953125 307.270507812 562.345703125 316.852539062 553.095703125 325.3203125 c 6
 543.637695312 333.967773438 l 5
 553.086914062 342.616210938 l 6
 562.35546875 351.1015625 569.876953125 360.6953125 575.484375 371.116210938 c 4
 594.8203125 407.12890625 595.813476562 446.8046875 595.09765625 494.907226562 c 4
 594.677734375 523.044921875 594.697265625 551.630859375 594.725585938 579.271484375 c 4
 594.735351562 595.357421875 594.744140625 611.453125 594.66796875 627.528320312 c 6
 594.6015625 647.7421875 l 5
 375.080078125 647.7421875 l 5
 375.490234375 573.65625 l 6
 375.490234375 528.87109375 374.307617188 448.206054688 371.142578125 422.146484375 c 4
 370.684570312 419.438476562 370.28515625 417.65625 369.883789062 416.20703125 c 4
 362.275390625 389.375 307.505859375 389.061523438 306.953125 389.061523438 c 4
 305.799804688 389.05078125 301.270507812 388.840820312 301.270507812 388.840820312 c 5
 288.989257812 388.26953125 l 5
 288.999023438 400.559570312 l 5
 288.999023438 782.01171875 l 5
 44.75390625 782.01171875 l 5
 44.75390625 23.455078125 l 5
 289.009765625 23.455078125 l 5
 289.009765625 279.352539062 l 5
 301.280273438 278.799804688 l 6
 301.298828125 278.799804688 305.818359375 278.58984375 306.962890625 278.580078125 c 4
 307.515625 278.580078125 362.265625 278.265625 369.875 251.482421875 c 4
 370.274414062 250.00390625 370.684570312 248.202148438 371.046875 246.180664062 c 4
 374.307617188 219.42578125 375.490234375 138.760742188 375.490234375 94.05078125 c 6
 375.080078125 23.455078125 l 5
EndSplineSet
Validated: 524321
EndChar

StartChar: l
Encoding: 108 108 37
Width: 317
VWidth: 0
Flags: W
HStem: 0 23.3027<34.1387 276.687> 781.212 23.3027<34.1387 276.687>
VStem: 10.8447 23.2939<23.3027 781.212> 276.687 23.3223<23.3027 781.212>
LayerCount: 2
Fore
SplineSet
300 0 m 5
 10.8447265625 0 l 5
 10.8447265625 804.514648438 l 5
 300.008789062 804.514648438 l 5
 300.008789062 0 l 5
 300 0 l 5
34.138671875 23.302734375 m 5
 276.686523438 23.302734375 l 5
 276.686523438 781.211914062 l 5
 34.138671875 781.211914062 l 5
 34.138671875 23.302734375 l 5
EndSplineSet
Validated: 524289
EndChar

StartChar: m
Encoding: 109 109 38
Width: 841
VWidth: 0
Flags: W
HStem: 0 23.8467<38.8271 285.628 386.841 542.86 644.073 801.693> 485.812 23.8369<309.475 357.588 571.461 614.949> 633.65 23.8555<38.8271 371.032 556.095 587.335 587.35 709.674>
VStem: 15 23.8271<23.8467 633.65> 285.628 23.8467<23.8467 485.812> 363.013 23.8281<23.8467 483.208> 542.86 23.8555<23.8467 475.301> 620.255 23.8184<23.8369 483.208> 801.693 23.8477<23.8369 534.26>
LayerCount: 2
Fore
SplineSet
825.541015625 0 m 1
 620.254882812 0 l 1
 620.254882812 363.7265625 l 2
 620.254882812 446.947265625 616.879882812 469.640625 614.885742188 475.771484375 c 0
 613.89453125 478.764648438 611.586914062 485.811523438 593.786132812 485.811523438 c 0
 574.506835938 485.811523438 572.3984375 478.40234375 571.607421875 475.618164062 c 0
 569.786132812 469.125976562 566.715820312 445.116210938 566.715820312 357.442382812 c 2
 566.715820312 0 l 1
 363.012695312 0 l 1
 363.012695312 363.7265625 l 2
 363.012695312 446.947265625 359.647460938 469.640625 357.634765625 475.771484375 c 0
 356.653320312 478.764648438 354.345703125 485.811523438 336.544921875 485.811523438 c 2
 309.474609375 485.811523438 l 1
 309.474609375 0 l 1
 15 0 l 1
 15 657.505859375 l 1
 347.270507812 657.10546875 l 2
 353.831054688 657.038085938 362.364257812 656.676757812 369.7734375 656.295898438 c 2
 371.032226562 656.162109375 l 2
 394.172851562 652.5 416.495117188 644.958007812 437.346679688 633.745117188 c 0
 446.786132812 628.682617188 455.654296875 622.360351562 463.806640625 614.89453125 c 0
 471.94921875 622.350585938 480.807617188 628.671875 490.255859375 633.754882812 c 0
 510.9375 644.872070312 533.077148438 652.385742188 556.094726562 656.0859375 c 2
 557.438476562 656.228515625 l 2
 567.83203125 656.71484375 587.349609375 657.10546875 587.349609375 657.10546875 c 1
 636.140625 657.487304688 l 2
 676.196289062 657.487304688 710.03515625 650.240234375 736.836914062 635.948242188 c 0
 764.01171875 621.4453125 784.397460938 601.8125 797.403320312 577.604492188 c 0
 810.046875 554.071289062 817.999023438 529.280273438 821.069335938 503.879882812 c 0
 824.063476562 478.994140625 825.541015625 431.500976562 825.541015625 358.692382812 c 2
 825.541015625 0 l 1
644.091796875 23.8369140625 m 1
 801.693359375 23.8369140625 l 1
 801.693359375 358.701171875 l 2
 801.693359375 429.545898438 800.245117188 477.420898438 797.393554688 501.029296875 c 0
 794.6953125 523.473632812 787.639648438 545.432617188 776.408203125 566.333007812 c 0
 765.662109375 586.329101562 748.565429688 602.680664062 725.606445312 614.942382812 c 0
 702.311523438 627.366210938 672.229492188 633.668945312 636.235351562 633.668945312 c 2
 587.68359375 633.288085938 l 2
 587.721679688 633.288085938 569.528320312 632.924804688 559.231445312 632.467773438 c 0
 539.084960938 629.149414062 519.680664062 622.532226562 501.536132812 612.787109375 c 0
 490.93359375 607.0859375 481.197265625 599.438476562 472.596679688 590.038085938 c 2
 463.806640625 580.42578125 l 1
 455.015625 590.028320312 l 2
 446.396484375 599.428710938 436.651367188 607.0859375 426.057617188 612.778320312 c 0
 407.750976562 622.618164062 388.185546875 629.263671875 367.915039062 632.543945312 c 0
 360.97265625 632.896484375 353.125976562 633.221679688 347.118164062 633.288085938 c 2
 38.8271484375 633.650390625 l 1
 38.8271484375 23.8466796875 l 1
 285.627929688 23.8466796875 l 1
 285.627929688 509.6484375 l 1
 336.53515625 509.6484375 l 2
 365.520507812 509.6484375 376.314453125 495.270507812 380.280273438 483.208007812 c 0
 383.09375 474.6171875 386.840820312 452.868164062 386.840820312 363.737304688 c 2
 386.840820312 23.8466796875 l 1
 542.860351562 23.8466796875 l 1
 542.860351562 357.442382812 l 2
 542.860351562 450.704101562 546.159179688 473.254882812 548.637695312 482.083007812 c 0
 552.213867188 494.668945312 562.921875 509.6484375 593.756835938 509.6484375 c 0
 622.734375 509.6484375 633.556640625 495.270507812 637.502929688 483.208007812 c 0
 640.315429688 474.6171875 644.073242188 452.868164062 644.073242188 363.737304688 c 2
 644.073242188 23.8369140625 l 1
 644.091796875 23.8369140625 l 1
EndSplineSet
Validated: 524289
EndChar

StartChar: n
Encoding: 110 110 39
Width: 637
VWidth: 0
Flags: W
HStem: 0.00878906 23.8379<36.3008 266.625 367.838 598.163> 485.831 23.8369<290.463 338.594> 633.679 23.8271<36.3008 505.803>
VStem: 12.4629 23.8379<23.8467 633.679> 266.625 23.8379<23.8467 485.831> 344.001 23.8467<23.8369 483.218> 598.163 23.8467<23.8369 534.256>
LayerCount: 2
Fore
SplineSet
622 0 m 1
 344.000976562 0 l 1
 344.000976562 363.737304688 l 2
 344.000976562 446.956054688 340.625976562 469.659179688 338.641601562 475.790039062 c 0
 337.650390625 478.784179688 335.342773438 485.831054688 317.541015625 485.831054688 c 2
 290.462890625 485.831054688 l 1
 290.462890625 0.0087890625 l 1
 12.462890625 0.0087890625 l 1
 12.462890625 657.505859375 l 1
 432.684570312 657.505859375 l 2
 472.625976562 657.505859375 506.465820312 650.258789062 533.287109375 635.966796875 c 0
 560.4609375 621.463867188 580.828125 601.841796875 593.87109375 577.61328125 c 0
 606.514648438 554.081054688 614.466796875 529.280273438 617.518554688 503.879882812 c 0
 620.493164062 479.346679688 622.009765625 430.5 622.009765625 358.701171875 c 2
 622.009765625 0 l 1
 622 0 l 1
367.837890625 23.8369140625 m 1
 598.163085938 23.8369140625 l 1
 598.163085938 358.701171875 l 2
 598.163085938 429.545898438 596.712890625 477.420898438 593.862304688 501.01953125 c 0
 591.163085938 523.46484375 584.088867188 545.432617188 572.857421875 566.333007812 c 0
 562.111328125 586.34765625 545.014648438 602.690429688 522.07421875 614.942382812 c 0
 498.7421875 627.375976562 468.66015625 633.678710938 432.684570312 633.678710938 c 2
 36.30078125 633.678710938 l 1
 36.30078125 23.8466796875 l 1
 266.625 23.8466796875 l 1
 266.625 509.66796875 l 1
 317.541015625 509.66796875 l 2
 346.517578125 509.66796875 357.33984375 495.280273438 361.287109375 483.217773438 c 0
 364.099609375 474.6171875 367.84765625 452.868164062 367.84765625 363.74609375 c 2
 367.84765625 23.8369140625 l 1
 367.837890625 23.8369140625 l 1
EndSplineSet
Validated: 524293
EndChar

StartChar: o
Encoding: 111 111 40
Width: 632
VWidth: 0
Flags: W
HStem: 0 23.8184<128.637 506.042> 147.715 23.8271<296.013 338.655> 485.326 23.8369<296.013 338.655> 633.002 23.8467<128.639 506.044>
VStem: 17.3574 23.6738<111.319 545.529> 266.779 23.8379<174.126 482.732> 344.06 23.8369<174.136 482.742> 593.664 23.6758<111.315 545.537>
LayerCount: 2
Fore
SplineSet
432.676757812 0 m 2
 202 0 l 2
 162.076171875 0 128.276367188 7.2373046875 101.51171875 21.5205078125 c 0
 74.365234375 35.994140625 54.0087890625 55.5986328125 40.994140625 79.806640625 c 0
 28.369140625 103.291015625 20.4169921875 128.073242188 17.357421875 153.483398438 c 0
 14.962890625 173.096679688 14.962890625 483.791015625 17.357421875 503.39453125 c 0
 20.4072265625 528.766601562 28.359375 553.557617188 40.994140625 577.041992188 c 0
 53.9990234375 601.250976562 74.365234375 620.864257812 101.51171875 635.328125 c 0
 128.276367188 649.612304688 162.0859375 656.848632812 202 656.848632812 c 2
 432.676757812 656.848632812 l 2
 472.58984375 656.848632812 506.400390625 649.612304688 533.18359375 635.328125 c 0
 560.33984375 620.8359375 580.686523438 601.231445312 593.692382812 577.032226562 c 0
 606.297851562 553.56640625 614.26953125 528.786132812 617.33984375 503.384765625 c 0
 619.703125 483.772460938 619.703125 173.10546875 617.33984375 153.483398438 c 0
 614.26953125 128.073242188 606.297851562 103.282226562 593.692382812 79.806640625 c 0
 580.696289062 55.6171875 560.33984375 36.0048828125 533.18359375 21.5205078125 c 0
 506.400390625 7.2373046875 472.580078125 0 432.676757812 0 c 2
202 633.001953125 m 1
 166.04296875 633.001953125 135.999023438 626.708984375 112.733398438 614.294921875 c 0
 89.8115234375 602.0703125 72.744140625 585.73828125 61.998046875 565.743164062 c 0
 50.7861328125 544.880859375 43.73046875 522.950195312 41.03125 500.514648438 c 0
 38.8671875 482.818359375 38.8671875 174.041015625 41.03125 156.333984375 c 0
 43.73046875 133.888671875 50.7861328125 111.939453125 61.998046875 91.078125 c 0
 72.744140625 71.08203125 89.8115234375 54.75 112.733398438 42.5263671875 c 0
 135.999023438 30.111328125 166.04296875 23.818359375 202 23.818359375 c 2
 432.676757812 23.818359375 l 2
 468.6328125 23.818359375 498.677734375 30.111328125 521.970703125 42.5263671875 c 0
 544.892578125 54.7587890625 561.951171875 71.0927734375 572.677734375 91.0673828125 c 0
 583.890625 111.930664062 590.946289062 133.870117188 593.6640625 156.32421875 c 0
 595.790039062 174.020507812 595.790039062 482.828125 593.6640625 500.514648438 c 0
 590.946289062 522.950195312 583.890625 544.889648438 572.677734375 565.743164062 c 0
 561.951171875 585.728515625 544.892578125 602.061523438 521.952148438 614.294921875 c 0
 498.677734375 626.708984375 468.6328125 633.001953125 432.676757812 633.001953125 c 2
 202 633.001953125 l 1
317.638671875 147.696289062 m 2
 317.32421875 147.71484375 l 2
 287.95703125 147.848632812 277.248046875 162.130859375 273.310546875 174.125976562 c 0
 270.5078125 182.698242188 266.779296875 204.399414062 266.779296875 293.484375 c 2
 266.779296875 363.375 l 2
 266.779296875 452.46875 270.5078125 474.16015625 273.310546875 482.732421875 c 0
 277.268554688 494.802734375 288.061523438 509.163085938 317.018554688 509.163085938 c 0
 346.596679688 509.163085938 357.389648438 494.793945312 361.356445312 482.7421875 c 0
 364.168945312 474.151367188 367.896484375 452.430664062 367.896484375 363.375 c 2
 367.896484375 293.484375 l 2
 367.896484375 204.438476562 364.168945312 182.7265625 361.356445312 174.135742188 c 0
 357.3984375 162.064453125 346.596679688 147.696289062 317.638671875 147.696289062 c 2
317.32421875 171.541992188 m 1
 318.048828125 171.5234375 l 2
 335.421875 171.533203125 337.728515625 178.549804688 338.701171875 181.553710938 c 0
 340.712890625 187.67578125 344.059570312 210.358398438 344.059570312 293.474609375 c 2
 344.059570312 363.365234375 l 2
 344.059570312 446.5 340.703125 469.18359375 338.701171875 475.3046875 c 0
 337.728515625 478.2890625 335.421875 485.31640625 317.638671875 485.31640625 c 2
 316.637695312 485.326171875 l 2
 299.264648438 485.31640625 296.95703125 478.298828125 295.965820312 475.294921875 c 0
 293.973632812 469.193359375 290.6171875 446.529296875 290.6171875 363.365234375 c 2
 290.6171875 293.474609375 l 2
 290.6171875 210.311523438 293.973632812 187.646484375 295.965820312 181.543945312 c 0
 296.95703125 178.559570312 299.264648438 171.533203125 317.029296875 171.533203125 c 2
 317.32421875 171.541992188 l 1
151.635742188 467.413085938 m 1026
58.9384765625 383.58984375 m 1026
EndSplineSet
Validated: 524321
EndChar

StartChar: p
Encoding: 112 112 41
Width: 659
VWidth: 0
Flags: W
HStem: -225 23.8369<33.8369 280.925> -25.0439 23.8369<304.762 521.524> 127.991 23.8467<304.762 348.359> 477.815 23.8477<304.762 348.349> 630.842 23.8369<33.8369 521.524>
VStem: 10 23.8369<-201.163 630.842> 280.925 23.8369<-201.163 -25.0439 151.838 477.815> 354.296 23.8369<155.079 474.574> 612.909 23.666<91.204 538.44>
LayerCount: 2
Fore
SplineSet
304.76171875 -225 m 5
 10 -225 l 5
 10 654.678710938 l 5
 445.676757812 654.678710938 l 6
 486.963867188 654.678710938 521.936523438 647.194335938 549.607421875 632.434570312 c 4
 577.650390625 617.473632812 598.693359375 597.211914062 612.127929688 572.220703125 c 4
 625.181640625 547.926757812 633.41015625 522.296875 636.575195312 496.046875 c 4
 638.8828125 477.024414062 641.124023438 400.592773438 641.208984375 397.341796875 c 6
 640.875 229.307617188 l 6
 640.265625 183.608398438 638.844726562 152.342773438 636.575195312 133.587890625 c 4
 633.41015625 107.34765625 625.181640625 81.71875 612.127929688 57.4228515625 c 4
 598.703125 32.4228515625 577.659179688 12.1513671875 549.607421875 -2.7998046875 c 4
 521.936523438 -17.5595703125 486.963867188 -25.0439453125 445.676757812 -25.0439453125 c 6
 304.76171875 -25.0439453125 l 5
 304.76171875 -225 l 5
33.8369140625 -201.163085938 m 5
 280.924804688 -201.163085938 l 5
 280.924804688 -1.20703125 l 5
 445.676757812 -1.20703125 l 6
 483.016601562 -1.20703125 514.213867188 5.3349609375 538.385742188 18.2255859375 c 4
 562.22265625 30.935546875 579.966796875 47.9169921875 591.141601562 68.7119140625 c 4
 602.783203125 90.375 610.116210938 113.173828125 612.909179688 136.458007812 c 4
 615.07421875 154.1171875 616.447265625 185.418945312 617.047851562 229.499023438 c 6
 617.381835938 397.026367188 l 6
 617.362304688 397.436523438 615.092773438 475.231445312 612.909179688 493.186523438 c 4
 610.116210938 516.469726562 602.783203125 539.268554688 591.141601562 560.931640625 c 4
 579.966796875 581.717773438 562.22265625 598.690429688 538.385742188 611.409179688 c 4
 514.213867188 624.310546875 483.016601562 630.841796875 445.676757812 630.841796875 c 6
 33.8369140625 630.841796875 l 5
 33.8369140625 -201.163085938 l 5
326.491210938 127.991210938 m 6
 280.924804688 128.000976562 l 5
 280.924804688 501.643554688 l 5
 326.491210938 501.663085938 l 6
 356.23046875 501.663085938 367.310546875 486.931640625 371.372070312 474.57421875 c 4
 374.280273438 465.70703125 378.1328125 443.26171875 378.1328125 351.040039062 c 6
 378.1328125 278.61328125 l 6
 378.1328125 186.391601562 374.280273438 163.946289062 371.372070312 155.079101562 c 4
 367.319335938 142.721679688 356.25 127.991210938 326.491210938 127.991210938 c 6
304.76171875 151.837890625 m 5
 326.491210938 151.828125 l 6
 345.208984375 151.828125 347.668945312 159.303710938 348.708007812 162.497070312 c 4
 350.795898438 168.8671875 354.295898438 192.408203125 354.295898438 278.61328125 c 6
 354.295898438 351.040039062 l 6
 354.295898438 437.245117188 350.795898438 460.787109375 348.708007812 467.147460938 c 4
 347.668945312 470.340820312 345.208984375 477.825195312 326.491210938 477.825195312 c 6
 304.76171875 477.815429688 l 5
 304.76171875 151.837890625 l 5
EndSplineSet
Validated: 524289
EndChar

StartChar: q
Encoding: 113 113 42
Width: 657
VWidth: 0
Flags: W
HStem: -224 23.8369<375.096 622.163> -24.0439 23.8369<134.482 351.259> 128.991 23.8369<307.651 351.259> 478.825 23.8379<307.655 351.259> 631.842 23.8369<134.482 622.163>
VStem: 19.4346 23.6562<92.2058 539.441> 277.868 23.8379<156.089 475.574> 351.259 23.8369<-200.163 -24.0439 152.838 478.815> 622.163 23.8369<-200.163 631.842>
LayerCount: 2
Fore
SplineSet
646 -224 m 1
 351.258789062 -224 l 1
 351.258789062 -24.0439453125 l 1
 210.33203125 -24.0439453125 l 2
 169.038085938 -24.0439453125 134.072265625 -16.5595703125 106.40234375 -1.7998046875 c 0
 78.3505859375 13.1513671875 57.3173828125 33.4228515625 43.8828125 58.4228515625 c 0
 30.8193359375 82.71875 22.5908203125 108.34765625 19.4345703125 134.606445312 c 0
 17.1552734375 153.342773438 15.7451171875 184.608398438 15.125 230.17578125 c 2
 14.791015625 397.970703125 l 2
 14.88671875 401.592773438 17.1279296875 478.024414062 19.4345703125 497.055664062 c 0
 22.5908203125 523.296875 30.8193359375 548.926757812 43.8828125 573.220703125 c 0
 57.3076171875 598.211914062 78.3505859375 618.473632812 106.40234375 633.434570312 c 0
 134.072265625 648.194335938 169.038085938 655.678710938 210.33203125 655.678710938 c 2
 646 655.678710938 l 1
 646 -224 l 1
375.095703125 -200.163085938 m 1
 622.163085938 -200.163085938 l 1
 622.163085938 631.841796875 l 1
 210.33203125 631.841796875 l 2
 172.994140625 631.841796875 141.795898438 625.299804688 117.616210938 612.409179688 c 0
 93.7783203125 599.690429688 76.0341796875 582.717773438 64.8779296875 561.931640625 c 0
 53.2255859375 540.268554688 45.89453125 517.469726562 43.0908203125 494.1953125 c 0
 40.9169921875 476.231445312 38.6474609375 398.436523438 38.6181640625 397.655273438 c 2
 38.9619140625 230.365234375 l 2
 39.5537109375 186.418945312 40.9462890625 155.106445312 43.0908203125 137.4765625 c 0
 45.89453125 114.173828125 53.2255859375 91.375 64.8779296875 69.7119140625 c 0
 76.0439453125 48.9169921875 93.7783203125 31.935546875 117.616210938 19.2255859375 c 0
 141.795898438 6.32421875 172.994140625 -0.20703125 210.33203125 -0.20703125 c 2
 375.095703125 -0.20703125 l 1
 375.095703125 -200.163085938 l 1
329.518554688 128.991210938 m 2
 299.760742188 128.991210938 288.690429688 143.721679688 284.638671875 156.088867188 c 0
 281.729492188 164.946289062 277.868164062 187.391601562 277.868164062 279.61328125 c 2
 277.868164062 352.040039062 l 2
 277.868164062 444.26171875 281.729492188 466.70703125 284.638671875 475.57421875 c 0
 288.690429688 487.931640625 299.76953125 502.663085938 329.518554688 502.663085938 c 2
 375.0859375 502.643554688 l 1
 375.095703125 129.000976562 l 1
 329.518554688 128.991210938 l 2
329.518554688 478.825195312 m 1
 310.791992188 478.825195312 308.333007812 471.340820312 307.29296875 468.147460938 c 0
 305.205078125 461.787109375 301.706054688 438.245117188 301.706054688 352.040039062 c 2
 301.706054688 279.61328125 l 2
 301.706054688 193.408203125 305.205078125 169.8671875 307.29296875 163.5078125 c 0
 308.333007812 160.303710938 310.791992188 152.828125 329.518554688 152.828125 c 2
 351.258789062 152.837890625 l 1
 351.258789062 478.815429688 l 1
 329.518554688 478.825195312 l 1
EndSplineSet
Validated: 524293
EndChar

StartChar: r
Encoding: 114 114 43
Width: 634
VWidth: 0
Flags: W
HStem: 0 23.8369<33.8379 264.163> 316.824 23.8574<365.376 595.682> 485.811 23.8477<288 336.114> 633.688 23.8086<33.8379 503.351>
VStem: 10.001 23.8369<23.8369 633.688> 264.163 23.8369<23.8369 485.811> 341.538 23.8379<340.682 483.218> 595.682 23.8467<340.682 534.28>
LayerCount: 2
Fore
SplineSet
288 0 m 1
 10.0009765625 0 l 1
 10.0009765625 657.49609375 l 1
 430.22265625 657.49609375 l 2
 470.18359375 657.49609375 504.032226562 650.25 530.825195312 635.95703125 c 0
 558.009765625 621.454101562 578.384765625 601.822265625 591.401367188 577.61328125 c 0
 604.034179688 554.081054688 611.995117188 529.291015625 615.056640625 503.889648438 c 0
 618.032226562 479.346679688 619.528320312 430.5 619.528320312 358.702148438 c 2
 619.528320312 316.82421875 l 1
 341.538085938 316.82421875 l 1
 341.538085938 363.727539062 l 2
 341.538085938 446.947265625 338.163085938 469.649414062 336.161132812 475.78125 c 0
 335.178710938 478.765625 332.87109375 485.810546875 315.059570312 485.810546875 c 2
 288 485.810546875 l 1
 288 0 l 1
33.837890625 23.8369140625 m 1
 264.163085938 23.8369140625 l 1
 264.163085938 509.658203125 l 1
 315.059570312 509.658203125 l 2
 344.055664062 509.658203125 354.859375 495.279296875 358.815429688 483.217773438 c 0
 361.638671875 474.6171875 365.375976562 452.868164062 365.375976562 363.74609375 c 2
 365.375976562 340.681640625 l 1
 595.681640625 340.681640625 l 1
 595.681640625 358.720703125 l 2
 595.681640625 429.565429688 594.241210938 477.440429688 591.380859375 501.047851562 c 0
 588.68359375 523.494140625 581.627929688 545.452148438 570.395507812 566.352539062 c 0
 559.649414062 586.34765625 542.553710938 602.69921875 519.602539062 614.9609375 c 0
 496.309570312 627.384765625 466.225585938 633.6875 430.22265625 633.6875 c 2
 33.837890625 633.6875 l 1
 33.837890625 23.8369140625 l 1
EndSplineSet
Validated: 524289
EndChar

StartChar: s
Encoding: 115 115 44
Width: 604
VWidth: 0
Flags: W
HStem: 0 23.8369<73.8271 479.559> 146.913 23.8281<73.8271 352.954> 247.191 23.8281<132.397 325.934 326.044 352.941> 387.098 23.8555<257.896 477.086> 493.563 23.8184<257.896 493.962> 633.66 23.8555<132.487 493.962>
VStem: 50 23.8271<23.8369 146.913> 220.902 23.8369<423.688 480.542> 364.355 23.8271<182.094 236.726> 493.962 23.8389<518.021 633.66>
LayerCount: 2
Fore
SplineSet
409.807617188 0 m 2
 50 0 l 1
 50 170.72265625 l 1
 61.8984375 170.741210938 l 1
 61.8984375 170.741210938 324.661132812 171.112304688 326.043945312 171.112304688 c 0
 347.1640625 171.112304688 364.35546875 188.294921875 364.35546875 209.4140625 c 0
 364.35546875 230.53515625 347.1640625 247.716796875 326.043945312 247.716796875 c 1
 326.1015625 247.716796875 211.64453125 247.19140625 202.262695312 247.19140625 c 0
 163.37890625 247.19140625 130.655273438 254.706054688 104.987304688 269.512695312 c 0
 79.291015625 284.330078125 60.05859375 304.295898438 47.86328125 328.88671875 c 0
 25.76171875 373.405273438 16.3505859375 432.81640625 22.681640625 487.814453125 c 0
 23.958984375 499.237304688 25.943359375 510.478515625 28.57421875 521.196289062 c 0
 33.5234375 541.524414062 40.1875 560.421875 47.873046875 575.840820312 c 0
 60.05859375 600.40234375 79.291015625 620.377929688 104.997070312 635.1953125 c 0
 130.625976562 650.002929688 163.359375 657.515625 202.262695312 657.515625 c 2
 517.80078125 657.515625 l 1
 517.80078125 494.279296875 l 1
 286.20703125 493.563476562 l 2
 263.323242188 493.563476562 244.739257812 474.979492188 244.739257812 452.125 c 0
 244.739257812 429.26953125 263.323242188 410.685546875 286.168945312 410.685546875 c 2
 311.064453125 410.752929688 l 2
 341.30859375 410.829101562 388.8125 410.953125 393.41796875 410.953125 c 0
 429.192382812 410.953125 470.421875 409.1796875 507.073242188 388.03125 c 0
 532.75 373.213867188 551.9921875 353.249023438 564.20703125 328.658203125 c 0
 571.862304688 313.258789062 578.546875 294.3515625 583.49609375 273.995117188 c 0
 586.069335938 263.458984375 588.0625 252.245117188 589.397460938 240.650390625 c 0
 595.708984375 185.596679688 586.2890625 126.185546875 564.196289062 81.7138671875 c 0
 551.982421875 57.1328125 532.760742188 37.158203125 507.063476562 22.3408203125 c 0
 481.405273438 7.5234375 448.69140625 0 409.807617188 0 c 2
73.8369140625 23.8369140625 m 1
 409.807617188 23.8369140625 l 2
 444.448242188 23.8369140625 473.166992188 30.2734375 495.173828125 42.9736328125 c 0
 516.72265625 55.4072265625 532.76953125 71.998046875 542.8671875 92.2978515625 c 0
 562.9765625 132.810546875 571.528320312 187.24609375 565.731445312 237.895507812 c 0
 564.501953125 248.498046875 562.680664062 258.748046875 560.353515625 268.330078125 c 0
 555.805664062 286.990234375 549.760742188 304.181640625 542.8671875 318.02734375 c 0
 532.76953125 338.3359375 516.72265625 354.936523438 495.173828125 367.359375 c 0
 463.603515625 385.571289062 426.102539062 387.09765625 393.41796875 387.09765625 c 0
 388.83984375 387.09765625 341.34765625 386.97265625 311.140625 386.896484375 c 2
 286.168945312 386.830078125 l 2
 250.174804688 386.830078125 220.90234375 416.111328125 220.90234375 452.10546875 c 0
 220.90234375 488.099609375 250.174804688 517.381835938 286.168945312 517.381835938 c 2
 493.961914062 518.020507812 l 1
 493.961914062 633.66015625 l 1
 202.262695312 633.66015625 l 2
 167.603515625 633.66015625 138.893554688 627.223632812 116.905273438 614.532226562 c 0
 95.328125 602.08984375 79.291015625 585.499023438 69.2216796875 565.208984375 c 0
 62.30859375 551.344726562 56.2734375 534.163085938 51.7353515625 515.5234375 c 0
 49.3515625 505.787109375 47.548828125 495.538085938 46.3759765625 485.096679688 c 0
 40.5400390625 434.45703125 49.0751953125 380.032226562 69.2216796875 339.469726562 c 0
 79.291015625 319.1796875 95.328125 302.58984375 116.896484375 290.15625 c 0
 138.90234375 277.455078125 167.622070312 271.01953125 202.262695312 271.01953125 c 0
 211.64453125 271.01953125 325.986328125 271.54296875 325.986328125 271.54296875 c 2
 360.3125 271.54296875 388.182617188 243.673828125 388.182617188 209.404296875 c 0
 388.182617188 175.13671875 360.302734375 147.265625 326.03515625 147.265625 c 0
 324.642578125 147.265625 125.095703125 146.989257812 73.8271484375 146.913085938 c 1
 73.8271484375 23.8369140625 l 1
 73.8369140625 23.8369140625 l 1
EndSplineSet
Validated: 524321
EndChar

StartChar: t
Encoding: 116 116 45
Width: 390
VWidth: 0
Flags: W
HStem: 0 23.4277<117.389 352.572> 133.164 23.4365<288.652 352.572> 512.834 23.4365<284.503 352.572> 647.122 23.4473<284.359 352.572> 781.078 23.4463<41.9453 261.237>
VStem: 18.7275 23.3223<98.9385 781.078> 260.98 23.5225<159.06 512.834 670.569 781.078> 352.572 23.4277<23.4277 132.982 536.271 647.122>
LayerCount: 2
Fore
SplineSet
376 0 m 5
 186.112304688 0 l 6
 149.956054688 0 119.330078125 6.5595703125 95.07421875 19.5087890625 c 4
 70.46484375 32.6279296875 51.9853515625 50.4384765625 40.15234375 72.4453125 c 4
 28.69140625 93.7470703125 21.4833984375 116.209960938 18.7275390625 139.189453125 c 4
 17.7744140625 147.046875 18.328125 641.467773438 18.52734375 792.825195312 c 6
 18.537109375 804.524414062 l 5
 284.732421875 804.524414062 l 5
 284.359375 670.569335938 l 5
 376 670.569335938 l 5
 376 512.833984375 l 5
 284.502929688 512.833984375 l 6
 284.598632812 501.143554688 284.703125 484.362304688 284.845703125 464.40625 c 4
 285.447265625 372.995117188 286.706054688 182.79296875 288.375 169.024414062 c 4
 288.498046875 168.48046875 288.717773438 167.413085938 288.956054688 166.555664062 c 4
 289.71875 163.875 291.788085938 156.600585938 310.743164062 156.600585938 c 4
 311.90625 156.600585938 364.338867188 156.380859375 364.338867188 156.380859375 c 5
 376 156.323242188 l 5
 376 0 l 5
41.9453125 781.078125 m 5
 41.6689453125 558.6484375 41.353515625 154.198242188 42.0498046875 141.478515625 c 4
 44.4150390625 121.893554688 50.7265625 102.243164062 60.8046875 83.53515625 c 4
 70.4072265625 65.67578125 85.6533203125 51.09765625 106.115234375 40.1796875 c 4
 126.939453125 29.0615234375 153.856445312 23.427734375 186.123046875 23.427734375 c 6
 352.572265625 23.427734375 l 5
 352.572265625 132.982421875 l 6
 337.09765625 133.048828125 311.639648438 133.1640625 310.752929688 133.1640625 c 4
 280.44140625 133.1640625 269.904296875 147.876953125 266.396484375 160.223632812 c 4
 265.986328125 161.721679688 265.595703125 163.512695312 265.233398438 165.534179688 c 4
 263.440429688 180.141601562 262.325195312 327.361328125 261.428710938 464.25390625 c 4
 261.228515625 492.49609375 261.084960938 514.377929688 260.98046875 524.4375 c 6
 260.866210938 536.270507812 l 5
 352.572265625 536.270507812 l 5
 352.572265625 647.122070312 l 5
 260.856445312 647.122070312 l 5
 261.237304688 781.078125 l 5
 41.9453125 781.078125 l 5
EndSplineSet
Validated: 524321
EndChar

StartChar: u
Encoding: 117 117 46
Width: 629
VWidth: 0
Flags: W
HStem: 0 23.8271<125.651 595.163> 147.848 23.8379<292.869 340.991> 633.659 23.8369<33.2998 263.616 364.828 595.163>
VStem: 9.46289 23.8369<123.241 633.659> 263.616 23.8457<174.297 633.659> 340.991 23.8369<171.686 633.659> 595.163 23.8369<23.8271 633.659>
LayerCount: 2
Fore
SplineSet
619 0 m 5
 198.778320312 0 l 6
 158.827148438 0 124.978515625 7.24609375 98.1748046875 21.529296875 c 4
 70.9814453125 36.0419921875 50.6162109375 55.673828125 37.591796875 79.892578125 c 4
 24.9580078125 103.40625 16.99609375 128.205078125 13.9345703125 153.616210938 c 4
 10.9609375 178.158203125 9.462890625 227.005859375 9.462890625 298.8046875 c 6
 9.462890625 657.49609375 l 5
 287.461914062 657.49609375 l 5
 287.461914062 293.779296875 l 6
 287.461914062 210.55859375 290.828125 187.85546875 292.821289062 181.724609375 c 4
 293.8125 178.73046875 296.120117188 171.685546875 313.921875 171.685546875 c 6
 340.991210938 171.685546875 l 5
 340.991210938 657.49609375 l 5
 619 657.49609375 l 5
 619 0 l 5
33.2998046875 633.659179688 m 5
 33.2998046875 298.8046875 l 6
 33.2998046875 227.959960938 34.75 180.084960938 37.6103515625 156.4765625 c 4
 40.3076171875 134.03125 47.3740234375 112.0625 58.5966796875 91.1728515625 c 4
 69.3515625 71.16796875 86.4384765625 54.8154296875 109.388671875 42.5537109375 c 4
 132.702148438 30.1298828125 162.784179688 23.8271484375 198.778320312 23.8271484375 c 6
 595.163085938 23.8271484375 l 5
 595.163085938 633.659179688 l 5
 364.828125 633.659179688 l 5
 364.828125 147.84765625 l 5
 313.921875 147.84765625 l 6
 284.935546875 147.84765625 274.131835938 162.235351562 270.17578125 174.296875 c 4
 267.352539062 182.897460938 263.616210938 204.646484375 263.616210938 293.768554688 c 6
 263.616210938 633.659179688 l 5
 33.2998046875 633.659179688 l 5
EndSplineSet
Validated: 524289
EndChar

StartChar: v
Encoding: 118 118 47
Width: 636
VWidth: 0
Flags: W
HStem: 0 23.8369<215.252 416.028> 633.659 23.8369<38.7227 239.557 391.856 592.366>
LayerCount: 2
Fore
SplineSet
433.943359375 0 m 5
 197.3359375 0 l 5
 7 657.49609375 l 5
 257.5390625 657.49609375 l 5
 315.701171875 453.70703125 l 5
 373.865234375 657.49609375 l 5
 624.060546875 657.49609375 l 5
 433.943359375 0 l 5
215.251953125 23.8369140625 m 5
 416.028320312 23.8369140625 l 5
 592.366210938 633.659179688 l 5
 391.856445312 633.659179688 l 5
 315.7109375 366.853515625 l 5
 239.556640625 633.659179688 l 5
 38.72265625 633.659179688 l 5
 215.251953125 23.8369140625 l 5
EndSplineSet
Validated: 524289
EndChar

StartChar: w
Encoding: 119 119 48
Width: 914
VWidth: 0
Flags: W
HStem: 0 23.8369<176.806 384.704 534.965 742.624> 633.793 23.8369<49.2295 251.56 406.587 519.594 667.881 870.211>
LayerCount: 2
Fore
SplineSet
762 0 m 1
 516.009765625 0 l 1
 462.575195312 231.143554688 l 1
 403.19140625 0 l 1
 157.440429688 0 l 1
 19.890625 657.629882812 l 1
 271.258789062 657.6484375 l 1
 320.514648438 400.72265625 l 1
 388.212890625 657.36328125 l 1
 538.377929688 657.36328125 l 1
 599.439453125 403.458984375 l 1
 648.171875 657.6484375 l 1
 899.540039062 657.629882812 l 1
 762 0 l 1
534.96484375 23.8369140625 m 1
 742.624023438 23.8369140625 l 1
 870.2109375 633.79296875 l 1
 667.880859375 633.811523438 l 1
 602.0703125 290.584960938 l 1
 519.59375 633.525390625 l 1
 406.586914062 633.525390625 l 1
 316.844726562 293.321289062 l 1
 251.559570312 633.811523438 l 1
 49.2294921875 633.79296875 l 1
 176.805664062 23.8369140625 l 1
 384.704101562 23.8369140625 l 1
 463.805664062 331.708007812 l 1
 534.96484375 23.8369140625 l 1
EndSplineSet
Validated: 524289
EndChar

StartChar: x
Encoding: 120 120 49
Width: 658
VWidth: 0
Flags: W
HStem: 0 23.9707<43.0615 248.786 401.803 607.565> 633.917 23.9707<43.0615 248.786 401.803 607.565>
LayerCount: 2
Fore
SplineSet
644.569335938 0 m 5
 386.432617188 0 l 5
 325.294921875 133.288085938 l 5
 264.15625 0 l 5
 6 0 l 5
 153.895507812 328.943359375 l 5
 6 657.887695312 l 5
 264.15625 657.887695312 l 5
 325.294921875 524.599609375 l 5
 386.432617188 657.887695312 l 5
 644.569335938 657.887695312 l 5
 497.1796875 328.943359375 l 5
 644.569335938 0 l 5
401.802734375 23.9609375 m 5
 607.565429688 23.9609375 l 5
 470.920898438 328.943359375 l 5
 607.565429688 633.916992188 l 5
 401.802734375 633.916992188 l 5
 325.294921875 467.11328125 l 5
 248.786132812 633.916992188 l 5
 43.0615234375 633.916992188 l 5
 180.182617188 328.943359375 l 5
 43.0615234375 23.970703125 l 5
 248.786132812 23.970703125 l 5
 325.294921875 190.763671875 l 5
 401.802734375 23.9609375 l 5
EndSplineSet
Validated: 8912897
EndChar

StartChar: y
Encoding: 121 121 50
Width: 659
VWidth: 0
Flags: W
HStem: -225 23.8379<69.6406 517.228> -77.3047 23.8369<69.6406 349.824> -2.19824 23.8281<139.806 354.058> 133.196 23.8467<307.422 355.001> 630.842 23.8467<47.8916 278.282 378.828 609.153>
VStem: 28.5176 23.6553<109.095 630.842> 45.8037 23.8369<-201.162 -77.3047> 278.321 23.8467<159.627 630.842> 355.001 23.8271<-43.2749 -2.19824 157.158 630.842> 609.163 23.8369<-101.901 630.842>
LayerCount: 2
Fore
SplineSet
443.836914062 -225 m 6xfdc0
 45.8037109375 -225 l 5
 45.8037109375 -53.4677734375 l 5xfbc0
 328.828125 -53.4677734375 l 6
 346.58203125 -53.4677734375 348.889648438 -46.44921875 349.87109375 -43.4365234375 c 4
 350.958007812 -40.08984375 352.845703125 -30.3544921875 354.057617188 -2.1982421875 c 6
 213.178710938 -2.1982421875 l 6
 173.256835938 -2.1982421875 139.446289062 5.0380859375 112.671875 19.322265625 c 4
 85.5166015625 33.8056640625 65.1591796875 53.4091796875 52.154296875 77.6083984375 c 4
 39.529296875 101.0546875 31.5771484375 125.845703125 28.517578125 151.284179688 c 4
 25.5234375 175.780273438 24.0732421875 623.680664062 24.0166015625 642.731445312 c 6
 23.978515625 654.688476562 l 5
 302.12109375 654.688476562 l 5
 302.16796875 248.188476562 l 6
 302.8828125 189.21484375 305.733398438 172.060546875 307.374023438 167.092773438 c 4
 308.366210938 164.071289062 310.672851562 157.04296875 328.426757812 157.04296875 c 4
 329.23828125 157.04296875 344.016601562 157.110351562 355.000976562 157.158203125 c 6
 355.000976562 654.678710938 l 5
 633 654.678710938 l 5
 633 9.7099609375 l 6
 632.895507812 6.630859375 630.510742188 -55.2314453125 628.518554688 -71.544921875 c 4
 625.438476562 -96.974609375 617.486328125 -121.755859375 604.881835938 -145.192382812 c 4
 591.875976562 -169.40234375 571.508789062 -189.014648438 544.364257812 -203.48828125 c 4
 517.58984375 -217.763671875 483.76953125 -225 443.836914062 -225 c 6xfdc0
69.640625 -201.162109375 m 5
 443.846679688 -201.162109375 l 6
 479.821289062 -201.162109375 509.866210938 -194.869140625 533.140625 -182.455078125 c 4
 556.0625 -170.232421875 573.140625 -153.888671875 583.875976562 -133.89453125 c 4
 595.069335938 -113.080078125 602.125976562 -91.1396484375 604.852539062 -68.65625 c 4
 606.721679688 -53.3046875 609.143554688 9.548828125 609.163085938 10.1875 c 6
 609.153320312 630.841796875 l 5
 378.828125 630.841796875 l 5
 378.828125 133.424804688 l 5
 366.966796875 133.369140625 l 5
 366.966796875 133.369140625 329.723632812 133.196289062 328.41796875 133.196289062 c 4
 299.459960938 133.196289062 288.67578125 147.575195312 284.719726562 159.626953125 c 4
 282.345703125 166.826171875 279.102539062 183.836914062 278.321289062 248.025390625 c 6
 278.282226562 630.841796875 l 5
 47.8916015625 630.841796875 l 5
 48.3486328125 493.654296875 49.8935546875 172.776367188 52.1728515625 154.145507812 c 4xfdc0
 54.880859375 131.670898438 61.9365234375 109.721679688 73.1494140625 88.8974609375 c 4
 83.8857421875 68.9033203125 100.962890625 52.5703125 123.893554688 40.3359375 c 4
 147.168945312 27.9228515625 177.212890625 21.6298828125 213.178710938 21.6298828125 c 6
 378.694335938 21.6298828125 l 5
 378.323242188 9.3486328125 l 6
 377.055664062 -32.5673828125 374.4140625 -45.095703125 372.526367188 -50.8544921875 c 4
 368.568359375 -62.935546875 357.78515625 -77.3046875 328.828125 -77.3046875 c 6
 69.640625 -77.3046875 l 5
 69.640625 -201.162109375 l 5
EndSplineSet
Validated: 524289
EndChar

StartChar: z
Encoding: 122 122 51
Width: 644
VWidth: 0
Flags: W
HStem: 0 23.8389<51.3115 603.163> 149.88 23.8369<407.907 603.163> 480.749 23.8379<41.8535 244.231> 630.628 23.8281<41.8535 596.308>
VStem: 18.0166 23.8369<504.587 630.628> 603.163 23.8457<23.8389 149.88>
LayerCount: 2
Fore
SplineSet
627 0 m 5
 13.419921875 0 l 5
 244.231445312 480.749023438 l 5
 18.0166015625 480.749023438 l 5
 18.0166015625 654.456054688 l 5
 633.85546875 654.340820312 l 5
 407.907226562 173.716796875 l 5
 627.008789062 173.716796875 l 5
 627.008789062 0 l 5
 627 0 l 5
51.3115234375 23.8388671875 m 5
 603.163085938 23.8388671875 l 5
 603.163085938 149.879882812 l 5
 370.338867188 149.879882812 l 5
 596.307617188 630.513671875 l 5
 41.853515625 630.627929688 l 5
 41.853515625 504.586914062 l 5
 282.123046875 504.586914062 l 5
 51.3115234375 23.8388671875 l 5
EndSplineSet
Validated: 524289
EndChar

StartChar: zero
Encoding: 48 48 52
Width: 658
VWidth: 0
Flags: W
HStem: 0 23.1973<136.924 518.047> 150.45 23.208<305.726 349.234> 630.532 23.1602<326.307 349.234> 780.936 23.2266<136.917 518.041>
VStem: 17.873 23.207<125.962 678.201> 276.525 23.1895<469.249 627.138> 355.265 23.1982<176.995 334.874 590.267 627.138> 613.908 23.0928<125.974 678.202>
LayerCount: 2
Fore
SplineSet
444.96875 0 m 2
 210 0 l 2
 169.419921875 0 135.06640625 7.3515625 107.881835938 21.8623046875 c 0
 80.3173828125 36.56640625 59.6455078125 56.4658203125 46.4677734375 81.0087890625 c 0
 33.634765625 104.892578125 25.548828125 130.075195312 22.44921875 155.866210938 c 0
 19.845703125 177.3203125 18.33984375 217.013671875 17.9873046875 273.956054688 c 1
 17.9111328125 273.956054688 l 1
 17.873046875 303.551757812 l 1
 17.9677734375 530.196289062 l 2
 18.3203125 587.138671875 19.8271484375 626.841796875 22.4296875 648.3046875 c 0
 25.529296875 674.086914062 33.6142578125 699.268554688 46.44921875 723.14453125 c 0
 59.6455078125 747.715820312 80.3173828125 767.614257812 107.873046875 782.318359375 c 0
 135.056640625 796.810546875 169.419921875 804.162109375 209.991210938 804.162109375 c 2
 444.96875 804.162109375 l 2
 485.540039062 804.162109375 519.904296875 796.810546875 547.077148438 782.30859375 c 0
 574.65234375 767.614257812 595.315429688 747.715820312 608.500976562 723.14453125 c 0
 621.3359375 699.278320312 629.421875 674.086914062 632.529296875 648.295898438 c 0
 635.131835938 626.841796875 636.638671875 587.138671875 637.000976562 530.196289062 c 1
 637.068359375 530.196289062 l 1
 637.095703125 500.62890625 l 1
 637.000976562 273.965820312 l 2
 636.638671875 217.0234375 635.141601562 177.329101562 632.529296875 155.866210938 c 0
 629.430664062 130.09375 621.3359375 104.903320312 608.500976562 81.017578125 c 0
 595.315429688 56.4755859375 574.65234375 36.5751953125 547.077148438 21.873046875 c 0
 519.913085938 7.3515625 485.548828125 0 444.96875 0 c 2
41.0712890625 290.95703125 m 1
 41.099609375 285.588867188 l 2
 41.318359375 223.344726562 42.7880859375 180.637695312 45.45703125 158.651367188 c 0
 48.2216796875 135.748046875 55.4296875 113.3125 66.890625 91.9921875 c 0
 77.8759765625 71.5400390625 95.333984375 54.84375 118.798828125 42.3154296875 c 0
 142.58984375 29.6240234375 173.272460938 23.197265625 210 23.197265625 c 2
 444.977539062 23.197265625 l 2
 481.715820312 23.197265625 512.389648438 29.6240234375 536.178710938 42.3154296875 c 0
 559.64453125 54.8349609375 577.103515625 71.548828125 588.086914062 91.9921875 c 0
 599.5390625 113.3125 606.747070312 135.748046875 609.502929688 158.641601562 c 0
 612.172851562 180.647460938 613.640625 223.344726562 613.869140625 285.588867188 c 2
 613.908203125 303.54296875 l 1
 613.869140625 518.543945312 l 2
 613.640625 580.788085938 612.172851562 623.504882812 609.512695312 645.4921875 c 0
 606.747070312 668.4140625 599.5390625 690.831054688 588.086914062 712.141601562 c 0
 577.09375 732.602539062 559.625976562 749.317382812 536.178710938 761.817382812 c 0
 512.389648438 774.499023438 481.697265625 780.935546875 444.977539062 780.935546875 c 2
 210 780.935546875 l 2
 173.272460938 780.935546875 142.58984375 774.499023438 118.798828125 761.817382812 c 0
 95.353515625 749.317382812 77.8857421875 732.602539062 66.890625 712.141601562 c 0
 55.4296875 690.831054688 48.2216796875 668.4140625 45.466796875 645.501953125 c 0
 42.796875 623.495117188 41.3291015625 580.779296875 41.1083984375 518.543945312 c 2
 41.080078125 500.619140625 l 1
 41.080078125 290.95703125 l 1
 41.0712890625 290.95703125 l 1
327.794921875 150.450195312 m 2
 327.166015625 150.450195312 l 2
 297.98828125 150.450195312 287.137695312 164.88671875 283.162109375 176.995117188 c 0
 281.0546875 183.421875 279.567382812 194.25390625 278.489257812 211.092773438 c 2
 278.318359375 213.84765625 l 1
 378.462890625 448.1484375 l 1
 378.462890625 298.403320312 l 2
 378.462890625 207.754882812 374.66796875 185.701171875 371.806640625 176.995117188 c 0
 367.821289062 164.88671875 356.970703125 150.450195312 327.794921875 150.450195312 c 2
327.489257812 173.658203125 m 1
 328.662109375 173.6015625 l 2
 346.30078125 173.639648438 348.723632812 181.057617188 349.762695312 184.212890625 c 0
 351.822265625 190.477539062 355.264648438 213.627929688 355.264648438 298.403320312 c 2
 355.264648438 334.874023438 l 1
 301.8125 209.833984375 l 2
 303.00390625 192.9765625 304.423828125 186.568359375 305.196289062 184.212890625 c 0
 306.2265625 181.057617188 308.66796875 173.639648438 327.15625 173.639648438 c 2
 327.489257812 173.658203125 l 1
276.525390625 355.984375 m 1
 276.525390625 505.729492188 l 2
 276.525390625 596.387695312 280.310546875 618.432617188 283.162109375 627.137695312 c 0
 287.137695312 639.256835938 297.998046875 653.692382812 327.166015625 653.692382812 c 2
 327.794921875 653.692382812 l 2
 356.970703125 653.692382812 367.821289062 639.247070312 371.797851562 627.137695312 c 0
 373.904296875 620.701171875 375.392578125 609.860351562 376.469726562 593.03125 c 2
 376.661132812 590.266601562 l 1
 276.525390625 355.984375 l 1
326.306640625 630.532226562 m 1
 327.166015625 630.493164062 l 2
 308.676757812 630.493164062 306.236328125 623.075195312 305.206054688 619.91015625 c 0
 303.15625 613.655273438 299.71484375 590.504882812 299.71484375 505.720703125 c 2
 299.71484375 469.249023438 l 1
 353.147460938 594.290039062 l 2
 351.965820312 611.137695312 350.53515625 617.564453125 349.762695312 619.91015625 c 0
 348.732421875 623.084960938 346.30078125 630.493164062 327.794921875 630.493164062 c 2
 326.306640625 630.532226562 l 1
EndSplineSet
Validated: 524289
EndChar

StartChar: one
Encoding: 49 49 53
Width: 535
VWidth: 0
Flags: W
HStem: -0.512695 23.2461<37.2891 498.262> 155.277 23.2373<37.2891 123.552 412 498.262> 622.992 23.2471<37.2891 123.552> 778.755 23.2451<37.2891 388.765>
VStem: 14.0527 23.2363<22.7334 155.277 646.239 778.755> 123.552 23.2451<178.515 622.992> 388.765 23.2354<178.515 778.755> 498.262 23.2471<22.7334 155.269>
LayerCount: 2
Fore
SplineSet
521.508789062 -0.5126953125 m 1
 14.052734375 -0.5126953125 l 1
 14.052734375 178.514648438 l 1
 123.551757812 178.514648438 l 1
 123.551757812 622.9921875 l 1
 14.052734375 622.9921875 l 1
 14.052734375 802 l 1
 412 802 l 1
 412 178.514648438 l 1
 521.508789062 178.514648438 l 1
 521.508789062 -0.5126953125 l 1
37.2890625 22.7333984375 m 1
 498.26171875 22.7333984375 l 1
 498.26171875 155.268554688 l 1
 388.764648438 155.268554688 l 1
 388.764648438 778.754882812 l 1
 37.2890625 778.754882812 l 1
 37.2890625 646.239257812 l 1
 146.796875 646.239257812 l 1
 146.796875 155.27734375 l 1
 37.2890625 155.27734375 l 1
 37.2890625 22.7333984375 l 1
EndSplineSet
Validated: 524289
EndChar

StartChar: two
Encoding: 50 50 54
Width: 668
VWidth: 0
Flags: W
HStem: 0 23.2549<46.2363 631.44> 155.866 23.2559<307.969 631.44> 267.129 23.2744<330.613 518.042> 461.23 23.2461<175.453 319.281 319.286 351.364> 549.305 23.2637<63.6758 288.46> 632.314 23.2842<316.223 359.133> 781.47 23.2451<156.605 537.744>
VStem: 22.9912 23.2451<23.2549 321.582> 40.2197 23.4561<572.568 681.856> 284.847 23.1221<179.122 244.691 572.568 622.36> 374.036 23.2656<506.222 629.489> 631.44 23.2646<23.2549 155.866 429.272 679.647>
LayerCount: 2
Fore
SplineSet
654.705078125 0 m 1xfef0
 23 0 l 1
 22.9912109375 11.61328125 l 2xff70
 22.98046875 21.3203125 22.6845703125 249.451171875 24.4775390625 267.84375 c 0
 25.8125 281.754882812 27.9482421875 295.657226562 30.828125 309.158203125 c 0
 36.1669921875 334.159179688 43.5380859375 357.643554688 52.1484375 377.06640625 c 0
 66.1171875 408.616210938 88.255859375 434.303710938 117.91015625 453.440429688 c 0
 159.787109375 480.443359375 250.778320312 484.4765625 301.28515625 484.4765625 c 0
 312.48828125 484.4765625 319.286132812 484.248046875 319.286132812 484.248046875 c 2
 349.473632812 484.447265625 374.2265625 509.524414062 374.036132812 540.151367188 c 0
 373.043945312 575.249023438 370.936523438 615.5625 369.145507812 621.81640625 c 0
 368.133789062 624.877929688 365.75 632.171875 347.491210938 632.171875 c 2
 335.858398438 632.314453125 l 2
 319.305664062 632.104492188 317.103515625 625.440429688 316.178710938 622.560546875 c 0
 314.814453125 618.44140625 312.403320312 604.911132812 311.401367188 560.669921875 c 2
 311.153320312 549.3046875 l 1
 40.0380859375 549.3046875 l 1
 40.2197265625 561.107421875 l 2
 40.8486328125 602.61328125 42.2314453125 632.49609375 44.3486328125 649.963867188 c 0
 47.4375 675.57421875 55.4658203125 700.575195312 68.21484375 724.26953125 c 0
 81.2958984375 748.650390625 101.814453125 768.40625 129.19921875 783.013671875 c 0
 156.211914062 797.412109375 190.327148438 804.71484375 230.592773438 804.71484375 c 2
 463.749023438 804.71484375 l 2
 504.025390625 804.71484375 538.141601562 797.412109375 565.153320312 783.0234375 c 0
 592.518554688 768.416015625 613.047851562 748.659179688 626.138671875 724.26953125 c 0
 638.885742188 700.565429688 646.905273438 675.564453125 649.994140625 649.955078125 c 0
 652.454101562 629.596679688 653.922851562 592.70703125 654.362304688 540.3125 c 0
 656.7734375 480.147460938 646.418945312 420.440429688 625.204101562 372.545898438 c 0
 611.206054688 341.014648438 589.0859375 315.328125 559.442382812 296.19140625 c 0
 534.661132812 280.201171875 504.1015625 270.6953125 468.612304688 267.91015625 c 2
 362.9375 267.12890625 l 2
 332.540039062 266.947265625 307.788085938 242.051757812 307.768554688 211.6640625 c 2
 307.96875 179.122070312 l 1
 654.705078125 179.122070312 l 1
 654.705078125 0 l 1xfef0
46.236328125 23.2548828125 m 1
 631.440429688 23.2548828125 l 1
 631.440429688 155.866210938 l 1
 284.846679688 155.866210938 l 1
 284.502929688 211.59765625 l 2
 284.541992188 254.799804688 319.6484375 290.126953125 362.774414062 290.403320312 c 2
 467.62109375 291.147460938 l 2
 498.409179688 293.587890625 525.325195312 301.874023438 546.817382812 315.737304688 c 0
 572.609375 332.376953125 591.83203125 354.678710938 603.950195312 381.9765625 c 0
 623.745117188 426.67578125 633.404296875 482.703125 631.115234375 539.759765625 c 0
 630.676757812 591.638671875 629.266601562 627.662109375 626.911132812 647.169921875 c 0
 624.174804688 669.891601562 617.022460938 692.13671875 605.657226562 713.266601562 c 0
 594.758789062 733.528320312 577.461914062 750.109375 554.208007812 762.513671875 c 0
 530.598632812 775.08984375 500.172851562 781.469726562 463.758789062 781.469726562 c 2
 230.592773438 781.469726562 l 2
 194.1796875 781.469726562 163.745117188 775.08984375 140.145507812 762.50390625 c 0
 116.889648438 750.099609375 99.57421875 733.537109375 88.6953125 713.275390625 c 0
 77.3203125 692.13671875 70.1689453125 669.901367188 67.4423828125 647.1796875 c 0
 65.630859375 632.180664062 64.361328125 607.114257812 63.67578125 572.568359375 c 2xfef0
 288.459960938 572.568359375 l 1
 289.700195312 612.100585938 292.2265625 624.181640625 294.06640625 629.817382812 c 0
 297.862304688 641.391601562 308.131835938 655.178710938 335.419921875 655.588867188 c 2
 335.419921875 655.609375 l 1
 335.572265625 655.598632812 l 1
 336.53515625 655.609375 l 2
 336.592773438 655.609375 336.659179688 655.609375 336.7265625 655.609375 c 1
 336.7265625 655.598632812 l 1
 359.1328125 655.598632812 l 1
 359.1328125 654.569335938 l 2
 379.557617188 651.270507812 387.918945312 639.293945312 391.274414062 629.005859375 c 0
 394.764648438 618.412109375 396.643554688 563.615234375 397.301757812 540.560546875 c 0
 397.577148438 496.862304688 362.4609375 461.287109375 319.009765625 461.010742188 c 0
 318.447265625 461.020507812 311.944335938 461.23046875 301.294921875 461.23046875 c 0
 271.173828125 461.23046875 169.846679688 459.256835938 130.524414062 433.903320312 c 0
 104.732421875 417.274414062 85.51953125 394.991210938 73.4111328125 367.6640625 c 0
 65.44921875 349.671875 58.583984375 327.780273438 53.5869140625 304.314453125 c 0
 50.8994140625 291.690429688 48.896484375 278.666015625 47.6376953125 265.59375 c 0
 46.3125 252.025390625 46.1787109375 95.8056640625 46.236328125 23.2548828125 c 1
EndSplineSet
Validated: 524325
EndChar

StartChar: three
Encoding: 51 51 55
Width: 665
VWidth: 0
Flags: W
HStem: 0 23.1504<147.365 526.7> 148.439 23.1211<306.203 348.91> 231.068 23.1309<54.8838 278.591> 314.05 23.1611<274.052 325.751 325.76 348.7> 462.488 23.1318<274.052 348.91> 546.682 23.1602<54.874 278.591> 629.311 23.1611<306.201 348.91> 777.74 23.1416<147.355 526.685>
VStem: 31.5234 23.3604<122.301 231.068 569.842 678.6> 250.901 23.1504<337.211 462.488> 278.591 22.8174<181.495 231.068 569.842 619.387> 363.757 23.1406<178.738 310.719 488.459 626.484> 615.43 22.9795<112.849 372.312 426.835 688.008>
LayerCount: 2
Fore
SplineSet
453.060546875 0 m 2
 221 0 l 2
 180.905273438 0 146.953125 7.275390625 120.083007812 21.60546875 c 0
 92.83203125 36.126953125 72.4091796875 55.81640625 59.3740234375 80.0927734375 c 0
 46.693359375 103.671875 38.712890625 128.548828125 35.6328125 154.044921875 c 0
 33.53515625 171.408203125 32.15234375 201.157226562 31.5234375 242.461914062 c 2
 31.3505859375 254.19921875 l 1
 301.168945312 254.19921875 l 1
 301.41796875 242.890625 l 2
 302.409179688 198.83984375 304.811523438 185.395507812 306.157226562 181.295898438 c 0
 307.109375 178.42578125 309.303710938 171.732421875 325.98828125 171.560546875 c 2
 337.3359375 171.72265625 l 2
 355.508789062 171.72265625 357.874023438 178.98828125 358.912109375 182.086914062 c 0
 360.266601562 186.215820312 362.688476562 199.564453125 363.756835938 242.853515625 c 0
 362.698242188 285.549804688 360.266601562 298.8984375 358.912109375 302.999023438 c 0
 357.883789062 306.1171875 355.518554688 313.3828125 337.3359375 313.3828125 c 2
 325.759765625 313.553710938 l 1
 325.750976562 314.049804688 l 1
 250.901367188 314.049804688 l 1
 250.901367188 485.620117188 l 1
 337.326171875 485.772460938 l 2
 355.5 485.772460938 357.86328125 493.038085938 358.903320312 496.137695312 c 0
 360.266601562 500.314453125 362.708007812 513.833984375 363.775390625 557.751953125 c 0
 362.717773438 601.107421875 360.266601562 614.626953125 358.903320312 618.775390625 c 0
 357.874023438 621.892578125 355.508789062 629.158203125 337.326171875 629.158203125 c 2
 325.750976562 629.310546875 l 2
 309.254882812 629.091796875 307.081054688 622.455078125 306.157226562 619.5859375 c 0
 304.801757812 615.486328125 302.399414062 602.032226562 301.408203125 558 c 2
 301.16015625 546.681640625 l 1
 31.361328125 546.681640625 l 1
 31.5322265625 558.428710938 l 2
 32.15234375 599.734375 33.53515625 629.483398438 35.642578125 646.85546875 c 0
 38.7216796875 672.341796875 46.7021484375 697.228515625 59.3935546875 720.80859375 c 0
 72.4091796875 745.065429688 92.841796875 764.735351562 120.092773438 779.275390625 c 0
 146.961914062 793.606445312 180.915039062 800.881835938 221.009765625 800.881835938 c 2
 453.060546875 800.881835938 l 2
 493.154296875 800.881835938 527.108398438 793.606445312 553.977539062 779.275390625 c 0
 581.208984375 764.744140625 601.642578125 745.083984375 614.666992188 720.80859375 c 0
 627.358398438 697.21875 635.338867188 672.333007812 638.409179688 646.845703125 c 0
 640.288085938 631.323242188 642.623046875 563.47265625 642.538085938 557.28515625 c 0
 642.6328125 551.44921875 640.296875 483.580078125 638.409179688 468.057617188 c 0
 635.567382812 444.525390625 628.559570312 421.517578125 617.518554688 399.55859375 c 0
 628.559570312 377.600585938 635.577148438 354.591796875 638.409179688 331.060546875 c 0
 640.19140625 316.4140625 642.623046875 250.00390625 642.518554688 242.3671875 c 0
 642.6328125 235.08203125 640.19140625 168.65234375 638.409179688 153.997070312 c 0
 635.338867188 128.520507812 627.358398438 103.64453125 614.666992188 80.044921875 c 0
 601.633789062 55.76953125 581.208984375 36.0986328125 553.977539062 21.5673828125 c 0
 527.108398438 7.265625 493.154296875 0 453.060546875 0 c 2
54.8837890625 231.048828125 m 2
 55.560546875 196.67578125 56.8193359375 171.72265625 58.630859375 156.809570312 c 0
 61.3583984375 134.193359375 68.4716796875 112.072265625 79.7783203125 91.0380859375 c 0
 90.6201171875 70.86328125 107.840820312 54.3671875 130.991210938 42.01953125 c 0
 154.465820312 29.5009765625 184.748046875 23.150390625 221.009765625 23.150390625 c 2
 453.060546875 23.150390625 l 2
 489.311523438 23.150390625 519.604492188 29.5009765625 543.0703125 42.01953125 c 0
 566.2109375 54.357421875 583.430664062 70.8525390625 594.28125 91.0380859375 c 0
 605.58984375 112.072265625 612.711914062 134.193359375 615.4296875 156.80078125 c 0
 617.059570312 170.254882812 619.463867188 236.111328125 619.3671875 242.395507812 c 0
 619.463867188 249.00390625 617.059570312 314.87890625 615.4296875 328.313476562 c 0
 612.711914062 350.921875 605.58984375 373.061523438 594.28125 394.095703125 c 2
 593.375 395.764648438 l 1
 592.165039062 402.943359375 l 1
 594.833984375 406.119140625 l 2
 605.818359375 426.837890625 612.740234375 448.616210938 615.420898438 470.8515625 c 0
 617.059570312 484.333984375 619.47265625 550.92578125 619.376953125 557.303710938 c 0
 619.47265625 564.016601562 617.059570312 630.608398438 615.420898438 644.081054688 c 0
 612.703125 666.70703125 605.580078125 688.828125 594.271484375 709.862304688 c 0
 583.430664062 730.038085938 566.2109375 746.533203125 543.059570312 758.87109375 c 0
 519.584960938 771.390625 489.29296875 777.740234375 453.049804688 777.740234375 c 2
 221 777.740234375 l 2
 184.739257812 777.740234375 154.456054688 771.390625 130.981445312 758.87109375 c 0
 107.831054688 746.524414062 90.6005859375 730.038085938 79.7783203125 709.87109375 c 0
 68.451171875 688.828125 61.337890625 666.70703125 58.6220703125 644.090820312 c 0
 56.8193359375 629.177734375 55.560546875 604.224609375 54.8740234375 569.841796875 c 2
 278.590820312 569.841796875 l 1
 279.831054688 609.173828125 282.338867188 621.197265625 284.168945312 626.813476562 c 0
 287.944335938 638.3125 298.119140625 651.985351562 325.168945312 652.462890625 c 2
 325.168945312 652.471679688 l 1
 348.91015625 652.471679688 l 1
 348.91015625 651.44140625 l 2
 369.239257812 648.162109375 377.553710938 636.244140625 380.890625 626.002929688 c 0
 382.921875 619.852539062 385.75390625 606.075195312 386.916992188 557.76171875 c 0
 385.75390625 508.89453125 382.921875 495.107421875 380.890625 488.939453125 c 0
 377.543945312 478.70703125 369.229492188 466.780273438 348.91015625 463.509765625 c 2
 348.91015625 462.640625 l 1
 337.3359375 462.48828125 l 1
 274.051757812 462.48828125 l 1
 274.051757812 337.2109375 l 1
 348.700195312 337.2109375 l 1
 348.720703125 335.712890625 l 2
 369.181640625 332.471679688 377.534179688 320.514648438 380.890625 310.236328125 c 0
 382.903320312 304.143554688 385.715820312 290.5078125 386.897460938 242.881835938 c 0
 385.715820312 194.64453125 382.903320312 181.009765625 380.890625 174.897460938 c 0
 377.543945312 164.676757812 369.229492188 152.748046875 348.91015625 149.467773438 c 2
 348.91015625 148.600585938 l 1
 325.168945312 148.439453125 l 1
 325.168945312 148.448242188 l 2
 298.127929688 148.92578125 287.935546875 162.59765625 284.168945312 174.106445312 c 0
 282.338867188 179.712890625 279.831054688 191.717773438 278.590820312 231.068359375 c 1
 54.8837890625 231.068359375 l 1
 54.8837890625 231.048828125 l 2
EndSplineSet
Validated: 8912929
EndChar

StartChar: four
Encoding: 52 52 56
Width: 677
VWidth: 0
Flags: W
HStem: 0 23.3027<319.139 561.696> 157.563 23.3135<38.9365 295.835 584.99 638.586> 313.735 23.3027<229.54 295.825 584.99 638.586> 781.221 23.2939<314.075 561.696>
VStem: 15.6338 23.3027<180.877 322.555> 295.835 23.3037<23.3027 157.563 337.038 447.672> 561.696 23.2939<23.3027 157.563 337.038 781.221> 638.586 23.3027<180.867 313.735>
LayerCount: 2
Fore
SplineSet
585 0 m 1
 295.834960938 0 l 1
 295.834960938 157.563476562 l 1
 15.6337890625 157.563476562 l 1
 15.6337890625 328.991210938 l 1
 300.87890625 804.514648438 l 1
 584.990234375 804.514648438 l 1
 584.990234375 337.038085938 l 1
 661.888671875 337.038085938 l 1
 661.888671875 157.563476562 l 1
 584.990234375 157.563476562 l 1
 584.990234375 0 l 1
 585 0 l 1
319.138671875 23.302734375 m 1
 561.696289062 23.302734375 l 1
 561.696289062 180.8671875 l 1
 638.5859375 180.8671875 l 1
 638.5859375 313.735351562 l 1
 561.696289062 313.735351562 l 1
 561.696289062 781.220703125 l 1
 314.075195312 781.220703125 l 1
 38.9365234375 322.5546875 l 1
 38.9365234375 180.876953125 l 1
 319.138671875 180.876953125 l 1
 319.138671875 23.302734375 l 1
319.138671875 313.735351562 m 1
 188.415039062 313.735351562 l 1
 319.127929688 531.903320312 l 1
 319.127929688 313.735351562 l 1
 319.138671875 313.735351562 l 1
229.540039062 337.038085938 m 1
 295.825195312 337.038085938 l 1
 295.825195312 447.671875 l 1
 229.540039062 337.038085938 l 1
EndSplineSet
Validated: 524293
EndChar

StartChar: five
Encoding: 53 53 57
Width: 648
VWidth: 0
Flags: W
HStem: 0 23.2451<137.038 518.082> 149.087 23.4082<315.597 358.497> 315.185 23.2549<46.2939 277.4> 398.814 23.2656<43.9287 337.954 338.062 357.917> 547.988 23.2451<300.493 516.618> 631.322 23.2656<300.493 566.87> 781.249 23.2461<43.9287 566.402>
VStem: 22.9229 23.3711<116.865 315.185 422.08 781.249> 277.248 23.2451<175.67 315.185 571.233 631.322> 362.947 23.5889<182.282 396.307> 566.402 23.208<654.693 781.249> 607.23 23.0742<113.363 457.806>
LayerCount: 2
Fore
SplineSet
444.098632812 0 m 2
 211 0 l 2
 170.743164062 0 136.637695312 7.3125 109.633789062 21.681640625 c 0
 82.26953125 36.2890625 61.75 56.0458984375 48.6494140625 80.4365234375 c 0
 35.91015625 104.129882812 27.8818359375 129.120117188 24.8017578125 154.731445312 c 0
 24.40234375 158.030273438 24.14453125 182.744140625 23.505859375 260.473632812 c 0
 23.3056640625 284.301757812 23.1044921875 308.081054688 22.9228515625 326.702148438 c 2
 22.7998046875 338.439453125 l 1
 300.65625 338.439453125 l 1
 300.866210938 299.280273438 l 2
 301.5625 269.893554688 303.420898438 191.870117188 305.65234375 182.612304688 c 0
 306.577148438 179.797851562 308.970703125 172.495117188 327.229492188 172.495117188 c 2
 338.862304688 172.352539062 l 2
 355.405273438 172.552734375 357.59765625 179.245117188 358.541992188 182.10546875 c 0
 359.724609375 185.758789062 361.869140625 197.190429688 362.995117188 233.022460938 c 2
 362.947265625 257.870117188 l 2
 362.737304688 264.325195312 362.4609375 275.547851562 362.145507812 288.715820312 c 0
 361.364257812 321.353515625 359.915039062 382.127929688 358.370117188 389.661132812 c 0
 357.588867188 391.977539062 355.34765625 398.8046875 338.061523438 398.814453125 c 2
 338.061523438 403.0390625 l 1
 338.051757812 398.814453125 l 2
 337.13671875 398.814453125 304.18359375 398.814453125 260.200195312 398.814453125 c 2
 20.6826171875 398.814453125 l 1
 20.6826171875 804.495117188 l 1
 589.610351562 804.495117188 l 1
 589.610351562 791.00390625 l 1
 590.202148438 631.427734375 l 1
 300.493164062 631.322265625 l 1
 300.493164062 571.233398438 l 1
 444.098632812 571.186523438 l 2
 484.354492188 571.186523438 518.452148438 563.8828125 545.463867188 549.494140625 c 0
 572.838867188 534.876953125 593.358398438 515.130859375 606.439453125 490.741210938 c 0
 619.1875 467.065429688 627.215820312 442.064453125 630.315429688 416.444335938 c 0
 632.383789062 399.319335938 632.383789062 171.817382812 630.3046875 154.711914062 c 0
 627.215820312 129.1015625 619.1875 104.110351562 606.439453125 80.42578125 c 0
 593.358398438 56.0458984375 572.84765625 36.2802734375 545.463867188 21.681640625 c 0
 518.452148438 7.302734375 484.354492188 0 444.098632812 0 c 2
46.2939453125 315.194335938 m 2
 46.4462890625 298.784179688 46.5986328125 279.752929688 46.76171875 260.663085938 c 0
 47.142578125 214.381835938 47.5712890625 161.911132812 47.9150390625 157.23828125 c 0
 50.6318359375 134.793945312 57.7734375 112.55859375 69.1396484375 91.4384765625 c 0
 80.0283203125 71.16796875 97.3427734375 54.5966796875 120.580078125 42.2001953125 c 0
 144.1796875 29.6240234375 174.604492188 23.2451171875 211.008789062 23.2451171875 c 2
 444.1171875 23.2451171875 l 2
 480.502929688 23.2451171875 510.9375 29.6240234375 534.545898438 42.2109375 c 0
 557.79296875 54.60546875 575.088867188 71.16796875 585.977539062 91.4296875 c 0
 597.34375 112.567382812 604.485351562 134.793945312 607.23046875 157.505859375 c 0
 608.95703125 171.866210938 608.95703125 399.30078125 607.23046875 413.661132812 c 0
 604.485351562 436.391601562 597.34375 458.6171875 585.977539062 479.74609375 c 0
 575.088867188 500.0078125 557.801757812 516.5703125 534.537109375 528.985351562 c 0
 510.928710938 541.561523438 480.502929688 547.940429688 444.1171875 547.940429688 c 2
 299.340820312 547.98828125 l 1
 278.506835938 547.64453125 l 1
 278.467773438 547.98828125 l 1
 277.504882812 547.98828125 l 1
 277.248046875 559.6015625 l 1
 277.248046875 654.587890625 l 1
 566.870117188 654.693359375 l 1
 566.40234375 781.249023438 l 1
 43.9287109375 781.249023438 l 1
 43.9287109375 422.080078125 l 1
 332.197265625 422.080078125 l 2
 333.952148438 422.080078125 335.973632812 422.080078125 338.051757812 421.860351562 c 2
 338.051757812 422.080078125 l 1
 338.051757812 421.860351562 l 1
 338.051757812 421.860351562 338.061523438 421.860351562 338.080078125 421.860351562 c 2
 338.080078125 422.080078125 l 2
 366.274414062 422.060546875 376.782226562 408.053710938 380.634765625 396.306640625 c 0
 382.494140625 390.633789062 383.5234375 367.635742188 385.411132812 289.278320312 c 0
 385.716796875 276.196289062 385.993164062 265.040039062 386.203125 258.251953125 c 2
 386.536132812 247.954101562 l 1
 386.346679688 235.997070312 l 2
 385.125 193.109375 382.50390625 180.561523438 380.625 174.860351562 c 0
 376.831054688 163.274414062 366.561523438 149.497070312 339.28125 149.096679688 c 2
 339.28125 149.077148438 l 1
 339.16796875 149.086914062 l 1
 338.166015625 149.077148438 l 2
 338.108398438 149.077148438 338.04296875 149.077148438 337.995117188 149.077148438 c 2
 337.995117188 149.086914062 l 1
 315.596679688 149.086914062 l 1
 315.596679688 150.096679688 l 2
 295.172851562 153.40625 286.810546875 165.381835938 283.4453125 175.669921875 c 0
 281.090820312 182.831054688 279.622070312 213.971679688 277.610351562 299.032226562 c 2
 277.400390625 315.184570312 l 1
 46.2939453125 315.184570312 l 1
 46.2939453125 315.194335938 l 2
EndSplineSet
Validated: 524325
EndChar

StartChar: six
Encoding: 54 54 58
Width: 651
VWidth: 0
Flags: W
HStem: 0 23.1416<138.316 517.654> 148.42 23.3037<316.1 358.8> 315.223 23.1416<301.225 358.774> 463.701 23.1592<301.443 516.221> 546.701 23.1318<386.4 610.107> 629.178 23.1221<316.08 358.808> 777.731 23.1709<138.315 517.634>
VStem: 26.6016 22.9883<112.888 688.028> 278.103 23.1514<174.407 315.223 486.86 618.613> 363.269 23.2559<174.088 312.715 569.833 619.405> 606.389 22.9893<112.88 373.948 569.833 688.032>
LayerCount: 2
Fore
SplineSet
444 0 m 2
 211.958984375 0 l 2
 171.85546875 0 137.911132812 7.275390625 111.041992188 21.6064453125 c 0
 83.810546875 36.126953125 63.376953125 55.8076171875 50.3427734375 80.0830078125 c 0
 37.65234375 103.681640625 29.671875 128.55859375 26.6015625 154.045898438 c 0
 24.818359375 168.82421875 22.443359375 555.20703125 22.5009765625 558.514648438 c 0
 22.38671875 565.80078125 24.8369140625 632.229492188 26.611328125 646.875 c 0
 29.681640625 672.3515625 37.662109375 697.23828125 50.3515625 720.828125 c 0
 63.38671875 745.09375 83.810546875 764.764648438 111.051757812 779.294921875 c 0
 137.919921875 793.626953125 171.865234375 800.90234375 211.96875 800.90234375 c 2
 444.009765625 800.90234375 l 2
 484.11328125 800.90234375 518.076171875 793.626953125 544.935546875 779.294921875 c 0
 572.177734375 764.75390625 592.611328125 745.09375 605.635742188 720.818359375 c 0
 618.31640625 697.247070312 626.31640625 672.361328125 629.377929688 646.866210938 c 0
 631.484375 629.501953125 632.8671875 599.752929688 633.486328125 558.448242188 c 2
 633.66796875 546.701171875 l 1
 363.83984375 546.701171875 l 1
 363.592773438 558.01953125 l 2
 362.600585938 602.041992188 360.188476562 615.505859375 358.853515625 619.604492188 c 0
 357.909179688 622.485351562 355.716796875 629.159179688 339.030273438 629.340820312 c 2
 327.674804688 629.177734375 l 2
 309.501953125 629.177734375 307.1171875 621.912109375 306.106445312 618.813476562 c 0
 304.752929688 614.685546875 302.331054688 601.3359375 301.25390625 558.057617188 c 0
 301.30078125 556.408203125 301.396484375 509.6875 301.443359375 486.860351562 c 2
 444.009765625 486.822265625 l 2
 484.094726562 486.822265625 518.057617188 479.546875 544.926757812 465.225585938 c 0
 572.177734375 450.684570312 592.611328125 431.014648438 605.635742188 406.739257812 c 0
 618.31640625 383.159179688 626.31640625 358.282226562 629.377929688 332.776367188 c 0
 631.399414062 316.071289062 631.399414062 170.721679688 629.377929688 154.036132812 c 0
 626.31640625 128.548828125 618.31640625 103.672851562 605.635742188 80.0830078125 c 0
 592.600585938 55.81640625 572.177734375 36.1376953125 544.935546875 21.6064453125 c 0
 518.067382812 7.265625 484.103515625 0 444 0 c 2
211.958984375 777.741210938 m 2
 175.698242188 777.741210938 145.416015625 771.390625 121.940429688 758.87109375 c 0
 98.7998046875 746.534179688 81.5693359375 730.0390625 70.728515625 709.862304688 c 0
 59.419921875 688.828125 52.296875 666.70703125 49.580078125 644.090820312 c 0
 47.958984375 630.646484375 45.546875 564.779296875 45.642578125 558.505859375 c 0
 45.546875 535.965820312 48.0546875 171.571289062 49.58984375 156.763671875 c 0
 52.306640625 134.194335938 59.419921875 112.063476562 70.728515625 91.029296875 c 0
 81.5693359375 70.853515625 98.7998046875 54.3486328125 121.940429688 42.0107421875 c 0
 145.416015625 29.4921875 175.70703125 23.1416015625 211.958984375 23.1416015625 c 2
 444 23.1416015625 l 2
 480.270507812 23.1416015625 510.552734375 29.4921875 534.028320312 42.0107421875 c 0
 557.1796875 54.357421875 574.399414062 70.84375 585.23046875 91.01953125 c 0
 596.548828125 112.063476562 603.671875 134.184570312 606.388671875 156.791015625 c 0
 608.162109375 171.350585938 608.162109375 315.4140625 606.388671875 329.982421875 c 0
 603.671875 352.609375 596.548828125 374.73046875 585.23046875 395.764648438 c 0
 574.408203125 415.939453125 557.1796875 432.42578125 534.028320312 444.7734375 c 0
 510.534179688 457.29296875 480.2421875 463.643554688 444 463.643554688 c 2
 278.321289062 463.701171875 l 1
 278.302734375 475.247070312 l 2
 278.255859375 507.24609375 278.150390625 555.711914062 278.102539062 558.057617188 c 0
 279.28515625 606.255859375 282.087890625 619.891601562 284.090820312 626.002929688 c 0
 287.4375 636.233398438 295.76171875 648.15234375 316.080078125 651.432617188 c 2
 316.080078125 652.299804688 l 1
 339.821289062 652.462890625 l 1
 339.821289062 652.452148438 l 2
 366.862304688 651.9765625 377.045898438 638.302734375 380.8125 626.803710938 c 0
 382.65234375 621.1875 385.150390625 609.173828125 386.400390625 569.833007812 c 1
 610.107421875 569.833007812 l 2
 609.450195312 604.206054688 608.19140625 629.159179688 606.369140625 644.072265625 c 0
 603.65234375 666.697265625 596.530273438 688.819335938 585.211914062 709.853515625 c 0
 574.389648438 730.028320312 557.16015625 746.513671875 534.009765625 758.862304688 c 0
 510.534179688 771.380859375 480.2421875 777.731445312 443.981445312 777.731445312 c 2
 211.958984375 777.731445312 l 1
 211.958984375 777.741210938 l 2
339.841796875 148.419921875 m 1
 316.099609375 148.419921875 l 1
 316.099609375 149.440429688 l 2
 295.770507812 152.729492188 287.456054688 164.647460938 284.109375 174.888671875 c 0
 282.087890625 181.0390625 279.265625 194.81640625 278.092773438 243.139648438 c 2
 278.092773438 338.364257812 l 1
 344.408203125 338.14453125 l 2
 368.0546875 336.314453125 377.303710938 323.556640625 380.840820312 312.71484375 c 0
 382.624023438 307.318359375 385.123046875 295.666992188 386.390625 257.088867188 c 2
 386.724609375 246.848632812 l 1
 386.524414062 234.948242188 l 2
 385.323242188 192.2421875 382.700195312 179.751953125 380.831054688 174.087890625 c 0
 377.064453125 162.579101562 366.8828125 148.90625 339.841796875 148.419921875 c 1
301.224609375 315.22265625 m 1
 301.224609375 243.42578125 l 2
 302.283203125 199.765625 304.733398438 186.254882812 306.087890625 182.106445312 c 0
 307.107421875 178.989257812 309.481445312 171.723632812 327.666015625 171.723632812 c 2
 339.240234375 171.571289062 l 2
 355.7265625 171.78125 357.909179688 178.435546875 358.844726562 181.296875 c 0
 360.02734375 184.9296875 362.15234375 196.303710938 363.268554688 231.974609375 c 2
 363.240234375 256.708007812 l 2
 362.104492188 290.899414062 359.998046875 301.979492188 358.844726562 305.498046875 c 0
 357.880859375 308.416015625 355.659179688 315.213867188 338.44921875 315.22265625 c 2
 301.224609375 315.22265625 l 1
EndSplineSet
Validated: 524325
EndChar

StartChar: seven
Encoding: 55 55 59
Width: 658
VWidth: 0
Flags: W
HStem: 0 23.3027<136.328 377.809> 625.068 23.2939<38.3105 297.602> 781.212 23.3027<38.3105 611.652>
VStem: 15.0068 23.3037<648.362 781.212>
LayerCount: 2
Fore
SplineSet
395 0 m 1
 104.749023438 0 l 1
 297.6015625 625.068359375 l 1
 15.0068359375 625.068359375 l 1
 15.0068359375 804.514648438 l 1
 643.241210938 804.514648438 l 1
 395 0 l 1
136.328125 23.302734375 m 1
 377.80859375 23.302734375 l 1
 611.65234375 781.211914062 l 1
 38.310546875 781.211914062 l 1
 38.310546875 648.362304688 l 1
 329.190429688 648.362304688 l 1
 136.328125 23.302734375 l 1
EndSplineSet
Validated: 524289
EndChar

StartChar: eight
Encoding: 56 56 60
Width: 643
VWidth: 0
Flags: W
HStem: 0 23.1504<127.343 506.686> 148.582 23.1406<294.998 338.71> 313.383 23.1504<305.14 328.901> 462.622 23.1504<294.999 338.707> 629.158 23.1504<295.484 338.556> 777.74 23.1699<127.351 506.671>
VStem: 11.6182 23.1318<123.324 362.719 436.812 677.601> 273.141 22.0068<173.195 312.172 487.236 627.711> 305.14 23.7617<332.39 336.533> 338.903 21.9873<173.186 312.165 487.229 627.696> 595.43 22.9795<112.879 242.697 243.073 372.35 426.844 688.041>
LayerCount: 2
Fore
SplineSet
433.060546875 0 m 2
 201 0 l 2
 160.905273438 0 126.942382812 7.2744140625 100.083007812 21.60546875 c 0
 72.83203125 36.1259765625 52.4091796875 55.81640625 39.384765625 80.0927734375 c 0
 26.693359375 103.671875 18.703125 128.548828125 15.642578125 154.044921875 c 0
 13.6025390625 170.86328125 12.2861328125 198.2109375 11.6181640625 237.65625 c 2
 11.5322265625 242.528320312 l 2
 11.4560546875 249.861328125 13.8583984375 316.1953125 15.6611328125 331.107421875 c 0
 18.4833984375 354.629882812 25.5205078125 377.646484375 36.5517578125 399.595703125 c 0
 25.5205078125 421.544921875 18.4833984375 444.572265625 15.6611328125 468.10546875 c 0
 13.7734375 483.618164062 11.447265625 551.487304688 11.5322265625 557.666015625 c 2
 11.5712890625 561.002929688 l 2
 12.2099609375 601.068359375 13.5732421875 629.930664062 15.6328125 646.883789062 c 0
 18.6923828125 672.370117188 26.693359375 697.256835938 39.3740234375 720.8359375 c 0
 52.3994140625 745.092773438 72.8232421875 764.763671875 100.073242188 779.3046875 c 0
 126.942382812 793.635742188 160.88671875 800.91015625 200.991210938 800.91015625 c 2
 433.03125 800.91015625 l 2
 473.14453125 800.91015625 507.088867188 793.635742188 533.96875 779.3046875 c 0
 561.208984375 764.763671875 581.642578125 745.102539062 594.657226562 720.827148438 c 0
 607.348632812 697.256835938 615.338867188 672.370117188 618.409179688 646.875 c 0
 620.458984375 629.930664062 621.83203125 601.068359375 622.470703125 561.0703125 c 2
 622.508789062 557.875 l 2
 622.604492188 551.487304688 620.278320312 483.618164062 618.389648438 468.095703125 c 0
 615.557617188 444.563476562 608.530273438 421.555664062 597.489257812 399.595703125 c 0
 608.530273438 377.637695312 615.567382812 354.629882812 618.389648438 331.09765625 c 0
 620.115234375 316.78515625 622.5859375 250.26171875 622.499023438 242.499023438 c 2
 622.432617188 237.607421875 l 2
 621.765625 198.2109375 620.44921875 170.86328125 618.409179688 154.03515625 c 0
 615.338867188 128.548828125 607.348632812 103.671875 594.657226562 80.08203125 c 0
 581.633789062 55.81640625 561.208984375 36.13671875 533.96875 21.60546875 c 0
 507.088867188 7.265625 473.154296875 0 433.060546875 0 c 2
56.6318359375 411.162109375 m 2
 58.5869140625 411.162109375 l 1
 61.9150390625 398.051757812 l 1
 59.7783203125 394.095703125 l 2
 48.4609375 373.051757812 41.3388671875 350.920898438 38.6220703125 328.313476562 c 0
 37.0380859375 315.173828125 34.59765625 249.155273438 34.6826171875 242.766601562 c 2
 34.75 238.09375 l 2
 35.388671875 199.935546875 36.685546875 172.608398438 38.6015625 156.809570312 c 0
 41.3291015625 134.193359375 48.4423828125 112.072265625 59.759765625 91.0380859375 c 0
 70.591796875 70.86328125 87.8115234375 54.3662109375 110.962890625 42.01953125 c 0
 134.447265625 29.5 164.739257812 23.150390625 200.991210938 23.150390625 c 2
 433.049804688 23.150390625 l 2
 469.301757812 23.150390625 499.5859375 29.5 523.059570312 42.01953125 c 0
 546.2109375 54.3662109375 563.430664062 70.8525390625 574.271484375 91.0283203125 c 0
 585.58984375 112.072265625 592.703125 134.193359375 595.4296875 156.799804688 c 0
 597.345703125 172.608398438 599.3671875 242.748046875 599.3671875 242.748046875 c 2
 599.424804688 248.745117188 597.059570312 314.62109375 595.411132812 328.313476562 c 0
 592.684570312 350.920898438 585.580078125 373.061523438 574.262695312 394.095703125 c 2
 573.346679688 395.791992188 l 1
 572.155273438 402.981445312 l 1
 574.815429688 406.137695312 l 2
 585.799804688 426.846679688 592.731445312 448.615234375 595.401367188 470.850585938 c 0
 597.032226562 484.333007812 599.454101562 550.924804688 599.348632812 557.303710938 c 2
 599.3203125 560.526367188 l 2
 598.69140625 599.876953125 597.375 627.938476562 595.420898438 644.081054688 c 0
 592.693359375 666.706054688 585.580078125 688.828125 574.262695312 709.861328125 c 0
 563.420898438 730.038085938 546.2109375 746.5234375 523.049804688 758.87109375 c 0
 499.565429688 771.389648438 469.283203125 777.740234375 433.041015625 777.740234375 c 2
 201 777.740234375 l 2
 164.739257812 777.740234375 134.456054688 771.389648438 110.971679688 758.87109375 c 0
 87.8212890625 746.5234375 70.6005859375 730.038085938 59.76953125 709.87109375 c 0
 48.451171875 688.828125 41.3291015625 666.706054688 38.611328125 644.08984375 c 0
 36.6572265625 627.938476562 35.3505859375 599.876953125 34.7119140625 560.698242188 c 2
 34.673828125 557.72265625 l 2
 34.5791015625 550.934570312 37 484.333007812 38.630859375 470.860351562 c 0
 41.0908203125 450.407226562 47.1357421875 430.366210938 56.6318359375 411.162109375 c 2
317.3359375 148.58203125 m 0
 287.82421875 148.58203125 277.0703125 162.8828125 273.140625 174.897460938 c 0
 271.139648438 180.990234375 268.325195312 194.625 267.153320312 242.280273438 c 0
 268.325195312 290.48828125 271.139648438 304.123046875 273.150390625 310.236328125 c 0
 276.497070312 320.466796875 284.821289062 332.39453125 305.139648438 335.666015625 c 2
 305.139648438 336.533203125 l 1
 328.901367188 336.704101562 l 1
 328.901367188 335.674804688 l 2
 349.229492188 332.39453125 357.543945312 320.475585938 360.890625 310.2265625 c 0
 362.893554688 304.1328125 365.696289062 290.498046875 366.888671875 242.872070312 c 0
 365.696289062 194.634765625 362.893554688 180.999023438 360.890625 174.887695312 c 0
 356.971679688 162.8828125 346.225585938 148.58203125 317.3359375 148.58203125 c 0
316.725585938 313.3828125 m 1
 298.541992188 313.3828125 296.16796875 306.1171875 295.147460938 303.017578125 c 0
 293.784179688 298.8984375 291.372070312 285.548828125 290.294921875 242.280273438 c 0
 291.372070312 199.573242188 293.793945312 186.21484375 295.147460938 182.10546875 c 0
 296.159179688 178.98828125 298.533203125 171.72265625 316.725585938 171.72265625 c 0
 335.518554688 171.72265625 337.892578125 178.98828125 338.903320312 182.086914062 c 0
 340.266601562 186.21484375 342.678710938 199.564453125 343.766601562 242.853515625 c 0
 342.689453125 285.548828125 340.266601562 298.8984375 338.912109375 302.998046875 c 0
 337.892578125 306.1171875 335.518554688 313.3828125 317.3359375 313.3828125 c 2
 316.725585938 313.3828125 l 1
317.3359375 462.622070312 m 0
 287.82421875 462.622070312 277.079101562 476.924804688 273.140625 488.938476562 c 0
 271.119140625 495.09765625 268.288085938 508.884765625 267.124023438 557.188476562 c 0
 268.297851562 606.065429688 271.129882812 619.842773438 273.150390625 626.01171875 c 0
 277.0703125 637.998046875 287.82421875 652.30859375 316.715820312 652.30859375 c 2
 317.326171875 652.30859375 l 2
 346.216796875 652.30859375 356.962890625 638.006835938 360.890625 625.993164062 c 0
 362.912109375 619.842773438 365.734375 606.065429688 366.916992188 557.750976562 c 0
 365.734375 508.884765625 362.912109375 495.09765625 360.890625 488.9296875 c 0
 356.962890625 476.93359375 346.216796875 462.622070312 317.3359375 462.622070312 c 0
316.725585938 629.158203125 m 2
 298.541992188 629.158203125 296.16796875 621.892578125 295.147460938 618.793945312 c 0
 293.775390625 614.626953125 291.333984375 601.107421875 290.276367188 557.188476562 c 0
 291.333984375 513.833984375 293.784179688 500.303710938 295.147460938 496.146484375 c 0
 296.159179688 493.038085938 298.533203125 485.772460938 316.725585938 485.772460938 c 0
 335.518554688 485.772460938 337.892578125 493.038085938 338.903320312 496.137695312 c 0
 340.276367188 500.314453125 342.717773438 513.833984375 343.775390625 557.750976562 c 0
 342.7265625 601.107421875 340.276367188 614.626953125 338.912109375 618.775390625 c 0
 337.892578125 621.892578125 335.518554688 629.158203125 317.3359375 629.158203125 c 2
 316.725585938 629.158203125 l 2
EndSplineSet
Validated: 524321
EndChar

StartChar: nine
Encoding: 57 57 61
Width: 651
VWidth: 0
Flags: W
HStem: 0 23.2461<134.024 515.075> 149.078 23.2646<293.584 336.502> 232.078 23.2656<41.1309 265.858> 315.509 23.2559<134.024 351.206> 464.606 23.2451<293.594 351.425> 632.162 23.2656<293.593 346.494> 781.27 23.2549<134.024 515.071>
VStem: 21.8037 23.0742<113.379 232.078 428.879 691.143> 265.562 23.5703<182.315 232.078 490.388 629.654> 351.396 23.2559<183.128 315.48 487.852 629.309> 604.214 23.083<113.393 691.14>
LayerCount: 2
Fore
SplineSet
441.090820312 0 m 6
 208 0 l 6
 167.715820312 0 133.619140625 7.3125 106.625976562 21.701171875 c 4
 79.2509765625 36.2900390625 58.7421875 56.0654296875 45.6494140625 80.4462890625 c 4
 32.9111328125 104.120117188 24.8828125 129.12109375 21.8037109375 154.732421875 c 4
 19.6865234375 172.170898438 18.294921875 202.063476562 17.6748046875 243.548828125 c 6
 17.494140625 255.34375 l 5
 288.532226562 255.34375 l 5
 288.780273438 243.98828125 l 6
 289.772460938 199.737304688 292.193359375 186.225585938 293.538085938 182.115234375 c 4
 294.491210938 179.236328125 296.694335938 172.514648438 313.456054688 172.342773438 c 6
 324.860351562 172.514648438 l 6
 343.120117188 172.514648438 345.502929688 179.807617188 346.524414062 182.926757812 c 4
 347.877929688 187.073242188 350.309570312 200.479492188 351.395507812 243.958984375 c 4
 351.337890625 245.618164062 351.252929688 292.55859375 351.206054688 315.48046875 c 6
 208 315.508789062 l 6
 167.715820312 315.508789062 133.619140625 322.813476562 106.625976562 337.201171875 c 4
 79.2509765625 351.797851562 58.732421875 371.564453125 45.6494140625 395.9453125 c 4
 32.9111328125 419.620117188 24.8828125 444.62109375 21.8037109375 470.241210938 c 4
 19.7724609375 487.041992188 19.7724609375 633.030273438 21.8037109375 649.791992188 c 4
 24.8828125 675.403320312 32.9111328125 700.393554688 45.6494140625 724.087890625 c 4
 58.732421875 748.458984375 79.2509765625 768.215820312 106.625976562 782.823242188 c 4
 133.619140625 797.220703125 167.725585938 804.524414062 208 804.524414062 c 6
 441.090820312 804.524414062 l 6
 481.384765625 804.524414062 515.491210938 797.220703125 542.474609375 782.823242188 c 4
 569.83984375 768.225585938 590.348632812 748.46875 603.450195312 724.087890625 c 4
 616.188476562 700.393554688 624.217773438 675.393554688 627.296875 649.791992188 c 4
 629.08984375 634.9375 631.473632812 246.829101562 631.42578125 243.501953125 c 4
 631.549804688 236.178710938 629.081054688 169.444335938 627.296875 154.732421875 c 4
 624.217773438 129.139648438 616.188476562 104.140625 603.450195312 80.4462890625 c 4
 590.359375 56.0556640625 569.83984375 36.298828125 542.474609375 21.7109375 c 4
 515.491210938 7.3037109375 481.384765625 0 441.090820312 0 c 6
41.130859375 232.087890625 m 6
 41.8076171875 197.561523438 43.0654296875 172.504882812 44.8779296875 157.515625 c 4
 47.6240234375 134.793945312 54.765625 112.568359375 66.130859375 91.439453125 c 4
 77.0107421875 71.16796875 94.31640625 54.6064453125 117.572265625 42.201171875 c 4
 141.161132812 29.6240234375 171.577148438 23.24609375 208 23.24609375 c 6
 441.090820312 23.24609375 l 6
 477.513671875 23.24609375 507.948242188 29.6240234375 531.51953125 42.201171875 c 4
 554.764648438 54.5966796875 572.071289062 71.16796875 582.959960938 91.439453125 c 4
 594.325195312 112.568359375 601.467773438 134.793945312 604.213867188 157.505859375 c 4
 605.852539062 171.02734375 608.265625 237.1796875 608.169921875 243.4921875 c 4
 608.265625 266.137695312 605.739257812 632.171875 604.204101562 647.045898438 c 4
 601.477539062 669.720703125 594.3359375 691.946289062 582.959960938 713.075195312 c 4
 572.071289062 733.336914062 554.774414062 749.909179688 531.51953125 762.313476562 c 4
 507.939453125 774.889648438 477.513671875 781.26953125 441.090820312 781.26953125 c 6
 208 781.26953125 l 6
 171.577148438 781.26953125 141.161132812 774.900390625 117.572265625 762.313476562 c 4
 94.31640625 749.909179688 77.0107421875 733.346679688 66.130859375 713.084960938 c 4
 54.765625 691.946289062 47.615234375 669.720703125 44.8779296875 646.998046875 c 4
 43.1044921875 632.381835938 43.1044921875 487.670898438 44.8779296875 473.034179688 c 4
 47.6240234375 450.303710938 54.765625 428.078125 66.130859375 406.94921875 c 4
 77.0107421875 386.6875 94.31640625 370.125 117.572265625 357.719726562 c 4
 141.161132812 345.143554688 171.577148438 338.764648438 208 338.764648438 c 6
 374.432617188 338.70703125 l 5
 374.451171875 327.103515625 l 6
 374.508789062 294.9609375 374.603515625 246.266601562 374.651367188 243.920898438 c 4
 373.46875 195.502929688 370.647460938 181.791992188 368.625976562 175.661132812 c 4
 365.259765625 165.391601562 356.916015625 153.407226562 336.501953125 150.1171875 c 6
 336.501953125 149.240234375 l 5
 312.646484375 149.078125 l 5
 312.646484375 149.087890625 l 6
 285.471679688 149.564453125 275.250976562 163.303710938 271.465820312 174.870117188 c 4
 269.615234375 180.495117188 267.107421875 192.547851562 265.858398438 232.078125 c 5
 41.130859375 232.078125 l 5
 41.130859375 232.087890625 l 6
374.6796875 464.606445312 m 5
 313.895507812 464.606445312 l 6
 285.786132812 464.682617188 275.297851562 478.661132812 271.465820312 490.387695312 c 4
 269.672851562 495.823242188 267.165039062 507.513671875 265.896484375 546.272460938 c 6
 265.5625 556.55078125 l 5
 265.762695312 568.498046875 l 6
 266.963867188 611.405273438 269.596679688 623.953125 271.474609375 629.654296875 c 4
 275.259765625 641.201171875 285.490234375 654.94140625 312.655273438 655.427734375 c 6
 336.51171875 654.387695312 l 6
 356.936523438 651.088867188 365.288085938 639.123046875 368.634765625 628.825195312 c 4
 370.674804688 622.646484375 373.516601562 608.811523438 374.690429688 560.268554688 c 6
 374.690429688 464.606445312 l 5
 374.6796875 464.606445312 l 5
314.029296875 487.8515625 m 6
 351.424804688 487.8515625 l 5
 351.424804688 559.9921875 l 6
 350.375976562 603.84375 347.896484375 617.420898438 346.54296875 621.579101562 c 4
 345.512695312 624.715820312 343.12890625 632.009765625 324.870117188 632.009765625 c 6
 313.24609375 632.162109375 l 6
 296.684570312 631.943359375 294.491210938 625.278320312 293.547851562 622.3984375 c 4
 292.35546875 618.755859375 290.219726562 607.315429688 289.104492188 571.482421875 c 6
 289.1328125 546.643554688 l 6
 290.268554688 512.299804688 292.393554688 501.172851562 293.547851562 497.634765625 c 4
 294.510742188 494.70703125 296.750976562 487.870117188 314.029296875 487.8515625 c 6
EndSplineSet
Validated: 524325
EndChar

StartChar: Acircumflex
Encoding: 229 194 63
Width: 652
VWidth: 0
Flags: W
HStem: 0 23.541<50.5996 279.513 366.271 608.934> 232.394 23.542<303.054 342.72> 390.196 23.5605<303.054 342.72> 634.327 23.541<308.01 342.72> 780.401 23.5605<133.44 608.839>
VStem: 27.0186 23.5811<23.541 685.774> 137.576 23.5508<852.714 928.497> 279.513 23.541<23.541 232.394 413.757 632.51> 342.72 23.5605<23.541 232.394 413.757 634.327> 498.386 23.5508<852.675 928.478> 608.934 23.5605<23.541 780.401>
LayerCount: 2
Fore
SplineSet
632.494140625 0 m 5
 342.719726562 0 l 5
 342.719726562 232.393554688 l 5
 303.053710938 232.393554688 l 5
 303.053710938 0 l 5
 27 0 l 5
 27.0185546875 11.8037109375 l 6
 27.076171875 36.95703125 28.392578125 628.061523438 31.08203125 652.223632812 c 4
 33.8369140625 677.224609375 41.0078125 701.624023438 52.3818359375 724.727539062 c 4
 64.158203125 748.668945312 82.6357421875 768.100585938 107.3125 782.489257812 c 4
 131.7890625 796.744140625 162.653320312 803.961914062 199.057617188 803.961914062 c 6
 632.37890625 803.961914062 l 5
 632.494140625 0 l 5
366.270507812 23.541015625 m 5
 608.93359375 23.541015625 l 5
 608.838867188 780.401367188 l 5
 199.057617188 780.401367188 l 6
 166.8671875 780.401367188 139.989257812 774.250976562 119.165039062 762.1328125 c 4
 98.2919921875 749.95703125 83.341796875 734.319335938 73.51171875 714.325195312 c 4
 63.337890625 693.662109375 56.9404296875 671.89453125 54.4892578125 649.62109375 c 4
 52.4208984375 631.028320312 51.009765625 202.40625 50.599609375 23.541015625 c 5
 279.512695312 23.541015625 l 5
 279.512695312 255.935546875 l 5
 366.280273438 255.935546875 l 5
 366.280273438 23.541015625 l 5
 366.270507812 23.541015625 l 5
366.270507812 390.196289062 m 5
 279.502929688 390.196289062 l 5
 279.502929688 513.99609375 l 6
 279.502929688 601.889648438 282.859375 623.237304688 285.385742188 631.627929688 c 4
 288.141601562 640.838867188 296.599609375 656.495117188 322.266601562 657.849609375 c 6
 322.877929688 657.868164062 l 5
 366.26171875 657.868164062 l 5
 366.26171875 390.196289062 l 5
 366.270507812 390.196289062 l 5
303.053710938 413.756835938 m 5
 342.719726562 413.756835938 l 5
 342.719726562 634.327148438 l 5
 323.220703125 634.327148438 l 6
 312.092773438 633.668945312 309.309570312 629.397460938 307.9453125 624.868164062 c 4
 305.713867188 617.430664062 303.053710938 592.182617188 303.053710938 513.99609375 c 6
 303.053710938 413.756835938 l 5
137.576171875 822.049804688 m 5
 137.576171875 946.584960938 l 5
 328.693359375 997.625976562 l 5
 521.936523438 946.614257812 l 5
 521.936523438 822.087890625 l 5
 328.732421875 873.099609375 l 5
 137.576171875 822.049804688 l 5
328.693359375 897.469726562 m 5
 498.385742188 852.674804688 l 5
 498.385742188 928.477539062 l 5
 328.732421875 973.263671875 l 5
 161.126953125 928.497070312 l 5
 161.126953125 852.713867188 l 5
 328.693359375 897.469726562 l 5
EndSplineSet
Validated: 524293
EndChar

StartChar: Atilde
Encoding: 204 195 64
Width: 664
VWidth: 0
Flags: W
HStem: 0 23.54<53.249 282.104 368.843 611.449> 232.345 23.5332<305.646 345.303> 390.119 23.542<305.646 345.303> 634.184 23.542<310.593 345.303> 780.229 23.542<136.06 611.344> 824.328 23.5518<344.708 484.405> 854.868 23.5518<204.786 321.661> 940.196 23.5312<353.966 466.13> 973.464 23.5322<208.802 322.907>
VStem: 29.668 23.5811<23.5312 685.614> 155.777 23.5215<857.662 952.482> 282.104 23.542<23.5312 232.345 413.661 632.366> 345.303 23.5508<23.54 232.345 413.661 634.184> 485.389 23.5605<856.473 959.294> 611.449 23.5508<23.54 780.229>
LayerCount: 2
Fore
SplineSet
635 0 m 5
 345.302734375 0 l 5
 345.302734375 232.344726562 l 5
 305.646484375 232.344726562 l 5
 305.646484375 0 l 5
 29.640625 0 l 5
 29.66796875 11.7939453125 l 6
 29.7255859375 36.9462890625 31.0419921875 627.928710938 33.73046875 652.071289062 c 4
 36.4765625 677.0625 43.646484375 701.461914062 55.03125 724.564453125 c 4
 66.796875 748.506835938 85.2763671875 767.9296875 109.93359375 782.30859375 c 4
 134.409179688 796.552734375 165.274414062 803.771484375 201.66796875 803.771484375 c 6
 634.904296875 803.771484375 l 5
 635 0 l 5
368.842773438 23.5400390625 m 5
 611.44921875 23.5400390625 l 5
 611.34375 780.229492188 l 5
 201.66796875 780.229492188 l 6
 169.48828125 780.229492188 142.618164062 774.079101562 121.793945312 761.959960938 c 4
 100.922851562 749.784179688 85.9912109375 734.146484375 76.150390625 714.161132812 c 4
 65.9873046875 693.509765625 59.5791015625 671.750976562 57.12890625 649.467773438 c 4
 55.0595703125 630.884765625 53.6484375 202.358398438 53.2490234375 23.53125 c 5
 282.104492188 23.53125 l 5
 282.104492188 255.877929688 l 5
 368.853515625 255.877929688 l 5
 368.853515625 23.5400390625 l 5
 368.842773438 23.5400390625 l 5
368.842773438 390.119140625 m 5
 282.094726562 390.119140625 l 5
 282.094726562 513.881835938 l 6
 282.094726562 601.754882812 285.451171875 623.09375 287.96875 631.484375 c 4
 290.734375 640.6953125 299.19140625 656.342773438 324.83984375 657.706054688 c 6
 325.459960938 657.725585938 l 5
 368.833984375 657.725585938 l 5
 368.833984375 390.119140625 l 5
 368.842773438 390.119140625 l 5
305.646484375 413.661132812 m 5
 345.302734375 413.661132812 l 5
 345.302734375 634.18359375 l 5
 325.803710938 634.18359375 l 6
 314.67578125 633.526367188 311.890625 629.254882812 310.528320312 624.725585938 c 4
 308.306640625 617.296875 305.646484375 592.048828125 305.646484375 513.881835938 c 6
 305.646484375 413.661132812 l 5
155.77734375 811.198242188 m 5
 155.748046875 954.870117188 l 5
 159.256835938 958.321289062 l 6
 160.858398438 959.905273438 199.284179688 996.99609375 263.854492188 996.99609375 c 4
 287.77734375 996.99609375 312.330078125 991.836914062 336.854492188 981.64453125 c 4
 365.467773438 969.763671875 391.946289062 963.727539062 415.564453125 963.727539062 c 4
 466.767578125 963.727539062 487.2578125 991.750976562 487.458007812 992.038085938 c 6
 508.796875 1022.10058594 l 5
 508.94921875 843.827148438 l 5
 501.75 840.793945312 l 6
 500.157226562 840.127929688 462.189453125 824.328125 411.540039062 824.328125 c 4
 381.591796875 824.328125 353.396484375 829.876953125 327.719726562 840.8046875 c 4
 305.818359375 850.138671875 283.659179688 854.868164062 261.872070312 854.868164062 c 4
 209.458984375 854.868164062 175.361328125 827.313476562 175.02734375 827.036132812 c 6
 155.77734375 811.198242188 l 5
261.872070312 878.419921875 m 4
 286.852539062 878.419921875 312.111328125 873.060546875 336.94921875 862.477539062 c 4
 359.6796875 852.790039062 384.786132812 847.879882812 411.540039062 847.879882812 c 4
 445.037109375 847.879882812 472.821289062 855.668945312 485.388671875 859.874023438 c 6
 485.302734375 959.293945312 l 6
 470.58984375 949.740234375 447.831054688 940.196289062 415.564453125 940.196289062 c 4
 388.838867188 940.196289062 359.318359375 946.833007812 327.82421875 959.9140625 c 4
 306.180664062 968.90625 284.66015625 973.463867188 263.864257812 973.463867188 c 4
 219.1171875 973.463867188 189.129882812 952.590820312 179.298828125 944.6015625 c 6
 179.298828125 857.662109375 l 6
 196.786132812 867.092773438 225.37109375 878.419921875 261.872070312 878.419921875 c 4
EndSplineSet
Validated: 524293
EndChar

StartChar: Adieresis
Encoding: 128 196 65
Width: 652
VWidth: 0
Flags: W
HStem: 0 23.5312<47.5986 276.388 363.117 605.646> 232.27 23.5322<299.93 339.575> 389.995 23.542<299.93 339.575> 633.993 23.541<304.876 339.575> 779.991 23.541<130.382 605.552> 824.08 23.542<158.061 283.605 369.602 495.138> 973.158 23.5322<158.061 283.605 369.602 495.138>
VStem: 24.0283 23.5703<23.5312 685.401> 134.528 23.5322<847.622 973.158> 276.388 23.542<23.5312 232.27 413.537 632.176> 283.605 23.5322<847.622 973.158> 339.575 23.542<23.5312 232.27 413.537 633.993 847.622 973.158> 495.138 23.5508<847.622 973.158> 605.646 23.5322<23.5312 779.991>
LayerCount: 2
Fore
SplineSet
629.178710938 0 m 5xffdc
 339.575195312 0 l 5
 339.575195312 232.26953125 l 5
 299.9296875 232.26953125 l 5
 299.9296875 0 l 5
 24 0 l 5
 24.0283203125 11.7939453125 l 6
 24.0859375 36.9287109375 25.4013671875 627.729492188 28.0810546875 651.87109375 c 4
 30.8359375 676.852539062 37.9970703125 701.243164062 49.3720703125 724.345703125 c 4
 61.1376953125 748.278320312 79.6064453125 767.690429688 104.264648438 782.079101562 c 4
 128.73046875 796.32421875 159.5859375 803.532226562 195.970703125 803.532226562 c 6
 629.07421875 803.532226562 l 5
 629.178710938 0 l 5xffdc
363.1171875 23.53125 m 5
 605.646484375 23.53125 l 5
 605.551757812 779.991210938 l 5
 195.979492188 779.991210938 l 6
 163.809570312 779.991210938 136.940429688 773.8515625 116.125976562 761.731445312 c 4
 95.25390625 749.565429688 80.33203125 733.927734375 70.4921875 713.952148438 c 4
 60.337890625 693.299804688 53.939453125 671.551757812 51.4697265625 649.27734375 c 4
 49.41015625 630.694335938 47.9990234375 202.30078125 47.5986328125 23.53125 c 5
 276.387695312 23.53125 l 5
 276.387695312 255.801757812 l 5
 363.1171875 255.801757812 l 5
 363.1171875 23.53125 l 5
363.1171875 389.995117188 m 5
 276.387695312 389.995117188 l 5
 276.387695312 513.719726562 l 6
 276.387695312 601.57421875 279.744140625 622.904296875 282.26171875 631.294921875 c 4
 285.02734375 640.495117188 293.473632812 656.142578125 319.123046875 657.515625 c 6
 319.743164062 657.534179688 l 5
 363.1171875 657.534179688 l 5
 363.1171875 389.995117188 l 5
299.9296875 413.537109375 m 5
 339.575195312 413.537109375 l 5
 339.575195312 633.993164062 l 5
 320.0859375 633.993164062 l 6
 308.958984375 633.334960938 306.165039062 629.063476562 304.811523438 624.543945312 c 4
 302.58984375 617.116210938 299.9296875 591.877929688 299.9296875 513.719726562 c 6
 299.9296875 413.537109375 l 5
307.137695312 824.080078125 m 5xffbc
 134.528320312 824.080078125 l 5
 134.528320312 996.690429688 l 5
 307.137695312 996.690429688 l 5
 307.137695312 824.080078125 l 5xffbc
158.060546875 847.622070312 m 5
 283.60546875 847.622070312 l 5
 283.60546875 973.158203125 l 5
 158.060546875 973.158203125 l 5
 158.060546875 847.622070312 l 5
518.678710938 824.080078125 m 5
 346.069335938 824.080078125 l 5
 346.069335938 996.690429688 l 5
 518.688476562 996.690429688 l 5
 518.688476562 824.080078125 l 5
 518.678710938 824.080078125 l 5
369.6015625 847.622070312 m 5
 495.137695312 847.622070312 l 5
 495.137695312 973.158203125 l 5
 369.6015625 973.158203125 l 5
 369.6015625 847.622070312 l 5
EndSplineSet
Validated: 524289
EndChar

